<?xml version="1.0" standalone="no"?>
<!DOCTYPE svg PUBLIC "-//W3C//DTD SVG 1.1//EN" "http://www.w3.org/Graphics/SVG/1.1/DTD/svg11.dtd" >
<svg>
<metadata>
Created by FontForge 20120731 at Fri Mar 18 11:12:37 2016
 By ,,,
Typeface (c) (your company). 2012. All Rights Reserved
</metadata>
<defs>
<font id="MostWazted" horiz-adv-x="575" >
  <font-face 
    font-family="Most Wazted"
    font-weight="400"
    font-stretch="normal"
    units-per-em="2048"
    panose-1="2 0 5 0 0 0 0 0 0 0"
    ascent="1638"
    descent="-410"
    x-height="987"
    cap-height="1125"
    bbox="-457 -581 1939 1810"
    underline-thickness="150"
    underline-position="-142"
    unicode-range="U+0020-2265"
  />
<missing-glyph horiz-adv-x="1107" 
d="M3 0v1434h1105v-1434h-1105zM53 50h1005v1334h-1005v-1334zM561 668q149 7 165 44q7 70 -97 152q-87 60 -181 175q20 -50 22 -69q21 -73 -12 -117l-157 -19q41 79 -46 315v4q-32 78 -53 119l1 11q6 55 173 56q55 -6 71 -94q171 -247 438 -456q58 -45 77 -89
q-10 -84 -256 -102h-95q71 -119 43 -247l-86 9h-81q-21 196 -50 276l9 23zM469 192q24 100 86 85l37 4q91 -6 66 -88q-16 -102 -173 -97q-59 11 -16 96z" />
    <glyph glyph-name=".notdef" horiz-adv-x="1107" 
d="M3 0v1434h1105v-1434h-1105zM53 50h1005v1334h-1005v-1334zM561 668q149 7 165 44q7 70 -97 152q-87 60 -181 175q20 -50 22 -69q21 -73 -12 -117l-157 -19q41 79 -46 315v4q-32 78 -53 119l1 11q6 55 173 56q55 -6 71 -94q171 -247 438 -456q58 -45 77 -89
q-10 -84 -256 -102h-95q71 -119 43 -247l-86 9h-81q-21 196 -50 276l9 23zM469 192q24 100 86 85l37 4q91 -6 66 -88q-16 -102 -173 -97q-59 11 -16 96z" />
    <glyph glyph-name=".null" horiz-adv-x="0" 
 />
    <glyph glyph-name="nonmarkingreturn" horiz-adv-x="508" 
 />
    <glyph glyph-name="space" unicode=" " horiz-adv-x="902" 
 />
    <glyph glyph-name="space" unicode="&#xa0;" horiz-adv-x="902" 
 />
    <glyph glyph-name="exclam" unicode="!" horiz-adv-x="393" 
d="M218 503q-188 346 -209 693v143l34 224q141 9 175 28l14 -14v-42l-32 -170l28 -290q25 -185 133 -592v-7q-143 12 -143 27zM357 118q-148 -18 -167 106q-31 100 80 107l45 -4q75 18 105 -104q9 -92 -63 -105z" />
    <glyph glyph-name="quotedbl" unicode="&#x22;" horiz-adv-x="629" 
d="M-127 1118l90 -9q164 -18 337 -184q-2 -27 11 -29q-36 -108 -81 -103q-101 66 -493 235v7q52 56 136 83zM457 897q-276 240 -404 272q-245 125 -412 143l-10 28q102 102 219 88q199 -20 642 -310q154 -126 228 -272l-2 -19q-3 -26 -171 -46q-70 76 -90 116z" />
    <glyph glyph-name="numbersign" unicode="#" horiz-adv-x="1349" 
d="M1236 1024l3 -13l7 -90l-49 -4l-61 -17l-9 6l-2 104zM509 798q-1 -31 -43 -126q-10 -35 -26 -74l105 7q92 7 177 18q49 93 87 210l-181 -24q-61 -6 -119 -11zM70 294q50 86 76 165h-1l-36 -3l-14 1l-5 8l-52 -3l-42 16q-18 43 30 124q75 -25 157 -25h27l6 12
q46 100 83 196q-65 -3 -124 -4l-2 6q4 130 71 193l13 3l9 -4q7 -26 88 -34q36 119 73 259q29 43 234 48l-99 -308q37 2 79 5l208 25q9 38 18 79l18 166l-4 36l37 10q67 -13 178 18l-6 -34l-37 -255l39 6q5 -111 -16 -117l-43 -6q-18 -103 -64 -214q10 2 21 5v-6l286 85l7 -8
l-1 -6q-61 -141 -106 -136q-123 -46 -273 -75l-10 -22q-6 -10 -7 -21l-95 -186l17 -30l-10 -20l-81 16q-96 -5 -233 -24l59 72q48 69 92 162q-35 -4 -69 -7q-27 1 -47 -3l-150 -7q-48 -101 -138 -226q-35 -35 -239 -51q39 54 78 119zM1325 1042l27 6l3 -14q13 -80 -49 -96
l-20 -6l-4 15l-6 88z" />
    <glyph glyph-name="dollar" unicode="$" horiz-adv-x="1676" 
d="M1197 1197l-148 -277l-110 -177l-277 -27l-5 7l1 14q106 91 214 299l8 7q51 119 78 145zM1640 119l32 -64q142 -246 211 -313l2 -6l-80 5q-151 -9 -164 39q-85 110 -155 216q-114 -87 -256 -188q-194 -102 -214 -167l-14 2l-197 56l2 13l-3 43q100 211 117 365
q11 107 -53 217l-82 29v-6l-20 9l2 20q1 11 223 60q112 -42 160 -143q18 -91 8 -183q-13 -119 -90 -250q125 68 301 249q303 286 345 418l2 7q-7 28 -61 34l-34 4l-43 -2l-5 7l-7 1q-457 -42 -826 -128q-679 -243 -844 -226q-60 7 -79 44l-8 2l8 69l18 39q23 71 102 165
q11 43 212 226q-12 27 -27 57l-8 27l-14 49q-42 174 -55 262l44 10l6 2l10 -7q127 0 157 24l1 -6l9 -7l3 -59l11 -41l6 -42l10 -35q15 -43 27 -76q268 231 290 229l254 15l-2 -22q-68 -10 -452 -293q-311 -258 -398 -379l-1 -14q4 -21 38 -25q135 -14 298 31l6 -7l7 -1
q774 155 1087 198l237 -4l35 -3l102 -25q105 -63 108 -173q-20 -114 -299 -348z" />
    <glyph glyph-name="percent" unicode="%" horiz-adv-x="1095" 
d="M295 491l4 42l8 6l3 7l3 36l15 26l-6 1l12 21q100 337 404 727q13 48 164 39l80 5l-2 -6q-69 -67 -211 -313l-65 -128q-69 -139 -203 -522l1 -21l-9 -6l-2 -8l-6 -42l-9 -5l-2 -36l-11 -62l-9 -7l-1 -6q-30 24 -133 6l-9 -7l-7 2l-44 10q-3 109 35 241zM781 265
q-89 46 -119 171l-6 -1l-3 47q-3 128 130 256l11 3q162 5 165 -3q4 -11 -65 -59q-65 -84 -88 -205l6 1l4 -28l7 -22q8 -16 52 -29q79 18 53 94l-64 82q-12 37 67 107l5 3q92 -43 118 -118q20 -56 16 -97q-21 -165 -131 -203q-62 -21 -153 3zM146 922q-111 46 -119 171l-6 -1
l-3 47q-3 128 130 256l11 3q162 5 165 -3q4 -11 -65 -59q-65 -84 -88 -205l6 1l4 -28l7 -22q8 -16 52 -29q79 18 53 94l-64 82q-12 37 67 107l5 3q92 -43 118 -118q20 -56 16 -97q-21 -165 -131 -203q-62 -21 -153 3z" />
    <glyph glyph-name="ampersand" unicode="&#x26;" horiz-adv-x="781" 
d="M218 643q-243 21 -252 97q21 74 110 126q236 154 460 255q-3 13 -5 26q-2 110 13 205l209 32l6 -7l-2 -22l-14 -61l5 -21l-7 -6l-1 -8q-7 -74 5 -146l3 -30q-464 -231 -455 -316q40 -37 235 -37l117 -3q20 4 40 7v-3l5 -1l-5 -113h-1v-15q-80 -2 -184 -30
q-171 -37 -283 -113q-28 -19 20 -50l8 -12q106 -59 469 -182q276 -84 374 -103v-18l-231 -18q-97 -9 -378 67q-329 103 -365 142q-99 54 -159 125l-25 67l6 5q0 42 49 76q60 41 233 85z" />
    <glyph glyph-name="quotesingle" unicode="'" horiz-adv-x="629" 
d="M457 897q-276 240 -404 272q-245 125 -412 143l-10 28q102 102 219 88q199 -20 642 -310q154 -126 228 -272l-2 -19q-3 -26 -171 -46q-70 76 -90 116z" />
    <glyph glyph-name="parenleft" unicode="(" horiz-adv-x="526" 
d="M221 736l8 -5l-6 -22q10 -161 30 -232l37 -101q15 -67 88 -202l16 -21q93 -121 303 -225l42 -20l-14 -23q-325 13 -416 59l-101 99l-4 6l-10 1l2 10l-23 34q-81 132 -118 266q-42 115 -38 263l-5 41l-8 6l7 8l-1 7q-9 147 22 308q18 167 126 327l23 34l-2 10l10 1l4 6
q140 200 442 299l24 -18l21 -98q38 -63 2 -68q-210 -104 -322 -249q-60 -139 -91 -206l-37 -164q-11 -71 -11 -131z" />
    <glyph glyph-name="parenright" unicode=")" horiz-adv-x="526" 
d="M281 861l-37 164q-31 67 -91 206q-112 145 -322 249q-36 5 2 68l21 98l25 18q302 -99 441 -299l4 -6l11 -1l-2 -10l22 -34q109 -160 126 -327q31 -161 22 -308l-1 -7l7 -8l-8 -6l-4 -41q3 -148 -39 -263q-37 -134 -118 -266l-23 -34l2 -10l-10 -1l-4 -6l-101 -99
q-91 -46 -416 -59l-14 23l42 20q210 104 303 225l16 21q73 135 89 202l36 101q21 71 30 232l-5 22l7 5q1 60 -11 131z" />
    <glyph glyph-name="asterisk" unicode="*" horiz-adv-x="790" 
d="M276 1491q6 88 -4 198q6 13 34 25q32 -6 67 -14q30 -9 50 -19.5t24 -38.5q-1 -67 6 -104q118 35 162 76q5 2 21 -17.5t45 -32.5q43 -24 45 -35q0 -1 -3 -4q-99 -69 -231 -108q98 -169 228 -299q4 -4 -3 -6q-3 0 -7 1q-98 0 -159 28q-23 12 -29 18q-34 38 -117 170
q-23 -130 -77 -236q-2 -4 -24 0t-53 15q-74 27 -69 37q59 110 77 229q-30 -5 -74 -11q-43 -9 -54 -6q-68 30 -86 67q-8 4 -8 7q-1 4 4 5q140 17 235 55z" />
    <glyph glyph-name="plus" unicode="+" horiz-adv-x="954" 
d="M538 721q10 0 20 1h5q170 24 296 53l-17 -153q-54 -24 -253 -30q-25 1 -43 -4q8 -230 -41 -364l-129 7q23 103 -2 357l-152 1l-32 -3l-12 1l-4 8l-46 -3l-36 16l-3 52q18 60 89 53q76 -3 121 -2q26 -1 62 0q-5 37 -10 77l8 162q-6 39 15 73l191 20l4 -20l-33 -55
l-10 -141q7 -55 12 -106z" />
    <glyph glyph-name="comma" unicode="," horiz-adv-x="523" 
d="M514 264v-7q-392 -169 -493 -235q-45 -5 -81 103q13 2 11 29q173 166 337 184l90 9q84 -27 136 -83z" />
    <glyph glyph-name="hyphen" unicode="-" horiz-adv-x="954" 
d="M589 592q-30 1 -50 -6l-317 3l-32 -3l-12 1l-4 8l-46 -3l-36 16l-3 52q18 60 89 53q76 -3 121 -2q84 -2 259 11h5q170 24 296 53l-17 -153q-54 -24 -253 -30z" />
    <glyph glyph-name="hyphen" unicode="&#xad;" horiz-adv-x="954" 
d="M589 592q-30 1 -50 -6l-317 3l-32 -3l-12 1l-4 8l-46 -3l-36 16l-3 52q18 60 89 53q76 -3 121 -2q84 -2 259 11h5q170 24 296 53l-17 -153q-54 -24 -253 -30z" />
    <glyph glyph-name="period" unicode="." horiz-adv-x="451" 
d="M263 122q-148 -18 -167 106q-31 100 80 107l45 -4q75 18 105 -104q9 -92 -63 -105z" />
    <glyph glyph-name="slash" unicode="/" horiz-adv-x="702" 
d="M39 494l4 42l8 6l3 7l3 36l15 26l-7 1l13 21q100 337 404 727q13 48 164 39l80 5l-2 -6q-69 -67 -211 -313l-65 -128q-69 -139 -203 -522l1 -21l-9 -6l-2 -8l-6 -42l-9 -5l-2 -36l-11 -62l-9 -7l-1 -6q-30 24 -133 6l-10 -7l-6 2l-44 10q-3 109 35 241z" />
    <glyph glyph-name="zero" unicode="0" horiz-adv-x="738" 
d="M619 1100q75 -15 207 -64l-100 -18q79 -87 119 -234v-135q-15 -145 -144 -288q-102 -134 -374 -134h-11l-99 31q-220 109 -220 379q0 248 339 436l-58 24q9 5 19 10l111 34h12q113 1 199 -41zM545 941l-77 -27q-277 -169 -253 -362q14 -94 57.5 -125.5t139.5 -23.5
t193 158h1q24 47 39 99v146q-23 97 -100 135z" />
    <glyph glyph-name="one" unicode="1" horiz-adv-x="596" 
d="M743 1364v-27q-285 -468 -321 -957l23 -204l-109 -7l-98 -27q-82 127 8 523q51 189 147 346q-184 -221 -297 -243l-107 113q158 80 332 299.5t266 256.5q89 -13 156 -73z" />
    <glyph glyph-name="two" unicode="2" horiz-adv-x="926" 
d="M762 1306q205 -49 208 -164q-2 -230 -402 -589q-99 -95 -219 -200l-13 -24q158 -18 414 1q3 42 -69 125l21 24l46 -1q109 19 168 -20q112 -325 53 -325q-600 48 -901 1l-39 32q4 54 -19 116q-29 52 58 91q144 102 272 216l122 109q77 79 155 170l83 138q38 97 12 129
q-14 29 -54 31q-255 -1 -493 -67q-53 19 -59 70l3 47l28 38q381 91 625 52z" />
    <glyph glyph-name="three" unicode="3" horiz-adv-x="832" 
d="M338 1303q52 -6 115 -20l94 -30q83 -33 144 -82q109 -91 88 -175q-44 -112 -240 -205q13 5 78 -2l105 -25q71 -23 125 -68q40 -48 22 -124q-68 -170 -632 -445q-34 -19 -39 -41q-143 56 -138 75l4 18q90 158 107 214q42 153 -71 181l-6 17q136 22 155 17q131 -59 92 -197
l-12 -41q-9 -36 -17 -37l-1 -5q26 -6 160 90l136 95q40 47 53 98q-14 19 -30 23l-47 12q-143 31 -277 46q-14 24 -12 104l12 47q93 22 192 66l47 44q51 44 58 88q-8 25 -48 52q-74 47 -151 69l-87 15q-21 -1 -43 -3q-105 -2 -181 -4q-22 106 30 162l10 3l8 -2q6 -19 69 -32
q49 9 126 2h2z" />
    <glyph glyph-name="four" unicode="4" horiz-adv-x="973" 
d="M834 583l53 -21l59 -32q3 -14 -43 -38l-78 -13l-3 -42q-7 -102 -11 -231l7 -21l-5 -4l2 -24l4 -129l-25 -4l-6 -7l1 -6q-6 5 -16 9l-128 -23q-11 26 -17 53v2q-23 81 -18 284l18 99l5 56q-58 5 -131 10q-181 12 -239 16q-270 21 -284 96q22 73 85 115q480 312 699 530
q158 177 192 150l92 -75q26 -54 -20 -92t-233 -175q-65 -36 -63 -47q-417 -263 -428 -352q16 -13 156 -19q84 -4 191 -22q36 208 74 296q-1 48 138 50l70 11l-1 -6q-44 -71 -53 -142l-28 -131q-2 -10 -4 -22l-7 -48q-3 -24 -5 -51z" />
    <glyph glyph-name="five" unicode="5" horiz-adv-x="755" 
d="M299 881q96 -11 173 -18q176 -35 215 -118q59 -73 -7 -233q-77 -214 -632 -445q-34 -19 -39 -41q-143 56 -138 75l4 18q90 158 107 214q42 153 -71 181l-6 17q136 22 155 17q131 -59 92 -197l-12 -41q-9 -36 -17 -37l-1 -5q26 -6 160 72l139 94q106 115 117 210
q-14 35 -52 45l-82 12q-193 28 -284 49q-29 46 -10 111l10 75l9 190l3 -1v11q-6 36 0 87h3v6l11 7q49 3 123 11q8 1 15 1q39 4 85 10q142 16 369 88l38 29q26 8 54 -37l3 -5q30 -60 12 -81l-42 -25q-111 -56 -209 -78q-154 -42 -286 -54q3 -67 -2 -100l-6 -32l2 -55
q-1 -14 -3 -27z" />
    <glyph glyph-name="six" unicode="6" horiz-adv-x="836" 
d="M254 273q53 -129 210 -137q176 110 154 299q-52 235 -299 226l29 102q321 27 433 -179q104 -360 -177 -526l-10 -7l-113 -28q-234 -20 -383 166q-87 114 -79 336q-5 132 63 269q64 153 207 322q76 110 268 188l139 8l27 2l50 -1l14 1l1 -7q-161 -45 -264 -177
q-102 -123 -184 -269l-68 -159q-94 -278 -18 -429z" />
    <glyph glyph-name="seven" unicode="7" horiz-adv-x="799" 
d="M348 677q16 37 34 74q101 176 197 317q-140 -49 -259 -62q-92 -10 -183 8q-98 26 -137 107q46 200 57 201l20 2l9 -20h-6l38 -57q107 -42 214 -31q154 17 365 117l43 -3l13 2l56 -197l2 -14q-65 -36 -142 -201q-65 -114 -114 -218l82 10q79 11 111 26l14 5h12
q22 -29 -70 -152l-10 -7q-74 -6 -160 -17l-38 -1q-116 -301 -72 -528q-43 1 -79 18l-114 -1q-15 254 72 505h-18l-82 1l-29 -2l69 93l18 15zM208 667l-70 -95l-22 -17h-18q-54 2 15 90l19 16l27 1z" />
    <glyph glyph-name="eight" unicode="8" horiz-adv-x="805" 
d="M400 902q64 60 89 160q21 121 -92 167q-65 -10 -97 -48l-16 -36l-11 -82q20 -86 127 -161zM587 820q-18 -22 -39 -44l31 -20q174 -149 185 -308l1 -77l-10 -98l-74 -105l-125 -87q-160 -50 -277 -25q-205 45 -267 308q-15 66 12 158q45 105 109 128l53 2q160 -1 162 -38
l-124 -153q-41 -168 136 -241q90 -6 167 43l40 112q-34 210 -216 330l-106 7l-73 13l-1 7q42 16 89 43l-61 47q-95 97 -110 204l-3 60h9l6 75q38 97 139 164q126 46 219 30q167 -29 228 -237q14 -52 -2 -127q-19 -77 -97 -170h1q-1 -1 -2 -1z" />
    <glyph glyph-name="nine" unicode="9" horiz-adv-x="799" 
d="M593 834l11 143q-29 111 -193 176q-150 30 -220 -80q-88 -164 43 -269q60 -47 131 -45q107 -35 228 75zM618 1246l1 28l8 8l-1 6q35 -24 124 -61l7 8l7 -17l28 -22l19 -188v-9l-7 -129l-1 -24q2 -379 -210 -819q-1 -53 -154 -51l-79 -10l1 7q52 76 136 351l36 143
q9 40 31 148q-221 -58 -321 1q-141 46 -214 179q-103 145 32 395l7 10l87 76q218 108 463 -30z" />
    <glyph glyph-name="colon" unicode=":" horiz-adv-x="451" 
d="M90 227q30 122 105 104l45 4q111 -7 80 -107q-19 -124 -210 -118q-72 13 -20 117zM114 817q30 122 105 104l45 4q111 -7 80 -107q-19 -124 -210 -118q-72 13 -20 117z" />
    <glyph glyph-name="semicolon" unicode=";" horiz-adv-x="451" 
d="M114 817q30 122 105 104l45 4q111 -7 80 -107q-19 -124 -210 -118q-72 13 -20 117zM514 264v-7q-392 -169 -493 -235q-45 -5 -81 103q13 2 11 29q173 166 337 184l90 9q84 -27 136 -83z" />
    <glyph glyph-name="semicolon" unicode="&#x37e;" horiz-adv-x="451" 
d="M114 817q30 122 105 104l45 4q111 -7 80 -107q-19 -124 -210 -118q-72 13 -20 117zM514 264v-7q-392 -169 -493 -235q-45 -5 -81 103q13 2 11 29q173 166 337 184l90 9q84 -27 136 -83z" />
    <glyph glyph-name="less" unicode="&#x3c;" horiz-adv-x="1014" 
d="M539 662q21 -3 44 -6l5 -1q171 -11 300 -9l-48 -146q-58 -12 -254 23q-29 7 -50 4l-309 68l-32 3l-12 4l-2 9l-46 6l-9 6l-2 1v1l-21 15l8 52q11 20 26 29q21 17 57 19q76 8 120 16q83 10 255 47l5 1q165 48 285 94l5 -154q-50 -31 -246 -65q-30 -3 -49 -13z" />
    <glyph glyph-name="equal" unicode="=" horiz-adv-x="1014" 
d="M584 472q-30 1 -50 -6l-317 3l-32 -3l-12 1l-4 8l-46 -3l-36 16l-3 52q18 60 89 53q76 -3 121 -2q84 -2 259 11h5q170 24 296 53l-17 -153q-54 -24 -253 -30zM594 712q-30 1 -50 -6l-317 3l-32 -3l-12 1l-4 8l-46 -3l-36 16l-3 52q18 60 89 53q76 -3 121 -2q84 -2 259 11
h5q170 24 296 53l-17 -153q-54 -24 -253 -30z" />
    <glyph glyph-name="greater" unicode="&#x3e;" horiz-adv-x="1014" 
d="M422 666q-19 10 -49 13q-196 34 -246 65l5 154q120 -46 285 -94l5 -1q172 -37 255 -47q44 -8 120 -16q36 -2 57 -19q15 -9 26 -29l8 -52l-21 -15v-1l-2 -1l-9 -6l-46 -6l-2 -9l-12 -4l-32 -3l-309 -68q-21 3 -50 -4q-196 -35 -254 -23l-48 146q129 -2 300 9l5 1
q23 3 44 6z" />
    <glyph glyph-name="question" unicode="?" horiz-adv-x="965" 
d="M442 527q182 8 201 53q9 85 -118 185q-106 74 -220 214q24 -61 27 -85q25 -88 -15 -142l-191 -23q49 96 -57 384v5q-38 95 -64 144l1 14q8 67 211 68q67 -7 86 -115q209 -300 534 -555q70 -55 94 -108q-12 -103 -312 -125l-116 1q87 -146 52 -302l-104 12h-99
q-26 238 -60 335l11 28zM534 -149q-148 -18 -167 106q-31 100 80 107l45 -4q75 18 105 -104q9 -92 -63 -105z" />
    <glyph glyph-name="at" unicode="@" horiz-adv-x="2019" 
d="M1630 299q68 34 80 354q-20 335 -232 540q-197 188 -480 188q-205 0 -392.5 -137.5t-269.5 -355.5q-67 -178 -67 -361q0 -313 129.5 -511.5t305 -290.5t318.5 -92q274 0 575 208v-75q-263 -184 -571 -184q-240 0 -461 122.5t-343 342t-122 461.5t124 464.5t345.5 342
t456.5 119.5q362 0 609 -230t247 -566q0 -249 -149 -412q-113 -60 -221 -33q-159 38 -356 214q-137 159 -228 353q-55 72 -53 90l-14 1l-8 -76l-32 -171l119 1l6 -1q52 -6 109 -95l7 -2l-2 -27q-294 7 -304 -87l-71 -146l17 -30l-10 -20l-81 16l-8 1l-237 11l2 14
q97 102 157 221l-5 92l59 21l89 299h-7l7 7l18 166l-4 36l37 10q78 -44 183 -55v6l7 -6l7 -1l111 -5q110 -249 322 -533l120 -118q133 -126 161 -80z" />
    <glyph glyph-name="A" unicode="A" horiz-adv-x="844" 
d="M201 1112q78 -44 183 -55v6l7 -6l7 -1l111 -5q110 -249 322 -533l120 -118q197 -139 264 -147l-1 -14q-58 6 -220 -25q-159 38 -356 214q-137 159 -228 353q-55 72 -53 90l-14 1l-8 -76l-32 -171l119 1l6 -1q52 -6 109 -95l7 -2l-2 -27q-294 7 -304 -87l-71 -146l17 -30
l-10 -20l-81 16l-8 1l-237 11l2 14q97 102 157 221l-5 92l59 21l89 299h-7l7 7l18 166l-4 36z" />
    <glyph glyph-name="B" unicode="B" horiz-adv-x="1050" 
d="M275 901q3 -22 6 -46q38 -144 50 -327l167 -5q126 12 145 57q9 85 -113 142q1 11 -66 42q-118 75 -189 137zM851 485q18 -2 46 -6l102 -53q67 -47 79 -94q44 -74 -3 -159q-25 -135 -597 -378q-35 -18 -41 -39q-140 62 -134 81l5 18q97 153 120 229q50 169 -62 202l-5 17
q137 16 156 10q128 -64 82 -219l-18 -61q-11 -35 -19 -36l-1 -5q26 -8 109 56l80 38q79 51 118 136q7 54 -9 59q-35 106 -231 161q-5 -1 -9 -1l-208 2l-76 -10q9 -219 -5 -406l-78 21h-99l1 162q25 439 -158 903v5q-38 95 -64 144l1 14q8 67 211 68q67 -7 86 -115l9 -1
q161 -269 598 -554q70 -55 94 -108q-6 -50 -80 -81z" />
    <glyph glyph-name="C" unicode="C" horiz-adv-x="738" 
d="M826 1036l-110 -20q-220 52 -220 80v10h70q71 0 260 -70zM646 986v-10l-178 -62q-277 -169 -253 -362q14 -94 57.5 -125.5t139.5 -23.5t193 158q65 25 101 -155q-105 -179 -379 -179h-11l-99 31q-220 109 -220 379q0 275 379 439q78 0 270 -90z" />
    <glyph glyph-name="D" unicode="D" horiz-adv-x="1431" 
d="M141 729l2 27l2 70l6 -1q-2 242 -74 477q-76 206 -175 398l1 14q8 67 211 68q67 -7 86 -115l65 -112q229 -298 372 -390q218 -200 740 -471q70 -55 94 -108q-15 -131 -719 -99q-300 -28 -435 -79q-83 37 -123 42l-131 14l1 6l28 67l33 116zM179 1341l-2 -7
q119 -110 127 -189q75 -216 48 -474l-3 -35q121 85 249 106l133 -70l-3 -20q-50 4 -291 -102l-1 -7l7 -1l319 36l-1 -7l149 12l-1 -7q195 0 235 37q9 85 -456 316q1 11 -66 42q-208 133 -404 345zM683 754l134 -63l-3 -21l-21 2l-28 -3l-141 63l2 22h57z" />
    <glyph glyph-name="E" unicode="E" horiz-adv-x="917" 
d="M1069 533q-348 -46 -621 -241l-101 -87l-181 19q-13 1 -11 23l8 5q16 258 -35 263l-58 48l1 8q1 10 59 28l1 14q3 21 -55 139l-71 -7l-10 37l8 5l1 8l-1 63l1 6l16 13l6 -8q115 -13 457 77q299 105 331 154l71 -120l-1 -14q-278 -166 -638 -197l-1 -15l46 -88l14 -2
q360 130 441 121l68 -77v-7q-7 -11 -209 -47l-282 -83q7 -59 34 -136q231 138 638 197l113 16q71 -17 54 -100l-54 -12z" />
    <glyph glyph-name="F" unicode="F" horiz-adv-x="838" 
d="M815 1101l14 -1q63 -94 61 -122q-186 -118 -526 -191q-123 -4 -125 -24q-4 -36 48 -99l21 -2q185 80 432 129q79 -61 86 -81q-37 -23 -223.5 -68t-274.5 -68l-8 -14l29 -133q25 -239 -29 -411l-176 16l15 200v34q12 252 -53 258q-48 20 -46 34l68 44l3 21
q-38 102 -66 129l-43 5l-8 -7q-28 8 -23 61l1 6q6 55 35 62l51 -5q342 33 506.5 104t230.5 123z" />
    <glyph glyph-name="G" unicode="G" horiz-adv-x="965" 
d="M845 1033l-113 -20q-226 53 -226 82v10h72q72 0 267 -72zM301 231q-310 113 -310 391q0 283 391 453q80 0 278 -94v-9q-246 -46 -348 -170t-98 -266q12 -71 63.5 -121.5t165.5 -55.5q55 -3 84 13q84 32 152 84q53 55 62 109h-126q-143 -4 -165 90q0 18 51 137l14 -9
q0 -110 164 -110q74 0 237 46h18q19 0 37 -142q-20 0 -45 -27l-72 -141q-176 -251 -553 -178z" />
    <glyph glyph-name="H" unicode="H" horiz-adv-x="674" 
d="M277 640q11 -47 18 -128l18 -269l-35 -46l-135 2q-9 268 -34 449l-28 158q-65 248 -134 350l1 27q35 75 118 71q63 -3 97 -149q40 -65 87 -290l5 -32q163 59 181 64q168 -67 162 -99q-14 -312 90 -571q91 -188 316 -324l-1 -7l-9 -6l-5 9l-58 -6l-27 4l-107 7
q-138 26 -260 260q-89 156 -104 509l-47 40q-63 0 -109 -23z" />
    <glyph glyph-name="I" unicode="I" horiz-adv-x="434" 
d="M240 710q3 -145 15 -258l32 -101l13 3l-3 13l196 18v-6q-39 -77 -51 -157l-34 -6q-61 -10 -169 -85q-67 -11 -154 200l-32 108l6 8l-14 32l-2 14l7 8l-8 6l-17 132l-1 7l-1 132l238 49zM174 912q-148 -18 -167 106q-31 100 80 107l45 -4q75 18 105 -104q9 -92 -63 -105z
" />
    <glyph glyph-name="J" unicode="J" horiz-adv-x="463" 
d="M202 1059q-7 42 16 78l267 19l4 -22l-42 -59l-28 -149q56 -712 -181 -829l-97 24l-83 -4q-70 -12 -111 175q-5 27 131 62q22 4 56 -57l36 -90q111 23 23 677z" />
    <glyph glyph-name="K" unicode="K" horiz-adv-x="714" 
d="M324 436l2 -57v-126l-60 -2l-7 -2l-8 7q-87 -24 -121 -48v6l-8 7l-12 104l4 36l-8 5l2 42v8l-8 6l5 21q-6 60 -13 117l-50 336q-20 104 -43 194q-51 258 -107 325l-1 6l79 -5q153 9 157 -39q104 -287 152 -542v4q193 176 254 221q52 -13 122 -96q-3 -29 -3 -61
q-138 -89 -282 -215q69 -109 187 -252q129 -160 236 -255q-3 -31 -16 -63l-223 4q-87 132 -230 314z" />
    <glyph glyph-name="L" unicode="L" horiz-adv-x="336" 
d="M81 540l-35 338q-15 105 -34 196q-22 144 -75 213v6l78 -8q154 2 155 -46q109 -290 130 -628l8 -21l-7 -1l9 -26l-4 -36v-7l7 -7l-5 -41l-2 -123l-5 -126h-60l-7 -1l-8 7q-88 -20 -123 -42v6l-8 7l-7 104l6 36l-8 6l4 41v8l-7 7l6 21q-4 60 -8 117z" />
    <glyph glyph-name="M" unicode="M" horiz-adv-x="1113" 
d="M563 1308q264 -86 260 -119q53 -278 196 -588q97 -187 223 -340q228 -248 389 -293l-1 -7l-8 -7l-6 8l-50 -1l-27 2l-139 8q-184 40 -385 266q-196 269 -246 447q-45 101 -43 130l-7 1l-1 -14q25 -161 7 -330q-15 -133 -59 -218l-223 4q-74 138 -203 329l3 -35l-13 -124
q-7 -63 -44 -157l6 -1q-10 -27 -30 -25l-178 48h-7l1 8l59 224l-3 28l9 21l-5 21l1 14l7 -1l5 238l6 -1q-10 39 -3 98l7 -1q161 32 206 27q39 -145 220 -367l13 -15l13 -1l25 102q17 154 -55 532h-7q62 79 87 89z" />
    <glyph glyph-name="N" unicode="N" horiz-adv-x="1026" 
d="M931 435l5 -21l-8 -6v-8l2 -42l-8 -5l4 -36l-12 -104l-8 -7v-6q-34 24 -121 48l-8 -7l-7 2l-61 13l-8 -7l1 8l-85 -5q-179 327 -387 434l-7 1l-1 -7q72 -45 71 -57l-2 -21q-13 -113 -75 -237l-7 1q-124 98 -146 142l-4 21l7 6q12 101 -85 317l-103 151q218 5 220 19
q323 -168 509 -405l99 -130l7 -1l1 8l-3 42l7 6l1 7l-3 36l10 26l-7 1l9 21q37 337 268 727q4 48 157 39l79 5l-1 -6q-56 -67 -152 -313l-42 -128q-43 -139 -106 -522z" />
    <glyph glyph-name="O" unicode="O" 
d="M219 345q-141 15 -209 205q-16 48 -8 119q11 97 109 172l7 -2q112 -62 108 -109l-55 -114q-10 -98 88 -163q57 26 43 136q-41 178 -141 260q-94 38 -92 52q1 11 194 48l14 -1q192 -116 223 -268l8 -57h-7q13 -138 -95 -235q-83 -64 -187 -43zM120 987l42 -5l6 -8l8 6
l20 -2l7 -7l7 -1l7 5l6 -6l-1 -7l-179 -44l-49 12l-54 6l1 13z" />
    <glyph glyph-name="P" unicode="P" horiz-adv-x="965" 
d="M275 901q3 -22 6 -46q38 -144 50 -327l167 -5q126 12 145 57q9 85 -113 142q1 11 -66 42q-118 75 -189 137zM335 433q9 -219 -5 -406l-78 21h-99l1 162q25 439 -158 903v5q-38 95 -64 144l1 14q8 67 211 68q67 -7 86 -115l9 -1q161 -269 598 -554q70 -55 94 -108
q-12 -103 -312 -125l-208 2z" />
    <glyph glyph-name="Q" unicode="Q" 
d="M409 -43h111l-35 59h-163q27 -59 87 -59zM236 236q-145 41 -219 250q-20 61 -10 150q14 122 137 216l9 -2q82 -46 125 -87l-84 -138q-45 -206 149 -300q113 38 107 214q-31 153 -117.5 222t-125.5 101q-119 48 -116 66q1 13 244 60l18 -1q241 -146 280 -337l10 -72h-9
q17 -173 -117 -295v-6l-70 -40q-34 -67 -12 -145l25 -43l5 -13l-160 2q-81 117 -69 198z" />
    <glyph glyph-name="R" unicode="R" horiz-adv-x="965" 
d="M275 901q3 -22 6 -46q38 -144 50 -327l167 -5q126 12 145 57q9 85 -113 142q1 11 -66 42q-118 75 -189 137zM335 433q4 -159 -10 -346l-78 21h-99l1 162q30 379 -153 843v5q-38 95 -64 144l1 14q8 67 211 68q67 -7 86 -115l9 -1q161 -269 598 -554q70 -55 94 -108
q-12 -103 -312 -125q38 -100 85 -203q97 -187 223 -340q228 -248 389 -293l-1 -7l-8 -7l-6 8l-50 -1l-27 2l-139 8q-184 40 -385 266q-196 269 -246 447q-39 88 -43 122z" />
    <glyph glyph-name="S" unicode="S" horiz-adv-x="1676" 
d="M1197 1197l-148 -277l-110 -177l-277 -27l-5 7l1 14q106 91 214 299l8 7q51 119 78 145zM1230 -192q-194 -102 -214 -167l-14 2l-197 56l2 13l-3 43q100 211 117 365q11 107 -53 217l-82 29v-6l-20 9l2 20q1 11 223 60q112 -42 160 -143q18 -91 8 -183q-13 -119 -90 -250
q125 68 301 249q303 286 345 418l2 7q-7 28 -61 34l-34 4l-43 -2l-5 7l-7 1q-457 -42 -826 -128q-679 -243 -844 -226q-60 7 -79 44l-8 2l8 69l18 39q23 71 102 165q13 52 299 303q358 312 383 310l254 15l-2 -22q-68 -10 -452 -293q-311 -258 -398 -379l-1 -14
q4 -21 38 -25q135 -14 298 31l6 -7l7 -1q774 155 1087 198l237 -4l35 -3l102 -25q105 -63 108 -173q-31 -180 -709 -659z" />
    <glyph glyph-name="T" unicode="T" horiz-adv-x="817" 
d="M105 838l-35 4l-8 -7l-7 2l1 6l-7 -5l-104 10h-63q-22 2 -73 113l240 3v6l-49 62l2 20l247 16q23 -2 47 -89q360 31 366 87l8 5l13 -1q76 -52 100 -179l-1 -7q-196 -27 -452 -42q36 -186 193 -406l78 -64q36 77 43 135l1 15q163 -46 162 -61l5 -7v-7l-6 1l5 -8
q-43 -143 -125 -134l-170 -16q-95 42 -214 170l-107 173q-93 172 -90 205zM-225 965l53 -103l-8 -7l-63 7l-49 -3l-46 90l1 13zM-379 967l47 -88l-1 -15l-21 2q-64 7 -103 88l1 14l28 -2z" />
    <glyph glyph-name="U" unicode="U" horiz-adv-x="666" 
d="M510 391q-108 -168 -201 -160l-64 6q-87 8 -181 203q-67 204 -56 326l1 14q5 50 105 41l109 25l7 -7l-15 -156q-12 -135 89 -280l20 -9q40 38 80 164l13 142q13 138 -43 311l1 14q32 69 170 57l56 -6q32 -37 9 -272t-100 -413z" />
    <glyph glyph-name="V" unicode="V" horiz-adv-x="826" 
d="M633 1178q99 -73 167 -389l9 -160l-4 -28q-45 -347 -153 -400l-106 22q-142 15 -144 3q-50 42 -129.5 172.5t-270.5 587.5l2 13q35 68 172 51l57 -8q5 -41 113 -308.5t154 -310.5l22 -3q41 97 48 153l20 156q15 117 -126 428l1 7z" />
    <glyph glyph-name="W" unicode="W" horiz-adv-x="1201" 
d="M1019 1199q171 -294 145 -541l-1 -7l7 -8l-8 -6l-5 -41q-21 -197 -106 -346l-77 8l-6 8h-7l-1 -7l-6 8l-196 7l-178 299q-11 -110 -164 -297q-51 -51 -165 -38q-161 17 -226 374q-17 110 -14 205l221 32l6 -7l-2 -22l-14 -61l5 -21l-7 -6l-1 -8q16 -268 61 -272
q-2 -22 36 -53q76 114 89 235l5 49q16 147 -42 327l2 13q40 59 145 48l98 -4l137 -351q90 -201 121 -244l12 -16q28 68 60 226l-6 22l8 5q9 155 -85 381l-60 98l1 6z" />
    <glyph glyph-name="X" unicode="X" horiz-adv-x="678" 
d="M154 733q-132 277 -187 496q54 66 80 74l179 -78q33 -16 85 -234q73 148 160 270q4 14 199 -19l-1 -7q-199 -287 -266 -459q114 -232 258 -374q118 -134 225 -195q-4 -14 -258 0l-2 -8q-193 128 -324 286q-48 -118 -70 -261l-11 -39q-42 17 -199 23l47 238l61 225
q11 32 24 62z" />
    <glyph glyph-name="Y" unicode="Y" horiz-adv-x="617" 
d="M388 273l4 -7q27 -164 79 -255l-17 -40l-184 30l-37 160l-35 226q-40 39 -82 104q-77 178 -100 413t9 272l56 6q138 12 170 -57l1 -14q-56 -173 -43 -311l13 -142q40 -126 80 -164l20 9q101 145 89 280l-15 156l7 7l109 -25q100 9 105 -41l1 -14q11 -122 -56 -326
q-94 -194 -180 -203q3 -27 6 -64z" />
    <glyph glyph-name="Z" unicode="Z" horiz-adv-x="1031" 
d="M776 706q120 7 153 19l15 4l12 -1q19 -31 -84 -145l-11 -6q-114 -2 -216 -4q-108 -104 -279 -272l-43 -37q222 16 500 14q3 42 -86 177l21 24l46 -1q109 19 168 -20q112 -325 53 -325q-600 48 -1008 -4l-33 80q-29 52 140 164q144 102 272 216l-81 9h-29l77 87l20 13
l120 3q39 41 189 207l-83 2q-376 20 -558 85q-14 0 -35 140h6q247 -51 445 -72l322 -4l159 6l29 -34v-79q-139 -181 -201 -246zM330 703l-79 -88l-23 -15l-18 2q-54 7 23 88l21 14l26 -2z" />
    <glyph glyph-name="bracketleft" unicode="[" horiz-adv-x="485" 
d="M778 1691q29 -159 -22 -149q-243 7 -384 -31q-75 -532 -87 -818l-1 -472l27 -320q163 -30 326 -3q235 49 47 -180q-464 -34 -612 47l-48 500v317q18 450 135 1020q6 42 110 86t509 3z" />
    <glyph glyph-name="backslash" unicode="\" horiz-adv-x="702" 
d="M4 1392l44 10l6 2l10 -7q103 -18 133 6l1 -6l9 -7l11 -62l2 -36l9 -5l6 -42l2 -8l9 -6l-1 -21q134 -383 203 -522l65 -128q142 -246 211 -313l2 -6l-80 5q-151 -9 -164 39q-304 390 -404 727l-13 21l7 1l-15 26l-3 36l-3 7l-8 6l-4 42q-38 132 -35 241z" />
    <glyph glyph-name="bracketright" unicode="]" horiz-adv-x="485" 
d="M315 1595q117 -570 129 -1020v-317l-42 -500q-148 -81 -612 -47q-188 229 47 180q163 -27 326 3l27 320v439q-13 319 -88 851q-141 38 -384 31q-51 -10 -22 149q405 41 509 -3t110 -86z" />
    <glyph glyph-name="asciicircum" unicode="^" horiz-adv-x="584" 
d="M82 1636l19 -3q55 15 137 6l75 6q30 -30 113 -217l105 -171q-6 -68 -144 -50q-89 117 -135 249l-11 -12v-23l-18 -211l-177 -7q55 142 44 311z" />
    <glyph glyph-name="underscore" unicode="_" horiz-adv-x="1024" 
d="M46 -186l-14 1l-5 8l-52 -3l-42 16l-3 52q21 60 102 53q103 -4 156 -1q546 -32 949 30l7 -8l-1 -6q-18 -141 -63 -136q-260 -24 -992 -12z" />
    <glyph glyph-name="grave" unicode="`" horiz-adv-x="336" 
d="M-22 1353l90 -9q164 -18 337 -184q-2 -27 11 -29q-36 -108 -81 -103q-101 66 -493 235v7q52 56 136 83z" />
    <glyph glyph-name="a" unicode="a" horiz-adv-x="844" 
d="M201 1112q78 -44 183 -55v6l7 -6l7 -1l111 -5q110 -249 322 -533l120 -118q197 -139 264 -147l-1 -14q-58 6 -220 -25q-159 38 -356 214q-137 159 -228 353q-55 72 -53 90l-14 1l-8 -76l-32 -171l119 1l6 -1q52 -6 109 -95l7 -2l-2 -27q-294 7 -304 -87l-71 -146l17 -30
l-10 -20l-81 16l-8 1l-237 11l2 14q97 102 157 221l-5 92l59 21l89 299h-7l7 7l18 166l-4 36z" />
    <glyph glyph-name="b" unicode="b" horiz-adv-x="1050" 
d="M275 901q3 -22 6 -46q38 -144 50 -327l167 -5q126 12 145 57q9 85 -113 142q1 11 -66 42q-118 75 -189 137zM851 485q18 -2 46 -6l102 -53q67 -47 79 -94q44 -74 -3 -159q-25 -135 -597 -378q-35 -18 -41 -39q-140 62 -134 81l5 18q97 153 120 229q50 169 -62 202l-5 17
q137 16 156 10q128 -64 82 -219l-18 -61q-11 -35 -19 -36l-1 -5q26 -8 109 56l80 38q79 51 118 136q7 54 -9 59q-35 106 -231 161q-5 -1 -9 -1l-208 2l-76 -10q9 -219 -5 -406l-78 21h-99l1 162q25 439 -158 903v5q-38 95 -64 144l1 14q8 67 211 68q67 -7 86 -115l9 -1
q161 -269 598 -554q70 -55 94 -108q-6 -50 -80 -81z" />
    <glyph glyph-name="c" unicode="c" horiz-adv-x="738" 
d="M826 1036l-110 -20q-220 52 -220 80v10h70q71 0 260 -70zM646 986v-10l-178 -62q-277 -169 -253 -362q14 -94 57.5 -125.5t139.5 -23.5t193 158q65 25 101 -155q-105 -179 -379 -179h-11l-99 31q-220 109 -220 379q0 275 379 439q78 0 270 -90z" />
    <glyph glyph-name="d" unicode="d" horiz-adv-x="1431" 
d="M141 729l2 27l2 70l6 -1q-2 242 -74 477q-76 206 -175 398l1 14q8 67 211 68q67 -7 86 -115l65 -112q229 -298 372 -390q218 -200 740 -471q70 -55 94 -108q-15 -131 -719 -99q-300 -28 -435 -79q-83 37 -123 42l-131 14l1 6l28 67l33 116zM179 1341l-2 -7
q119 -110 127 -189q75 -216 48 -474l-3 -35q121 85 249 106l133 -70l-3 -20q-50 4 -291 -102l-1 -7l7 -1l319 36l-1 -7l149 12l-1 -7q195 0 235 37q9 85 -456 316q1 11 -66 42q-208 133 -404 345zM683 754l134 -63l-3 -21l-21 2l-28 -3l-141 63l2 22h57z" />
    <glyph glyph-name="e" unicode="e" horiz-adv-x="917" 
d="M1069 533q-348 -46 -621 -241l-101 -87l-181 19q-13 1 -11 23l8 5q16 258 -35 263l-58 48l1 8q1 10 59 28l1 14q3 21 -55 139l-71 -7l-10 37l8 5l1 8l-1 63l1 6l16 13l6 -8q115 -13 457 77q299 105 331 154l71 -120l-1 -14q-278 -166 -638 -197l-1 -15l46 -88l14 -2
q360 130 441 121l68 -77v-7q-7 -11 -209 -47l-282 -83q7 -59 34 -136q231 138 638 197l113 16q71 -17 54 -100l-54 -12z" />
    <glyph glyph-name="f" unicode="f" horiz-adv-x="838" 
d="M815 1101l14 -1q63 -94 61 -122q-186 -118 -526 -191q-123 -4 -125 -24q-4 -36 48 -99l21 -2q185 80 432 129q79 -61 86 -81q-37 -23 -223.5 -68t-274.5 -68l-8 -14l29 -133q25 -239 -29 -411l-176 16l15 200v34q12 252 -53 258q-48 20 -46 34l68 44l3 21
q-38 102 -66 129l-43 5l-8 -7q-28 8 -23 61l1 6q6 55 35 62l51 -5q342 33 506.5 104t230.5 123z" />
    <glyph glyph-name="g" unicode="g" horiz-adv-x="965" 
d="M845 1033l-113 -20q-226 53 -226 82v10h72q72 0 267 -72zM301 232v-1q-310 113 -310 391q0 283 391 453q80 0 278 -94v-9q-246 -46 -348 -170t-98 -266q12 -71 63.5 -121.5t165.5 -55.5q55 -3 84 13q84 32 152 84q71 42 71 67h-4h-62h-60q-151 0 -174 132q0 18 51 137
l14 -9q0 -110 164 -110q74 0 237 46h18q19 0 37 -142q-20 0 -45 -27l-144 -179q-47 -63 -116 -107q-49 -29 -108 -43l-122 -11q-89 4 -135 22z" />
    <glyph glyph-name="h" unicode="h" horiz-adv-x="674" 
d="M277 640q11 -47 18 -128l18 -269l-35 -46l-135 2q-9 268 -34 449l-28 158q-65 248 -134 350l1 27q35 75 118 71q63 -3 97 -149q40 -65 87 -290l5 -32q163 59 181 64q168 -67 162 -99q-14 -312 90 -571q91 -188 316 -324l-1 -7l-9 -6l-5 9l-58 -6l-27 4l-107 7
q-138 26 -260 260q-89 156 -104 509l-47 40q-63 0 -109 -23z" />
    <glyph glyph-name="i" unicode="i" horiz-adv-x="434" 
d="M240 710q3 -145 15 -258l32 -101l13 3l-3 13l196 18v-6q-39 -77 -51 -157l-34 -6q-61 -10 -169 -85q-67 -11 -154 200l-32 108l6 8l-14 32l-2 14l7 8l-8 6l-17 132l-1 7l-1 132l238 49zM174 912q-148 -18 -167 106q-31 100 80 107l45 -4q75 18 105 -104q9 -92 -63 -105z
" />
    <glyph glyph-name="j" unicode="j" horiz-adv-x="463" 
d="M202 1059q-7 42 16 78l267 19l4 -22l-42 -59l-28 -149q56 -712 -181 -829l-97 24l-83 -4q-70 -12 -111 175q-5 27 131 62q22 4 56 -57l36 -90q111 23 23 677z" />
    <glyph glyph-name="k" unicode="k" horiz-adv-x="714" 
d="M324 436l2 -57v-126l-60 -2l-7 -2l-8 7q-87 -24 -121 -48v6l-8 7l-12 104l4 36l-8 5l2 42v8l-8 6l5 21q-6 60 -13 117l-50 336q-20 104 -43 194q-51 258 -107 325l-1 6l79 -5q153 9 157 -39q104 -287 152 -542v4q193 176 254 221q52 -13 122 -96q-3 -29 -3 -61
q-138 -89 -282 -215q69 -109 187 -252q129 -160 236 -255q-3 -31 -16 -63l-223 4q-87 132 -230 314z" />
    <glyph glyph-name="l" unicode="l" horiz-adv-x="336" 
d="M81 540l-35 338q-15 105 -34 196q-22 144 -75 213v6l78 -8q154 2 155 -46q109 -290 130 -628l8 -21l-7 -1l9 -26l-4 -36v-7l7 -7l-5 -41l-2 -123l-5 -126h-60l-7 -1l-8 7q-88 -20 -123 -42v6l-8 7l-7 104l6 36l-8 6l4 41v8l-7 7l6 21q-4 60 -8 117z" />
    <glyph glyph-name="m" unicode="m" horiz-adv-x="1113" 
d="M563 1308q264 -86 260 -119q53 -278 196 -588q97 -187 223 -340q228 -248 389 -293l-1 -7l-8 -7l-6 8l-50 -1l-27 2l-139 8q-184 40 -385 266q-196 269 -246 447q-45 101 -43 130l-7 1l-1 -14q25 -161 7 -330q-15 -133 -59 -218l-223 4q-74 138 -203 329l3 -35l-13 -124
q-7 -63 -44 -157l6 -1q-10 -27 -30 -25l-178 48h-7l1 8l59 224l-3 28l9 21l-5 21l1 14l7 -1l5 238l6 -1q-10 39 -3 98l7 -1q161 32 206 27q39 -145 220 -367l13 -15l13 -1l25 102q17 154 -55 532h-7q62 79 87 89z" />
    <glyph glyph-name="n" unicode="n" horiz-adv-x="1026" 
d="M931 435l5 -21l-8 -6v-8l2 -42l-8 -5l4 -36l-12 -104l-8 -7v-6q-34 24 -121 48l-8 -7l-7 2l-61 13l-8 -7l1 8l-85 -5q-179 327 -387 434l-7 1l-1 -7q72 -45 71 -57l-2 -21q-13 -113 -75 -237l-7 1q-124 98 -146 142l-4 21l7 6q12 101 -85 317l-103 151q218 5 220 19
q323 -168 509 -405l99 -130l7 -1l1 8l-3 42l7 6l1 7l-3 36l10 26l-7 1l9 21q37 337 268 727q4 48 157 39l79 5l-1 -6q-56 -67 -152 -313l-42 -128q-43 -139 -106 -522z" />
    <glyph glyph-name="o" unicode="o" 
d="M219 345q-141 15 -209 205q-16 48 -8 119q11 97 109 172l7 -2q112 -62 108 -109l-55 -114q-10 -98 88 -163q57 26 43 136q-41 178 -141 260q-94 38 -92 52q1 11 194 48l14 -1q192 -116 223 -268l8 -57h-7q13 -138 -95 -235q-83 -64 -187 -43zM120 987l42 -5l6 -8l8 6
l20 -2l7 -7l7 -1l7 5l6 -6l-1 -7l-179 -44l-49 12l-54 6l1 13z" />
    <glyph glyph-name="p" unicode="p" horiz-adv-x="965" 
d="M275 901q3 -22 6 -46q38 -144 50 -327l167 -5q126 12 145 57q9 85 -113 142q1 11 -66 42q-118 75 -189 137zM335 433q9 -219 -5 -406l-78 21h-99l1 162q25 439 -158 903v5q-38 95 -64 144l1 14q8 67 211 68q67 -7 86 -115l9 -1q161 -269 598 -554q70 -55 94 -108
q-12 -103 -312 -125l-208 2z" />
    <glyph glyph-name="q" unicode="q" 
d="M409 -43h111l-35 59h-163q27 -59 87 -59zM236 236q-145 41 -219 250q-20 61 -10 150q14 122 137 216l9 -2q82 -46 125 -87l-84 -138q-45 -206 149 -300q113 38 107 214q-31 153 -117.5 222t-125.5 101q-119 48 -116 66q1 13 244 60l18 -1q241 -146 280 -337l10 -72h-9
q17 -173 -117 -295v-6l-70 -40q-34 -67 -12 -145l25 -43l5 -13l-160 2q-81 117 -69 198z" />
    <glyph glyph-name="r" unicode="r" horiz-adv-x="965" 
d="M275 901q3 -22 6 -46q38 -144 50 -327l167 -5q126 12 145 57q9 85 -113 142q1 11 -66 42q-118 75 -189 137zM335 433q4 -159 -10 -346l-78 21h-99l1 162q30 379 -153 843v5q-38 95 -64 144l1 14q8 67 211 68q67 -7 86 -115l9 -1q161 -269 598 -554q70 -55 94 -108
q-12 -103 -312 -125q38 -100 85 -203q97 -187 223 -340q228 -248 389 -293l-1 -7l-8 -7l-6 8l-50 -1l-27 2l-139 8q-184 40 -385 266q-196 269 -246 447q-39 88 -43 122z" />
    <glyph glyph-name="s" unicode="s" horiz-adv-x="1676" 
d="M1197 1197l-148 -277l-110 -177l-277 -27l-5 7l1 14q106 91 214 299l8 7q51 119 78 145zM1230 -192q-194 -102 -214 -167l-14 2l-197 56l2 13l-3 43q100 211 117 365q11 107 -53 217l-82 29v-6l-20 9l2 20q1 11 223 60q112 -42 160 -143q18 -91 8 -183q-13 -119 -90 -250
q125 68 301 249q303 286 345 418l2 7q-7 28 -61 34l-34 4l-43 -2l-5 7l-7 1q-457 -42 -826 -128q-679 -243 -844 -226q-60 7 -79 44l-8 2l8 69l18 39q23 71 102 165q13 52 299 303q358 312 383 310l254 15l-2 -22q-68 -10 -452 -293q-311 -258 -398 -379l-1 -14
q4 -21 38 -25q135 -14 298 31l6 -7l7 -1q774 155 1087 198l237 -4l35 -3l102 -25q105 -63 108 -173q-31 -180 -709 -659z" />
    <glyph glyph-name="t" unicode="t" horiz-adv-x="493" 
d="M50 1076q209 -8 211 12q29 117 68 112l205 13l-1 -7l-39 -108h6q261 21 463 69v-6l274 82l7 -8l-1 -6q-61 -141 -106 -136q-286 -106 -616 -138q-99 3 -104 -58l-83 -181q-36 -140 -56 -252l4 -106l13 -1l1 14l193 -36l-1 -6q-59 -63 -92 -137l-34 3q-62 7 -186 -36
q-67 8 -94 234l-2 113l8 6l-4 35l2 14l8 6l-6 8l20 131l1 7l59 224l-40 12l-28 3l-36 -3l-14 1l-5 8l-52 -3l-42 16l-3 52q21 60 102 53z" />
    <glyph glyph-name="u" unicode="u" horiz-adv-x="666" 
d="M510 391q-108 -168 -201 -160l-64 6q-87 8 -181 203q-67 204 -56 326l1 14q5 50 105 41l109 25l7 -7l-15 -156q-12 -135 89 -280l20 -9q40 38 80 164l13 142q13 138 -43 311l1 14q32 69 170 57l56 -6q32 -37 9 -272t-100 -413z" />
    <glyph glyph-name="v" unicode="v" horiz-adv-x="826" 
d="M633 1178q99 -73 167 -389l9 -160l-4 -28q-45 -347 -153 -400l-106 22q-142 15 -144 3q-50 42 -129.5 172.5t-270.5 587.5l2 13q35 68 172 51l57 -8q5 -41 113 -308.5t154 -310.5l22 -3q41 97 48 153l20 156q15 117 -126 428l1 7z" />
    <glyph glyph-name="w" unicode="w" horiz-adv-x="1201" 
d="M1019 1199q171 -294 145 -541l-1 -7l7 -8l-8 -6l-5 -41q-21 -197 -106 -346l-77 8l-6 8h-7l-1 -7l-6 8l-196 7l-178 299q-11 -110 -164 -297q-51 -51 -165 -38q-161 17 -226 374q-17 110 -14 205l221 32l6 -7l-2 -22l-14 -61l5 -21l-7 -6l-1 -8q16 -268 61 -272
q-2 -22 36 -53q76 114 89 235l5 49q16 147 -42 327l2 13q40 59 145 48l98 -4l137 -351q90 -201 121 -244l12 -16q28 68 60 226l-6 22l8 5q9 155 -85 381l-60 98l1 6z" />
    <glyph glyph-name="x" unicode="x" horiz-adv-x="678" 
d="M154 733q-132 277 -187 496q54 66 80 74l179 -78q33 -16 85 -234q73 148 160 270q4 14 199 -19l-1 -7q-199 -287 -266 -459q114 -232 258 -374q118 -134 225 -195q-4 -14 -258 0l-2 -8q-193 128 -324 286q-48 -118 -70 -261l-11 -39q-42 17 -199 23l47 238l61 225
q11 32 24 62z" />
    <glyph glyph-name="y" unicode="y" horiz-adv-x="617" 
d="M388 273l4 -7q27 -164 79 -255l-17 -40l-184 30l-37 160l-35 226q-40 39 -82 104q-77 178 -100 413t9 272l56 6q138 12 170 -57l1 -14q-56 -173 -43 -311l13 -142q40 -126 80 -164l20 9q101 145 89 280l-15 156l7 7l109 -25q100 9 105 -41l1 -14q11 -122 -56 -326
q-94 -194 -180 -203q3 -27 6 -64z" />
    <glyph glyph-name="z" unicode="z" horiz-adv-x="1031" 
d="M776 706q120 7 153 19l15 4l12 -1q19 -31 -84 -145l-11 -6q-114 -2 -216 -4q-108 -104 -279 -272l-43 -37q222 16 500 14q3 42 -86 177l21 24l46 -1q109 19 168 -20q112 -325 53 -325q-600 48 -1008 -4l-33 80q-29 52 140 164q144 102 272 216l-81 9h-29l77 87l20 13
l120 3q39 41 189 207l-83 2q-376 20 -558 85q-14 0 -35 140h6q247 -51 445 -72l322 -4l159 6l29 -34v-79q-139 -181 -201 -246zM330 703l-79 -88l-23 -15l-18 2q-54 7 23 88l21 14l26 -2z" />
    <glyph glyph-name="braceleft" unicode="{" horiz-adv-x="485" 
d="M778 1691q29 -159 -22 -149q-243 7 -384 -31q-75 -532 -87 -818l-1 -472l27 -320q163 -30 326 -3q235 49 47 -180q-464 -34 -612 47l-48 500v317q18 450 135 1020q6 42 110 86t509 3z" />
    <glyph glyph-name="bar" unicode="|" horiz-adv-x="354" 
d="M224 1676q119 -922 39 -1758q-131 -98 -198 -25q69 842 -17 1752q15 73 176 31z" />
    <glyph glyph-name="braceright" unicode="}" horiz-adv-x="485" 
d="M315 1595q117 -570 129 -1020v-317l-42 -500q-148 -81 -612 -47q-188 229 47 180q163 -27 326 3l27 320v439q-13 319 -88 851q-141 38 -384 31q-51 -10 -22 149q405 41 509 -3t110 -86z" />
    <glyph glyph-name="asciitilde" unicode="~" horiz-adv-x="1052" 
d="M1005 659q38 -121 -69 -135q-110 -23 -374 82q-131 67 -270 74q-78 0 -83 -45q11 -45 55 -91h-211l-34 28q-46 113 4 176q129 97 378 20q370 -133 362 17q-14 19 -34 42l172 -1l30 -20q54 -70 74 -147z" />
    <glyph glyph-name="exclamdown" unicode="&#xa1;" horiz-adv-x="393" 
d="M220 910q188 -346 209 -693v-143l-34 -224q-141 -9 -175 -28l-14 14v42l32 170l-28 290q-25 185 -133 592v7q143 -12 143 -27zM81 1295q148 18 167 -106q31 -100 -80 -107l-45 4q-75 -18 -105 104q-9 92 63 105z" />
    <glyph glyph-name="cent" unicode="&#xa2;" horiz-adv-x="738" 
d="M598 1103q76 -11 228 -67l-113 -26q-115 -34 -245 -96q-277 -169 -253 -362q14 -94 57.5 -125.5t139.5 -23.5t193 158q65 25 101 -155q-78 -132 -248 -167l-14 -40l1 -21l-9 -6l-2 -8l-6 -42l-9 -5l-2 -36l-11 -62l-9 -7l-1 -6q-30 24 -133 6l-10 -7l-6 2l-44 10
q-3 107 33 235l-19 6q-220 109 -220 379q0 269 363 432q51 74 110 149q13 48 164 39l80 5l-2 -6q-43 -42 -114 -153z" />
    <glyph glyph-name="sterling" unicode="&#xa3;" horiz-adv-x="1154" 
d="M422 152l33 -13q222 16 500 14q3 42 -86 177l21 24l46 -1q109 19 168 -20q112 -325 53 -325q-600 48 -1008 -4l-33 80q-27 48 115 147q16 116 7 237l-86 1l-32 -3l-12 1l-4 8l-46 -3l-36 16l-3 52q18 60 89 53q72 -3 116 -2q-36 261 -142 531v5q-38 95 -64 144l1 14
q8 67 211 68q67 -7 86 -115l9 -1q110 -184 349 -375l-170 -59q-86 58 -143 107q3 -22 6 -46q32 -120 45 -267q36 2 76 5h5q170 24 296 53l-17 -153q-54 -24 -253 -30q-30 1 -50 -6h-49l1 -24q6 -153 1 -290z" />
    <glyph glyph-name="yen" unicode="&#xa5;" horiz-adv-x="742" 
d="M418 145q22 -80 53 -134l-17 -40l-184 30l-32 139l-173 2l-32 -3l-12 1l-4 8l-46 -3l-36 16l-3 52q18 60 89 53q76 -3 121 -2q31 -1 75 1l-18 116l-124 1l-32 -3l-12 1l-4 8l-46 -3l-36 16l-3 52q18 60 89 53q45 -2 80 -2q-73 173 -95 400q-23 235 9 272l56 6
q138 12 170 -57l1 -14q-56 -173 -43 -311l13 -142q34 -107 68 -151l36 2q97 142 85 274l-15 156l7 7l109 -25q100 9 105 -41l1 -14q11 -122 -56 -326q-1 -1 -1 -2q82 14 151 30l-17 -153q-51 -23 -231 -29q-42 -45 -82 -49q3 -27 6 -63q6 1 13 1h5q170 24 296 53l-17 -153
q-54 -24 -253 -30h-14z" />
    <glyph glyph-name="brokenbar" unicode="&#xa6;" horiz-adv-x="354" 
d="M224 1676q119 -922 39 -1758q-131 -98 -198 -25q69 842 -17 1752q15 73 176 31z" />
    <glyph glyph-name="section" unicode="&#xa7;" horiz-adv-x="1153" 
 />
    <glyph glyph-name="dieresis" unicode="&#xa8;" horiz-adv-x="696" 
d="M224 1187q-148 -18 -167 106q-31 100 80 107l45 -4q75 18 105 -104q9 -92 -63 -105zM529 1179q-148 -18 -167 106q-31 100 80 107l45 -4q75 18 105 -104q9 -92 -63 -105z" />
    <glyph glyph-name="copyright" unicode="&#xa9;" horiz-adv-x="1674" 
d="M840 1456q145 0 280 -56.5t239 -160.5q102 -101 158.5 -238t56.5 -283q0 -147 -56.5 -282t-162.5 -240q-105 -105 -239 -159.5t-283 -54.5q-146 0 -278 55.5t-238 160.5q-106 104 -161.5 237.5t-55.5 282.5q0 148 55.5 283t159.5 238q102 104 238.5 160.5t286.5 56.5z
M357 1197q-95 -96 -146 -219.5t-51 -259.5q0 -137 51 -259t148 -219q98 -96 219 -147t256 -51q137 0 259.5 50.5t219.5 145.5q97 98 149 221.5t52 258.5q0 134 -52 259.5t-145 219.5q-96 96 -220 147.5t-258 51.5q-137 0 -262 -51.5t-220 -147.5zM1208 1029l-110 -20
q-220 52 -220 80v10h70q71 0 260 -70zM1028 979v-10l-178 -62q-277 -169 -253 -362q14 -94 57.5 -125.5t139.5 -23.5t193 158q65 25 101 -155q-105 -179 -379 -179h-11l-99 31q-220 109 -220 379q0 275 379 439q78 0 270 -90z" />
    <glyph glyph-name="registered" unicode="&#xae;" horiz-adv-x="1674" 
d="M252 1060q-23 -39 -41 -82q-51 -124 -51 -260q0 -137 51 -259t148 -219q98 -96 219 -147t256 -51q137 0 260 51q44 18 85 42q-35 4 -80 10q-220 132 -301.5 216t-115.5 159l-6 46q190 123 386 341l67 106q31 75 12 100q-11 23 -42 25q-288 5 -610 -109q21 -20 78 -143
q123 -278 87 -747l-78 21h-99l31 157q0 384 -256 741v2zM1283 133q-77 -60 -167 -96q-134 -55 -283 -55q-146 0 -278 55.5t-238 160.5q-106 104 -161.5 237.5t-55.5 282.5q0 148 55.5 283t159.5 238q102 104 238.5 160.5t286.5 56.5q145 0 280 -56.5t239 -160.5
q102 -101 158.5 -238t56.5 -283q0 -147 -56.5 -282t-162.5 -240q-28 -28 -57 -52q1 -8 -15 -11zM1248 181q34 26 65 57q97 98 149 221.5t52 258.5q0 134 -52 259.5t-145 219.5q-96 96 -220 147.5t-258 51.5q-137 0 -262 -51.5t-220 -147.5q-42 -42 -75 -90q32 25 72 33
q555 155 829 105q158 -42 158 -131q-7 -219 -483 -579q130 -181 390 -354z" />
    <glyph glyph-name="plusminus" unicode="&#xb1;" horiz-adv-x="954" 
d="M538 721q10 0 20 1h5q170 24 296 53l-17 -153q-54 -24 -253 -30q-25 1 -43 -4q8 -230 -41 -364l-129 7q23 103 -2 357l-152 1l-32 -3l-12 1l-4 8l-46 -3l-36 16l-3 52q18 60 89 53q76 -3 121 -2q26 -1 62 0q-5 37 -10 77l8 162q-6 39 15 73l191 20l4 -20l-33 -55
l-10 -141q7 -55 12 -106zM589 6q-30 1 -50 -6l-317 3l-32 -3l-12 1l-4 8l-46 -3l-36 16l-3 52q18 60 89 53q76 -3 121 -2q84 -2 259 11h5q170 24 296 53l-17 -153q-54 -24 -253 -30z" />
    <glyph glyph-name="acute" unicode="&#xb4;" horiz-adv-x="336" 
d="M545 1305v-7q-392 -169 -493 -235q-45 -5 -81 103q13 2 11 29q173 166 337 184l90 9q84 -27 136 -83z" />
    <glyph glyph-name="paragraph" unicode="&#xb6;" horiz-adv-x="1024" 
d="M929 1435v-70h-127v-1365h-82v1365h-166v-1365h-84v738q-174 8 -275.5 102.5t-101.5 245.5q0 157 107.5 253t285.5 96h443z" />
    <glyph glyph-name="periodcentered" unicode="&#xb7;" horiz-adv-x="451" 
d="M114 817q30 122 105 104l45 4q111 -7 80 -107q-19 -124 -210 -118q-72 13 -20 117z" />
    <glyph glyph-name="periodcentered" unicode="&#x2219;" horiz-adv-x="451" 
d="M114 817q30 122 105 104l45 4q111 -7 80 -107q-19 -124 -210 -118q-72 13 -20 117z" />
    <glyph glyph-name="cedilla" unicode="&#xb8;" horiz-adv-x="717" 
d="M76 -363l-9 1q14 53 -6 110v5q-3 27 -7 38l1 14q6 53 136 65q53 -100 22 -180q151 6 169 48q-160 75 -148 250q33 3 75 3q67 -7 79 -55q29 -101 109 -112q110 -30 134 -112q-12 -103 -273 -113l-108 1l-172 30q-1 4 -2 7z" />
    <glyph glyph-name="questiondown" unicode="&#xbf;" horiz-adv-x="965" 
d="M494 606q-182 -8 -201 -53q-9 -85 118 -185q106 -74 220 -214q-24 61 -27 85q-25 88 15 142l191 23q-49 -96 57 -384v-5q38 -95 64 -144l-1 -14q-8 -67 -211 -68q-67 7 -86 115q-209 300 -534 555q-70 55 -94 108q12 103 312 125l116 -1q-87 146 -52 302l104 -12h99
q26 -238 60 -335l-11 -28zM402 1282q148 18 167 -106q31 -100 -80 -107l-45 4q-75 -18 -105 104q-9 92 63 105z" />
    <glyph glyph-name="Agrave" unicode="&#xc0;" horiz-adv-x="844" 
d="M201 1112q78 -44 183 -55v6l7 -6l7 -1l111 -5q110 -249 322 -533l120 -118q197 -139 264 -147l-1 -14q-58 6 -220 -25q-159 38 -356 214q-137 159 -228 353q-55 72 -53 90l-14 1l-8 -76l-32 -171l119 1l6 -1q52 -6 109 -95l7 -2l-2 -27q-294 7 -304 -87l-71 -146l17 -30
l-10 -20l-81 16l-8 1l-237 11l2 14q97 102 157 221l-5 92l59 21l89 299h-7l7 7l18 166l-4 36zM70 1497l90 -9q164 -18 337 -184q-2 -27 11 -29q-36 -108 -81 -103q-101 66 -493 235v7q52 56 136 83z" />
    <glyph glyph-name="Aacute" unicode="&#xc1;" horiz-adv-x="844" 
d="M201 1112q78 -44 183 -55v6l7 -6l7 -1l111 -5q110 -249 322 -533l120 -118q197 -139 264 -147l-1 -14q-58 6 -220 -25q-159 38 -356 214q-137 159 -228 353q-55 72 -53 90l-14 1l-8 -76l-32 -171l119 1l6 -1q52 -6 109 -95l7 -2l-2 -27q-294 7 -304 -87l-71 -146l17 -30
l-10 -20l-81 16l-8 1l-237 11l2 14q97 102 157 221l-5 92l59 21l89 299h-7l7 7l18 166l-4 36zM845 1415v-7q-392 -169 -493 -235q-45 -5 -81 103q13 2 11 29q173 166 337 184l90 9q84 -27 136 -83z" />
    <glyph glyph-name="Acircumflex" unicode="&#xc2;" horiz-adv-x="844" 
d="M201 1112q78 -44 183 -55v6l7 -6l7 -1l111 -5q110 -249 322 -533l120 -118q197 -139 264 -147l-1 -14q-58 6 -220 -25q-159 38 -356 214q-137 159 -228 353q-55 72 -53 90l-14 1l-8 -76l-32 -171l119 1l6 -1q52 -6 109 -95l7 -2l-2 -27q-294 7 -304 -87l-71 -146l17 -30
l-10 -20l-81 16l-8 1l-237 11l2 14q97 102 157 221l-5 92l59 21l89 299h-7l7 7l18 166l-4 36zM145 1638l19 -3q55 15 137 6l75 6q30 -30 113 -217l105 -171q-6 -68 -144 -50q-89 117 -135 249l-11 -12v-23l-18 -211l-177 -7q55 142 44 311z" />
    <glyph glyph-name="Atilde" unicode="&#xc3;" horiz-adv-x="844" 
d="M201 1112q78 -44 183 -55v6l7 -6l7 -1l111 -5q110 -249 322 -533l120 -118q197 -139 264 -147l-1 -14q-58 6 -220 -25q-159 38 -356 214q-137 159 -228 353q-55 72 -53 90l-14 1l-8 -76l-32 -171l119 1l6 -1q52 -6 109 -95l7 -2l-2 -27q-294 7 -304 -87l-71 -146l17 -30
l-10 -20l-81 16l-8 1l-237 11l2 14q97 102 157 221l-5 92l59 21l89 299h-7l7 7l18 166l-4 36zM668 1313q26 -84 -47 -93q-76 -16 -217 46q-70 36 -166 51q-53 0 -57 -31q8 -31 38 -62h-145l-23 19q-32 77 2 121q89 66 260 14q194 -82 189 21q-10 13 -23 29h118l20 -14
q37 -48 51 -101z" />
    <glyph glyph-name="Adieresis" unicode="&#xc4;" horiz-adv-x="844" 
d="M201 1112q78 -44 183 -55v6l7 -6l7 -1l111 -5q110 -249 322 -533l120 -118q197 -139 264 -147l-1 -14q-58 6 -220 -25q-159 38 -356 214q-137 159 -228 353q-55 72 -53 90l-14 1l-8 -76l-32 -171l119 1l6 -1q52 -6 109 -95l7 -2l-2 -27q-294 7 -304 -87l-71 -146l17 -30
l-10 -20l-81 16l-8 1l-237 11l2 14q97 102 157 221l-5 92l59 21l89 299h-7l7 7l18 166l-4 36zM249 1232q-148 -18 -167 106q-31 100 80 107l45 -4q75 18 105 -104q9 -92 -63 -105zM554 1224q-148 -18 -167 106q-31 100 80 107l45 -4q75 18 105 -104q9 -92 -63 -105z" />
    <glyph glyph-name="Aring" unicode="&#xc5;" horiz-adv-x="844" 
d="M201 1112q78 -44 183 -55v6l7 -6l7 -1l111 -5q110 -249 322 -533l120 -118q197 -139 264 -147l-1 -14q-58 6 -220 -25q-159 38 -356 214q-137 159 -228 353q-55 72 -53 90l-14 1l-8 -76l-32 -171l119 1l6 -1q52 -6 109 -95l7 -2l-2 -27q-294 7 -304 -87l-71 -146l17 -30
l-10 -20l-81 16l-8 1l-237 11l2 14q97 102 157 221l-5 92l59 21l89 299h-7l7 7l18 166l-4 36zM440 1202q-81 -22 -137 -3q-98 34 -116 181q-4 36 14 86q23 67 105 106l5 -3q70 -62 59 -95l-57 -74q1 -109 72 -125q45 -5 57 92q-14 107 -99 202q-61 43 -57 53q2 7 147 2l9 -2
q119 -115 116 -229l-2 -42l-6 1q-7 -111 -106 -152z" />
    <glyph glyph-name="AE" unicode="&#xc6;" horiz-adv-x="1552" 
d="M201 1112q78 -44 183 -55v6l7 -6l7 -1l111 -5q110 -249 322 -533l120 -118q197 -139 264 -147l-1 -14q-58 6 -220 -25q-159 38 -356 214q-137 159 -228 353q-55 72 -53 90l-14 1l-8 -76l-32 -171l119 1l6 -1q52 -6 109 -95l7 -2l-2 -27q-294 7 -304 -87l-71 -146l17 -30
l-10 -20l-81 16l-8 1l-237 11l2 14q97 102 157 221l-5 92l59 21l89 299h-7l7 7l18 166l-4 36zM1554 606q-348 -46 -621 -241l-101 -87l-181 19q-13 1 -11 23l8 5q16 258 -35 263l-58 48l1 8q1 10 59 28l1 14q3 21 -55 139l-71 -7l-10 37l8 5l1 8l-1 63l1 6l16 13l6 -8
q115 -13 457 77q299 105 331 154l71 -120l-1 -14q-278 -166 -638 -197l-1 -15l46 -88l14 -2q360 130 441 121l68 -77v-7q-7 -11 -209 -47l-282 -83q7 -59 34 -136q231 138 638 197l113 16q71 -17 54 -100l-54 -12z" />
    <glyph glyph-name="Ccedilla" unicode="&#xc7;" horiz-adv-x="738" 
d="M826 1036l-110 -20q-220 52 -220 80v10h70q71 0 260 -70zM646 986v-10l-178 -62q-277 -169 -253 -362q14 -94 57.5 -125.5t139.5 -23.5t193 158q65 25 101 -155q-105 -179 -379 -179h-11l-99 31q-220 109 -220 379q0 275 379 439q78 0 270 -90zM154 -113l-9 1
q14 53 -6 110v5q-3 27 -7 38l1 14q6 53 136 65q53 -100 22 -180q151 6 169 48q-160 75 -148 250q33 3 75 3q67 -7 79 -55q29 -101 109 -112q110 -30 134 -112q-12 -103 -273 -113l-108 1l-172 30q-1 4 -2 7z" />
    <glyph glyph-name="Egrave" unicode="&#xc8;" horiz-adv-x="917" 
d="M1069 533q-348 -46 -621 -241l-101 -87l-181 19q-13 1 -11 23l8 5q16 258 -35 263l-58 48l1 8q1 10 59 28l1 14q3 21 -55 139l-71 -7l-10 37l8 5l1 8l-1 63l1 6l16 13l6 -8q115 -13 457 77q299 105 331 154l71 -120l-1 -14q-278 -166 -638 -197l-1 -15l46 -88l14 -2
q360 130 441 121l68 -77v-7q-7 -11 -209 -47l-282 -83q7 -59 34 -136q231 138 638 197l113 16q71 -17 54 -100l-54 -12zM75 1377l90 -9q164 -18 337 -184q-2 -27 11 -29q-36 -108 -81 -103q-101 66 -493 235v7q52 56 136 83z" />
    <glyph glyph-name="Eacute" unicode="&#xc9;" horiz-adv-x="917" 
d="M1069 533q-348 -46 -621 -241l-101 -87l-181 19q-13 1 -11 23l8 5q16 258 -35 263l-58 48l1 8q1 10 59 28l1 14q3 21 -55 139l-71 -7l-10 37l8 5l1 8l-1 63l1 6l16 13l6 -8q115 -13 457 77q299 105 331 154l71 -120l-1 -14q-278 -166 -638 -197l-1 -15l46 -88l14 -2
q360 130 441 121l68 -77v-7q-7 -11 -209 -47l-282 -83q7 -59 34 -136q231 138 638 197l113 16q71 -17 54 -100l-54 -12zM882 1298v-7q-392 -169 -493 -235q-45 -5 -81 103q13 2 11 29q173 166 337 184l90 9q84 -27 136 -83z" />
    <glyph glyph-name="Ecircumflex" unicode="&#xca;" horiz-adv-x="917" 
d="M1069 533q-348 -46 -621 -241l-101 -87l-181 19q-13 1 -11 23l8 5q16 258 -35 263l-58 48l1 8q1 10 59 28l1 14q3 21 -55 139l-71 -7l-10 37l8 5l1 8l-1 63l1 6l16 13l6 -8q115 -13 457 77q299 105 331 154l71 -120l-1 -14q-278 -166 -638 -197l-1 -15l46 -88l14 -2
q360 130 441 121l68 -77v-7q-7 -11 -209 -47l-282 -83q7 -59 34 -136q231 138 638 197l113 16q71 -17 54 -100l-54 -12zM172 1492l19 -3q55 15 137 6l75 6q30 -30 113 -217l105 -171q-6 -68 -144 -50q-89 117 -135 249l-11 -12v-23l-18 -211l-177 -7q55 142 44 311z" />
    <glyph glyph-name="Edieresis" unicode="&#xcb;" horiz-adv-x="917" 
d="M1069 533q-348 -46 -621 -241l-101 -87l-181 19q-13 1 -11 23l8 5q16 258 -35 263l-58 48l1 8q1 10 59 28l1 14q3 21 -55 139l-71 -7l-10 37l8 5l1 8l-1 63l1 6l16 13l6 -8q115 -13 457 77q299 105 331 154l71 -120l-1 -14q-278 -166 -638 -197l-1 -15l46 -88l14 -2
q360 130 441 121l68 -77v-7q-7 -11 -209 -47l-282 -83q7 -59 34 -136q231 138 638 197l113 16q71 -17 54 -100l-54 -12zM286 1163q-148 -18 -167 106q-31 100 80 107l45 -4q75 18 105 -104q9 -92 -63 -105zM591 1155q-148 -18 -167 106q-31 100 80 107l45 -4q75 18 105 -104
q9 -92 -63 -105z" />
    <glyph glyph-name="Igrave" unicode="&#xcc;" horiz-adv-x="434" 
d="M240 710q3 -145 14 -258l33 -101l13 3l-3 13l196 18v-6q-40 -77 -51 -157l-34 -6q-61 -10 -169 -85q-67 -11 -154 200l-33 108l7 8l-14 32l-2 14l6 8l-7 6l-17 132l-1 7l-2 132l239 49zM-227 1338l90 -9q164 -18 337 -184q-2 -27 11 -29q-36 -108 -81 -103
q-101 66 -493 235v7q52 56 136 83z" />
    <glyph glyph-name="Iacute" unicode="&#xcd;" horiz-adv-x="434" 
d="M240 710q3 -145 14 -258l33 -101l12 3l-2 13l195 18l1 -6q-40 -77 -52 -157l-33 -6q-62 -10 -169 -85q-67 -11 -154 200l-33 108l6 8l-13 32l-2 14l6 8l-8 6l-16 132l-1 7l-2 132l238 49zM586 1260v-7q-392 -169 -493 -235q-45 -5 -81 103q13 2 11 29q173 166 337 184
l90 9q84 -27 136 -83z" />
    <glyph glyph-name="Icircumflex" unicode="&#xce;" horiz-adv-x="434" 
d="M240 710q3 -145 14 -258l33 -101l13 3l-3 13l195 18l1 -6q-40 -77 -51 -157l-34 -6q-62 -10 -169 -85q-67 -11 -154 200l-33 108l6 8l-13 32l-2 14l6 8l-8 6l-16 132l-1 7l-2 132l239 49zM-42 1432l19 -3q55 15 137 6l75 6q30 -30 113 -217l105 -171q-6 -68 -144 -50
q-89 117 -135 249l-11 -12v-23l-18 -211l-177 -7q55 142 44 311z" />
    <glyph glyph-name="Idieresis" unicode="&#xcf;" horiz-adv-x="434" 
d="M240 710q3 -145 14 -258l33 -101l13 3l-3 13l195 18l1 -6q-40 -77 -51 -157l-34 -6q-61 -10 -169 -85q-67 -11 -154 200l-33 108l7 8l-14 32l-2 14l6 8l-8 6l-16 132l-1 7l-2 132l239 49zM3 1090q-148 -18 -167 106q-31 100 80 107l45 -4q75 18 105 -104q9 -92 -63 -105z
M308 1082q-148 -18 -167 106q-31 100 80 107l45 -4q75 18 105 -104q9 -92 -63 -105z" />
    <glyph glyph-name="Eth" unicode="&#xd0;" horiz-adv-x="1431" 
d="M141 729l2 27l2 70l6 -1q-2 242 -74 477q-76 206 -175 398l1 14q8 67 211 68q67 -7 86 -115l65 -112q229 -298 372 -390q218 -200 740 -471q70 -55 94 -108q-15 -131 -719 -99q-300 -28 -435 -79q-83 37 -123 42l-131 14l1 6l28 67l33 116zM179 1341l-2 -7
q119 -110 127 -189q75 -216 48 -474l-3 -35q121 85 249 106l133 -70l-3 -20q-50 4 -291 -102l-1 -7l7 -1l319 36l-1 -7l149 12l-1 -7q195 0 235 37q9 85 -456 316q1 11 -66 42q-208 133 -404 345zM683 754l134 -63l-3 -21l-21 2l-28 -3l-141 63l2 22h57zM388 815
q-30 1 -50 -6l-317 3l-32 -3l-12 1l-4 8l-46 -3l-36 16l-3 52q18 60 89 53q76 -3 121 -2q84 -2 259 11h5q170 24 296 53l-17 -153q-54 -24 -253 -30z" />
    <glyph glyph-name="Ntilde" unicode="&#xd1;" horiz-adv-x="1026" 
d="M931 435l5 -21l-8 -6v-8l2 -42l-8 -5l4 -36l-12 -104l-8 -7v-6q-34 24 -121 48l-8 -7l-7 2l-61 13l-8 -7l1 8l-85 -5q-179 327 -387 434l-7 1l-1 -7q72 -45 71 -57l-2 -21q-13 -113 -75 -237l-7 1q-124 98 -146 142l-4 21l7 6q12 101 -85 317l-103 151q218 5 220 19
q323 -168 509 -405l99 -130l7 -1l1 8l-3 42l7 6l1 7l-3 36l10 26l-7 1l9 21q37 337 268 727q4 48 157 39l79 5l-1 -6q-56 -67 -152 -313l-42 -128q-43 -139 -106 -522zM774 1231q26 -84 -47 -93q-76 -16 -217 46q-70 36 -166 51q-53 0 -57 -31q8 -31 38 -62h-145l-23 19
q-32 77 2 121q89 66 260 14q194 -82 189 21q-10 13 -23 29h118l20 -14q37 -48 51 -101z" />
    <glyph glyph-name="Ograve" unicode="&#xd2;" 
d="M219 345q-141 15 -209 205q-16 48 -8 119q11 97 109 172l7 -2q112 -62 108 -109l-55 -114q-10 -98 88 -163q57 26 43 136q-41 178 -141 260q-94 38 -92 52q1 11 194 48l14 -1q192 -116 223 -268l8 -57h-7q13 -138 -95 -235q-83 -64 -187 -43zM120 987l42 -5l6 -8l8 6
l20 -2l7 -7l7 -1l7 5l6 -6l-1 -7l-179 -44l-49 12l-54 6l1 13zM-88 1411l90 -9q164 -18 337 -184q-2 -27 11 -29q-36 -108 -81 -103q-101 66 -493 235v7q52 56 136 83z" />
    <glyph glyph-name="Oacute" unicode="&#xd3;" 
d="M219 345q-141 15 -209 205q-16 48 -8 119q11 97 109 172l7 -2q112 -62 108 -109l-55 -114q-10 -98 88 -163q57 26 43 136q-41 178 -141 260q-94 38 -92 52q1 11 194 48l14 -1q192 -116 223 -268l8 -57h-7q13 -138 -95 -235q-83 -64 -187 -43zM120 987l42 -5l6 -8l8 6
l20 -2l7 -7l7 -1l7 5l6 -6l-1 -7l-179 -44l-49 12l-54 6l1 13zM655 1342v-7q-392 -169 -493 -235q-45 -5 -81 103q13 2 11 29q173 166 337 184l90 9q84 -27 136 -83z" />
    <glyph glyph-name="Ocircumflex" unicode="&#xd4;" 
d="M219 345q-141 15 -209 205q-16 48 -8 119q11 97 109 172l7 -2q112 -62 108 -109l-55 -114q-10 -98 88 -163q57 26 43 136q-41 178 -141 260q-94 38 -92 52q1 11 194 48l14 -1q192 -116 223 -268l8 -57h-7q13 -138 -95 -235q-83 -64 -187 -43zM120 987l42 -5l6 -8l8 6
l20 -2l7 -7l7 -1l7 5l6 -6l-1 -7l-179 -44l-49 12l-54 6l1 13zM48 1569l19 -3q55 15 137 6l75 6q30 -30 113 -217l105 -171q-6 -68 -144 -50q-89 117 -135 249l-11 -12v-23l-18 -211l-177 -7q55 142 44 311z" />
    <glyph glyph-name="Otilde" unicode="&#xd5;" 
d="M219 345q-141 15 -209 205q-16 48 -8 119q11 97 109 172l7 -2q112 -62 108 -109l-55 -114q-10 -98 88 -163q57 26 43 136q-41 178 -141 260q-94 38 -92 52q1 11 194 48l14 -1q192 -116 223 -268l8 -57h-7q13 -138 -95 -235q-83 -64 -187 -43zM120 987l42 -5l6 -8l8 6
l20 -2l7 -7l7 -1l7 5l6 -6l-1 -7l-179 -44l-49 12l-54 6l1 13zM537 1201q26 -84 -47 -93q-76 -16 -217 46q-70 36 -166 51q-53 0 -57 -31q8 -31 38 -62h-145l-23 19q-32 77 2 121q89 66 260 14q194 -82 189 21q-10 13 -23 29h118l20 -14q37 -48 51 -101z" />
    <glyph glyph-name="Odieresis" unicode="&#xd6;" 
d="M219 345q-141 15 -209 205q-16 48 -8 119q11 97 109 172l7 -2q112 -62 108 -109l-55 -114q-10 -98 88 -163q57 26 43 136q-41 178 -141 260q-94 38 -92 52q1 11 194 48l14 -1q192 -116 223 -268l8 -57h-7q13 -138 -95 -235q-83 -64 -187 -43zM120 987l42 -5l6 -8l8 6
l20 -2l7 -7l7 -1l7 5l6 -6l-1 -7l-179 -44l-49 12l-54 6l1 13zM126 1142q-148 -18 -167 106q-31 100 80 107l45 -4q75 18 105 -104q9 -92 -63 -105zM431 1134q-148 -18 -167 106q-31 100 80 107l45 -4q75 18 105 -104q9 -92 -63 -105z" />
    <glyph glyph-name="multiply" unicode="&#xd7;" horiz-adv-x="954" 
d="M445 738q7 8 12 16l3 4q88 148 144 265l108 -109q-15 -57 -134 -217q-17 -19 -24 -36q185 -137 259 -259l-86 -96q-66 82 -280 221l-96 -118l-18 -27l-8 -9l-9 2l-26 -38l-35 -18l-43 30q-35 52 15 103q49 57 77 93q17 20 39 49q-32 19 -67 40l-121 107q-35 20 -48 58
l104 161l18 -9l22 -60l104 -96q47 -29 90 -57z" />
    <glyph glyph-name="Oslash" unicode="&#xd8;" 
d="M120 987l42 -5l6 -8l8 6l20 -2l7 -7l7 -1l7 5l6 -6l-1 -7l-179 -44l-49 12l-54 6l1 13zM282 945q69 105 154 214q13 48 164 39l80 5l-2 -6q-69 -67 -211 -313l-34 -66q52 -65 67 -138l8 -57h-7v-70l-95 -165l-7 1q-89 -46 -161 -45q-19 -52 -39 -110l1 -21l-9 -6l-2 -8
l-6 -42l-9 -5l-2 -36l-11 -62l-9 -7l-1 -6q-30 24 -133 6l-10 -7l-6 2l-44 10q-3 109 35 241l4 42l8 6l3 7l3 36l15 26l-7 1l13 21q6 20 13 41q-20 34 -35 77q-16 48 -8 119q11 97 109 172l7 -2q112 -62 108 -109l-55 -114q-10 -98 88 -163q31 34 36 74l3 27l-3 35h7
q-41 178 -141 260q-94 38 -92 52q1 11 194 48l14 -1q2 -1 5 -3z" />
    <glyph glyph-name="Ugrave" unicode="&#xd9;" horiz-adv-x="666" 
d="M510 391q-108 -168 -201 -160l-64 6q-87 8 -181 203q-67 204 -56 326l1 14q5 50 105 41l109 25l7 -7l-15 -156q-12 -135 89 -280l20 -9q40 38 80 164l13 142q13 138 -43 311l1 14q32 69 170 57l56 -6q32 -37 9 -272t-100 -413zM-115 1527l90 -9q164 -18 337 -184
q-2 -27 11 -29q-36 -108 -81 -103q-101 66 -493 235v7q52 56 136 83z" />
    <glyph glyph-name="Uacute" unicode="&#xda;" horiz-adv-x="666" 
d="M510 391q-108 -168 -201 -160l-64 6q-87 8 -181 203q-67 204 -56 326l1 14q5 50 105 41l109 25l7 -7l-15 -156q-12 -135 89 -280l20 -9q40 38 80 164l13 142q13 138 -43 311l1 14q32 69 170 57l56 -6q32 -37 9 -272t-100 -413zM713 1441v-7q-392 -169 -493 -235
q-45 -5 -81 103q13 2 11 29q173 166 337 184l90 9q84 -27 136 -83z" />
    <glyph glyph-name="Ucircumflex" unicode="&#xdb;" horiz-adv-x="666" 
d="M510 391q-108 -168 -201 -160l-64 6q-87 8 -181 203q-67 204 -56 326l1 14q5 50 105 41l109 25l7 -7l-15 -156q-12 -135 89 -280l20 -9q40 38 80 164l13 142q13 138 -43 311l1 14q32 69 170 57l56 -6q32 -37 9 -272t-100 -413zM99 1716l19 -3q55 15 137 6l75 6
q30 -30 113 -217l105 -171q-6 -68 -144 -50q-89 117 -135 249l-11 -12v-23l-18 -211l-177 -7q55 142 44 311z" />
    <glyph glyph-name="Udieresis" unicode="&#xdc;" horiz-adv-x="666" 
d="M510 391q-108 -168 -201 -160l-64 6q-87 8 -181 203q-67 204 -56 326l1 14q5 50 105 41l109 25l7 -7l-15 -156q-12 -135 89 -280l20 -9q40 38 80 164l13 142q13 138 -43 311l1 14q32 69 170 57l56 -6q32 -37 9 -272t-100 -413zM215 1310q-148 -18 -167 106
q-31 100 80 107l45 -4q75 18 105 -104q9 -92 -63 -105zM520 1302q-148 -18 -167 106q-31 100 80 107l45 -4q75 18 105 -104q9 -92 -63 -105z" />
    <glyph glyph-name="Yacute" unicode="&#xdd;" horiz-adv-x="617" 
d="M388 273l4 -7q27 -164 79 -255l-17 -40l-184 30l-37 160l-35 226q-40 39 -82 104q-77 178 -100 413t9 272l56 6q138 12 170 -57l1 -14q-56 -173 -43 -311l13 -142q40 -126 80 -164l20 9q101 145 89 280l-15 156l7 7l109 -25q100 9 105 -41l1 -14q11 -122 -56 -326
q-94 -194 -180 -203q3 -27 6 -64zM889 1402v-7q-392 -169 -493 -235q-45 -5 -81 103q13 2 11 29q173 166 337 184l90 9q84 -27 136 -83z" />
    <glyph glyph-name="Thorn" unicode="&#xde;" horiz-adv-x="965" 
d="M213 1098l46 -105l9 -2q148 -231 569 -540q67 -58 87 -112q-17 -102 -318 -107l-207 13l-77 -5q-3 -221 -27 -406l-77 26l-99 5l10 161q24 215 -1 439l-11 56l1 19q-2 10 -3 19l-4 3l-1 28q-2 11 -4 23l-6 4l3 13q-39 380 -153 646q-40 141 -100 202l-1 6l78 2
q153 20 159 -27q77 -149 127 -361zM298 715l9 -90l12 -162q4 -62 4 -128l168 -15q125 5 147 49q14 84 -105 148q2 11 -63 46q-90 64 -172 152z" />
    <glyph glyph-name="germandbls" unicode="&#xdf;" horiz-adv-x="1050" 
d="M643 580q9 85 -113 142q1 11 -66 42q-118 75 -189 137q3 -22 6 -46q28 -144 40 -327l4 -95q14 -348 -75 -386l-68 1h-99l52 89q44 512 -139 976v5q-38 95 -64 144l1 14q8 67 211 68q67 -7 86 -115l9 -1q161 -269 598 -554q70 -55 94 -108q-6 -50 -80 -81q18 -2 46 -6
l102 -53q67 -47 79 -94q44 -74 -3 -159q-25 -135 -597 -378q-35 -18 -41 -39q-140 62 -134 81l5 18q97 153 120 229q50 169 -62 202l-5 17q137 16 156 10q128 -64 82 -219l-18 -61q-11 -35 -19 -36l-1 -5q26 -8 109 56l80 38q79 51 118 136q7 54 -9 59q-35 106 -231 161
q-5 -1 -9 -1h-52l-40 87q100 15 116 52z" />
    <glyph glyph-name="agrave" unicode="&#xe0;" horiz-adv-x="844" 
d="M201 1112q78 -44 183 -55v6l7 -6l7 -1l111 -5q110 -249 322 -533l120 -118q197 -139 264 -147l-1 -14q-58 6 -220 -25q-159 38 -356 214q-137 159 -228 353q-55 72 -53 90l-14 1l-8 -76l-32 -171l119 1l6 -1q52 -6 109 -95l7 -2l-2 -27q-294 7 -304 -87l-71 -146l17 -30
l-10 -20l-81 16l-8 1l-237 11l2 14q97 102 157 221l-5 92l59 21l89 299h-7l7 7l18 166l-4 36zM70 1497l90 -9q164 -18 337 -184q-2 -27 11 -29q-36 -108 -81 -103q-101 66 -493 235v7q52 56 136 83z" />
    <glyph glyph-name="aacute" unicode="&#xe1;" horiz-adv-x="844" 
d="M201 1112q78 -44 183 -55v6l7 -6l7 -1l111 -5q110 -249 322 -533l120 -118q197 -139 264 -147l-1 -14q-58 6 -220 -25q-159 38 -356 214q-137 159 -228 353q-55 72 -53 90l-14 1l-8 -76l-32 -171l119 1l6 -1q52 -6 109 -95l7 -2l-2 -27q-294 7 -304 -87l-71 -146l17 -30
l-10 -20l-81 16l-8 1l-237 11l2 14q97 102 157 221l-5 92l59 21l89 299h-7l7 7l18 166l-4 36zM845 1415v-7q-392 -169 -493 -235q-45 -5 -81 103q13 2 11 29q173 166 337 184l90 9q84 -27 136 -83z" />
    <glyph glyph-name="acircumflex" unicode="&#xe2;" horiz-adv-x="844" 
d="M201 1112q78 -44 183 -55v6l7 -6l7 -1l111 -5q110 -249 322 -533l120 -118q197 -139 264 -147l-1 -14q-58 6 -220 -25q-159 38 -356 214q-137 159 -228 353q-55 72 -53 90l-14 1l-8 -76l-32 -171l119 1l6 -1q52 -6 109 -95l7 -2l-2 -27q-294 7 -304 -87l-71 -146l17 -30
l-10 -20l-81 16l-8 1l-237 11l2 14q97 102 157 221l-5 92l59 21l89 299h-7l7 7l18 166l-4 36zM145 1638l19 -3q55 15 137 6l75 6q30 -30 113 -217l105 -171q-6 -68 -144 -50q-89 117 -135 249l-11 -12v-23l-18 -211l-177 -7q55 142 44 311z" />
    <glyph glyph-name="atilde" unicode="&#xe3;" horiz-adv-x="844" 
d="M201 1112q78 -44 183 -55v6l7 -6l7 -1l111 -5q110 -249 322 -533l120 -118q197 -139 264 -147l-1 -14q-58 6 -220 -25q-159 38 -356 214q-137 159 -228 353q-55 72 -53 90l-14 1l-8 -76l-32 -171l119 1l6 -1q52 -6 109 -95l7 -2l-2 -27q-294 7 -304 -87l-71 -146l17 -30
l-10 -20l-81 16l-8 1l-237 11l2 14q97 102 157 221l-5 92l59 21l89 299h-7l7 7l18 166l-4 36zM668 1313q27 -84 -47 -93q-76 -16 -217 46q-70 36 -166 51q-53 0 -57 -31q8 -31 38 -62h-145l-23 19q-32 77 3 121q88 66 259 14q195 -82 189 21q-9 13 -23 29h118l20 -14
q38 -48 51 -101z" />
    <glyph glyph-name="adieresis" unicode="&#xe4;" horiz-adv-x="844" 
d="M201 1112q78 -44 183 -55v6l7 -6l7 -1l111 -5q110 -249 322 -533l120 -118q197 -139 264 -147l-1 -14q-58 6 -220 -25q-159 38 -356 214q-137 159 -228 353q-55 72 -53 90l-14 1l-8 -76l-32 -171l119 1l6 -1q52 -6 109 -95l7 -2l-2 -27q-294 7 -304 -87l-71 -146l17 -30
l-10 -20l-81 16l-8 1l-237 11l2 14q97 102 157 221l-5 92l59 21l89 299h-7l7 7l18 166l-4 36zM249 1232q-148 -18 -167 106q-31 100 80 107l45 -4q75 18 105 -104q9 -92 -63 -105zM554 1224q-148 -18 -167 106q-31 100 80 107l45 -4q75 18 105 -104q9 -92 -63 -105z" />
    <glyph glyph-name="aring" unicode="&#xe5;" horiz-adv-x="844" 
d="M201 1112q78 -44 183 -55v6l7 -6l7 -1l111 -5q110 -249 322 -533l120 -118q197 -139 264 -147l-1 -14q-58 6 -220 -25q-159 38 -356 214q-137 159 -228 353q-55 72 -53 90l-14 1l-8 -76l-32 -171l119 1l6 -1q52 -6 109 -95l7 -2l-2 -27q-294 7 -304 -87l-71 -146l17 -30
l-10 -20l-81 16l-8 1l-237 11l2 14q97 102 157 221l-5 92l59 21l89 299h-7l7 7l18 166l-4 36zM440 1202q-81 -22 -136 -3q-98 34 -117 181q-4 36 14 86q23 67 105 106l5 -3q70 -62 60 -95l-58 -74q1 -109 72 -125q45 -5 57 92q-14 107 -98 202q-62 43 -58 53q3 7 147 2
l10 -2q118 -115 116 -229l-3 -42l-5 1q-7 -111 -106 -152z" />
    <glyph glyph-name="ae" unicode="&#xe6;" horiz-adv-x="1552" 
d="M201 1112q78 -44 183 -55v6l7 -6l7 -1l111 -5q110 -249 322 -533l120 -118q197 -139 264 -147l-1 -14q-58 6 -220 -25q-159 38 -356 214q-137 159 -228 353q-55 72 -53 90l-14 1l-8 -76l-32 -171l119 1l6 -1q52 -6 109 -95l7 -2l-2 -27q-294 7 -304 -87l-71 -146l17 -30
l-10 -20l-81 16l-8 1l-237 11l2 14q97 102 157 221l-5 92l59 21l89 299h-7l7 7l18 166l-4 36zM1554 606q-348 -46 -621 -241l-101 -87l-181 19q-13 1 -11 23l8 5q16 258 -35 263l-58 48l1 8q1 10 59 28l1 14q3 21 -55 139l-71 -7l-10 37l8 5l1 8l-1 63l1 6l16 13l6 -8
q115 -13 457 77q299 105 331 154l71 -120l-1 -14q-278 -166 -638 -197l-1 -15l46 -88l14 -2q360 130 441 121l68 -77v-7q-7 -11 -209 -47l-282 -83q7 -59 34 -136q231 138 638 197l113 16q71 -17 54 -100l-54 -12z" />
    <glyph glyph-name="ccedilla" unicode="&#xe7;" horiz-adv-x="738" 
d="M826 1036l-110 -20q-220 52 -220 80v10h70q71 0 260 -70zM646 986v-10l-178 -62q-277 -169 -253 -362q14 -94 57.5 -125.5t139.5 -23.5t193 158q65 25 101 -155q-105 -179 -379 -179h-11l-99 31q-220 109 -220 379q0 275 379 439q78 0 270 -90zM154 -113l-9 1
q14 53 -6 110v5q-3 27 -7 38l1 14q6 53 136 65q53 -100 22 -180q151 6 169 48q-160 75 -148 250q33 3 75 3q67 -7 79 -55q29 -101 109 -112q110 -30 134 -112q-12 -103 -273 -113l-108 1l-172 30q-1 4 -2 7z" />
    <glyph glyph-name="egrave" unicode="&#xe8;" horiz-adv-x="917" 
d="M1069 533q-348 -46 -621 -241l-101 -87l-181 19q-13 1 -11 23l8 5q16 258 -35 263l-58 48l1 8q1 10 59 28l1 14q3 21 -55 139l-71 -7l-10 37l8 5l1 8l-1 63l1 6l16 13l6 -8q115 -13 457 77q299 105 331 154l71 -120l-1 -14q-278 -166 -638 -197l-1 -15l46 -88l14 -2
q360 130 441 121l68 -77v-7q-7 -11 -209 -47l-282 -83q7 -59 34 -136q231 138 638 197l113 16q71 -17 54 -100l-54 -12zM75 1377l90 -9q164 -18 337 -184q-2 -27 11 -29q-36 -108 -81 -103q-101 66 -493 235v7q52 56 136 83z" />
    <glyph glyph-name="eacute" unicode="&#xe9;" horiz-adv-x="917" 
d="M1069 533q-348 -46 -621 -241l-101 -87l-181 19q-13 1 -11 23l8 5q16 258 -35 263l-58 48l1 8q1 10 59 28l1 14q3 21 -55 139l-71 -7l-10 37l8 5l1 8l-1 63l1 6l16 13l6 -8q115 -13 457 77q299 105 331 154l71 -120l-1 -14q-278 -166 -638 -197l-1 -15l46 -88l14 -2
q360 130 441 121l68 -77v-7q-7 -11 -209 -47l-282 -83q7 -59 34 -136q231 138 638 197l113 16q71 -17 54 -100l-54 -12zM882 1298v-7q-392 -169 -493 -235q-45 -5 -81 103q13 2 11 29q173 166 337 184l90 9q84 -27 136 -83z" />
    <glyph glyph-name="ecircumflex" unicode="&#xea;" horiz-adv-x="917" 
d="M1069 533q-348 -46 -621 -241l-101 -87l-181 19q-13 1 -11 23l8 5q16 258 -35 263l-58 48l1 8q1 10 59 28l1 14q3 21 -55 139l-71 -7l-10 37l8 5l1 8l-1 63l1 6l16 13l6 -8q115 -13 457 77q299 105 331 154l71 -120l-1 -14q-278 -166 -638 -197l-1 -15l46 -88l14 -2
q360 130 441 121l68 -77v-7q-7 -11 -209 -47l-282 -83q7 -59 34 -136q231 138 638 197l113 16q71 -17 54 -100l-54 -12zM172 1492l19 -3q55 15 137 6l75 6q30 -30 113 -217l105 -171q-6 -68 -144 -50q-89 117 -135 249l-11 -12v-23l-18 -211l-177 -7q55 142 44 311z" />
    <glyph glyph-name="edieresis" unicode="&#xeb;" horiz-adv-x="917" 
d="M1069 533q-348 -46 -621 -241l-101 -87l-181 19q-13 1 -11 23l8 5q16 258 -35 263l-58 48l1 8q1 10 59 28l1 14q3 21 -55 139l-71 -7l-10 37l8 5l1 8l-1 63l1 6l16 13l6 -8q115 -13 457 77q299 105 331 154l71 -120l-1 -14q-278 -166 -638 -197l-1 -15l46 -88l14 -2
q360 130 441 121l68 -77v-7q-7 -11 -209 -47l-282 -83q7 -59 34 -136q231 138 638 197l113 16q71 -17 54 -100l-54 -12zM286 1163q-148 -18 -167 106q-31 100 80 107l45 -4q75 18 105 -104q9 -92 -63 -105zM591 1155q-148 -18 -167 106q-31 100 80 107l45 -4q75 18 105 -104
q9 -92 -63 -105z" />
    <glyph glyph-name="igrave" unicode="&#xec;" horiz-adv-x="434" 
d="M240 710q3 -145 14 -258l33 -101l13 3l-3 13l196 18v-6q-40 -77 -51 -157l-34 -6q-61 -10 -169 -85q-67 -11 -154 200l-33 108l7 8l-14 32l-2 14l6 8l-7 6l-17 132l-1 7l-2 132l239 49zM-227 1338l90 -9q164 -18 337 -184q-2 -27 11 -29q-36 -108 -81 -103
q-101 66 -493 235v7q52 56 136 83z" />
    <glyph glyph-name="iacute" unicode="&#xed;" horiz-adv-x="434" 
d="M240 710q3 -145 14 -258l33 -101l12 3l-2 13l195 18l1 -6q-40 -77 -52 -157l-33 -6q-62 -10 -169 -85q-67 -11 -154 200l-33 108l6 8l-13 32l-2 14l6 8l-8 6l-16 132l-1 7l-2 132l238 49zM586 1260v-7q-392 -169 -493 -235q-45 -5 -81 103q13 2 11 29q173 166 337 184
l90 9q84 -27 136 -83z" />
    <glyph glyph-name="icircumflex" unicode="&#xee;" horiz-adv-x="434" 
d="M240 710q3 -145 14 -258l33 -101l13 3l-3 13l195 18l1 -6q-40 -77 -51 -157l-34 -6q-62 -10 -169 -85q-67 -11 -154 200l-33 108l6 8l-13 32l-2 14l6 8l-8 6l-16 132l-1 7l-2 132l239 49zM-42 1432l19 -3q55 15 137 6l75 6q30 -30 113 -217l105 -171q-6 -68 -144 -50
q-89 117 -135 249l-11 -12v-23l-18 -211l-177 -7q55 142 44 311z" />
    <glyph glyph-name="idieresis" unicode="&#xef;" horiz-adv-x="434" 
d="M240 710q3 -145 14 -258l33 -101l13 3l-3 13l195 18l1 -6q-40 -77 -51 -157l-34 -6q-61 -10 -169 -85q-67 -11 -154 200l-33 108l7 8l-14 32l-2 14l6 8l-8 6l-16 132l-1 7l-2 132l239 49zM3 1090q-148 -18 -167 106q-31 100 80 107l45 -4q75 18 105 -104q9 -92 -63 -105z
M308 1082q-148 -18 -167 106q-31 100 80 107l45 -4q75 18 105 -104q9 -92 -63 -105z" />
    <glyph glyph-name="eth" unicode="&#xf0;" horiz-adv-x="836" 
d="M688 907q34 -58 57 -113q68 -137 63 -269q8 -222 -79 -336q-149 -186 -383 -166l-113 28l-10 7q-281 166 -177 526q112 206 433 179l29 -102q-247 9 -299 -226q-22 -189 154 -299q157 8 210 137q76 151 -18 429l-68 159q-9 15 -17 30l-304 3l-32 -3l-12 1l-4 8l-46 -3
l-36 16l-3 52q18 60 89 53q76 -3 121 -2q54 -1 144 4q-40 57 -84 110q-103 132 -264 177l1 7l14 -1l50 1l27 -2l139 -8q192 -78 268 -188q32 -38 60 -75q114 18 205 39l-17 -153q-29 -13 -98 -20z" />
    <glyph glyph-name="ntilde" unicode="&#xf1;" horiz-adv-x="1026" 
d="M931 435l5 -21l-8 -6v-8l2 -42l-8 -5l4 -36l-12 -104l-8 -7v-6q-34 24 -121 48l-8 -7l-7 2l-61 13l-8 -7l1 8l-85 -5q-179 327 -387 434l-7 1l-1 -7q72 -45 71 -57l-2 -21q-13 -113 -75 -237l-7 1q-124 98 -146 142l-4 21l7 6q12 101 -85 317l-103 151q218 5 220 19
q323 -168 509 -405l99 -130l7 -1l1 8l-3 42l7 6l1 7l-3 36l10 26l-7 1l9 21q37 337 268 727q4 48 157 39l79 5l-1 -6q-56 -67 -152 -313l-42 -128q-43 -139 -106 -522zM774 1231q26 -84 -47 -93q-76 -16 -217 46q-71 36 -166 51q-54 0 -57 -31q7 -31 38 -62h-145l-24 19
q-31 77 3 121q89 66 260 14q194 -82 189 21q-10 13 -23 29h117l21 -14q37 -48 51 -101z" />
    <glyph glyph-name="ograve" unicode="&#xf2;" 
d="M399 389q-101 -52 -180 -44q-141 15 -209 205q-16 48 -8 119q11 97 109 172l7 -2q112 -62 108 -109l-55 -114q-10 -98 88 -163q31 34 36 74l3 27l-3 35h7q-41 178 -141 260q-94 38 -92 52q1 11 194 48l14 -1q192 -116 223 -268l8 -57h-7v-70l-95 -165zM120 987l42 -5
l6 -8l8 6l20 -2l7 -7l7 -1l7 5l6 -6l-1 -7l-179 -44l-49 12l-54 6l1 13zM-88 1411l90 -9q164 -18 337 -184q-2 -27 11 -29q-36 -108 -81 -103q-101 66 -493 235v7q52 56 136 83z" />
    <glyph glyph-name="oacute" unicode="&#xf3;" 
d="M399 389q-101 -52 -180 -44q-141 15 -209 205q-16 48 -8 119q11 97 109 172l7 -2q112 -62 108 -109l-55 -114q-10 -98 88 -163q31 34 36 74l3 27l-3 35h7q-41 178 -141 260q-94 38 -92 52q1 11 194 48l14 -1q192 -116 223 -268l8 -57h-7v-70l-95 -165zM120 987l42 -5
l6 -8l8 6l20 -2l7 -7l7 -1l7 5l6 -6l-1 -7l-179 -44l-49 12l-54 6l1 13zM655 1342v-7q-392 -169 -493 -235q-45 -5 -81 103q13 2 11 29q173 166 337 184l90 9q84 -27 136 -83z" />
    <glyph glyph-name="ocircumflex" unicode="&#xf4;" 
d="M399 389q-101 -52 -180 -44q-141 15 -209 205q-16 48 -8 119q11 97 109 172l7 -2q112 -62 108 -109l-55 -114q-10 -98 88 -163q31 34 36 74l3 27l-3 35h7q-41 178 -141 260q-94 38 -92 52q1 11 194 48l14 -1q192 -116 223 -268l8 -57h-7v-70l-95 -165zM120 987l42 -5
l6 -8l8 6l20 -2l7 -7l7 -1l7 5l6 -6l-1 -7l-179 -44l-49 12l-54 6l1 13zM48 1569l19 -3q55 15 137 6l75 6q30 -30 113 -217l105 -171q-6 -68 -144 -50q-89 117 -135 249l-11 -12v-23l-18 -211l-177 -7q55 142 44 311z" />
    <glyph glyph-name="otilde" unicode="&#xf5;" 
d="M399 389q-101 -52 -180 -44q-141 15 -209 205q-16 48 -8 119q11 97 109 172l7 -2q112 -62 108 -109l-55 -114q-10 -98 88 -163q31 34 36 74l3 27l-3 35h7q-41 178 -141 260q-94 38 -92 52q1 11 194 48l14 -1q192 -116 223 -268l8 -57h-7v-70l-95 -165zM120 987l42 -5
l6 -8l8 6l20 -2l7 -7l7 -1l7 5l6 -6l-1 -7l-179 -44l-49 12l-54 6l1 13zM537 1201q26 -84 -47 -93q-76 -16 -217 46q-70 36 -166 51q-53 0 -57 -31q8 -31 38 -62h-145l-23 19q-32 77 2 121q89 66 260 14q194 -82 189 21q-10 13 -23 29h118l20 -14q37 -48 51 -101z" />
    <glyph glyph-name="odieresis" unicode="&#xf6;" 
d="M399 389q-101 -52 -180 -44q-141 15 -209 205q-16 48 -8 119q11 97 109 172l7 -2q112 -62 108 -109l-55 -114q-10 -98 88 -163q31 34 36 74l3 27l-3 35h7q-41 178 -141 260q-94 38 -92 52q1 11 194 48l14 -1q192 -116 223 -268l8 -57h-7v-70l-95 -165zM120 987l42 -5
l6 -8l8 6l20 -2l7 -7l7 -1l7 5l6 -6l-1 -7l-179 -44l-49 12l-54 6l1 13zM126 1142q-148 -18 -167 106q-31 100 80 107l45 -4q75 18 105 -104q9 -92 -63 -105zM431 1134q-148 -18 -167 106q-31 100 80 107l45 -4q75 18 105 -104q9 -92 -63 -105z" />
    <glyph glyph-name="divide" unicode="&#xf7;" horiz-adv-x="954" 
d="M589 592q-30 1 -50 -6l-317 3l-32 -3l-12 1l-4 8l-46 -3l-36 16l-3 52q18 60 89 53q76 -3 121 -2q84 -2 259 11h5q170 24 296 53l-17 -153q-54 -24 -253 -30zM355 390q30 122 105 104l45 4q111 -7 80 -107q-19 -124 -210 -118q-72 13 -20 117zM379 980q30 122 105 104
l45 4q111 -7 80 -107q-19 -124 -210 -118q-72 13 -20 117z" />
    <glyph glyph-name="oslash" unicode="&#xf8;" 
d="M120 987l42 -5l6 -8l8 6l20 -2l7 -7l7 -1l7 5l6 -6l-1 -7l-179 -44l-49 12l-54 6l1 13zM282 945q69 105 154 214q13 48 164 39l80 5l-2 -6q-69 -67 -211 -313l-34 -66q52 -65 67 -138l8 -57h-7v-70l-95 -165l-7 1q-89 -46 -161 -45q-19 -52 -39 -110l1 -21l-9 -6l-2 -8
l-6 -42l-9 -5l-2 -36l-11 -62l-9 -7l-1 -6q-30 24 -133 6l-10 -7l-6 2l-44 10q-3 109 35 241l4 42l8 6l3 7l3 36l15 26l-7 1l13 21q6 20 13 41q-20 34 -35 77q-16 48 -8 119q11 97 109 172l7 -2q112 -62 108 -109l-55 -114q-10 -98 88 -163q31 34 36 74l3 27l-3 35h7
q-41 178 -141 260q-94 38 -92 52q1 11 194 48l14 -1q2 -1 5 -3z" />
    <glyph glyph-name="ugrave" unicode="&#xf9;" horiz-adv-x="666" 
d="M510 391q-108 -168 -201 -160l-64 6q-87 8 -181 203q-67 204 -56 326l1 14q5 50 105 41l109 25l7 -7l-15 -156q-12 -135 89 -280l20 -9q40 38 80 164l13 142q13 138 -43 311l1 14q32 69 170 57l56 -6q32 -37 9 -272t-100 -413zM-115 1527l90 -9q164 -18 337 -184
q-2 -27 11 -29q-36 -108 -81 -103q-101 66 -493 235v7q52 56 136 83z" />
    <glyph glyph-name="uacute" unicode="&#xfa;" horiz-adv-x="666" 
d="M510 391q-108 -168 -201 -160l-64 6q-87 8 -181 203q-67 204 -56 326l1 14q5 50 105 41l109 25l7 -7l-15 -156q-12 -135 89 -280l20 -9q40 38 80 164l13 142q13 138 -43 311l1 14q32 69 170 57l56 -6q32 -37 9 -272t-100 -413zM713 1441v-7q-392 -169 -493 -235
q-45 -5 -81 103q13 2 11 29q173 166 337 184l90 9q84 -27 136 -83z" />
    <glyph glyph-name="ucircumflex" unicode="&#xfb;" horiz-adv-x="666" 
d="M510 391q-108 -168 -201 -160l-64 6q-87 8 -181 203q-67 204 -56 326l1 14q5 50 105 41l109 25l7 -7l-15 -156q-12 -135 89 -280l20 -9q40 38 80 164l13 142q13 138 -43 311l1 14q32 69 170 57l56 -6q32 -37 9 -272t-100 -413zM99 1716l19 -3q55 15 137 6l75 6
q30 -30 113 -217l105 -171q-6 -68 -144 -50q-89 117 -135 249l-11 -12v-23l-18 -211l-177 -7q55 142 44 311z" />
    <glyph glyph-name="udieresis" unicode="&#xfc;" horiz-adv-x="666" 
d="M510 391q-108 -168 -201 -160l-64 6q-87 8 -181 203q-67 204 -56 326l1 14q5 50 105 41l109 25l7 -7l-15 -156q-12 -135 89 -280l20 -9q40 38 80 164l13 142q13 138 -43 311l1 14q32 69 170 57l56 -6q32 -37 9 -272t-100 -413zM215 1310q-148 -18 -167 106
q-31 100 80 107l45 -4q75 18 105 -104q9 -92 -63 -105zM520 1302q-148 -18 -167 106q-31 100 80 107l45 -4q75 18 105 -104q9 -92 -63 -105z" />
    <glyph glyph-name="yacute" unicode="&#xfd;" horiz-adv-x="617" 
d="M388 273l4 -7q27 -164 79 -255l-17 -40l-184 30l-37 160l-35 226q-40 39 -82 104q-77 178 -100 413t9 272l56 6q138 12 170 -57l1 -14q-56 -173 -43 -311l13 -142q40 -126 80 -164l20 9q101 145 89 280l-15 156l7 7l109 -25q100 9 105 -41l1 -14q11 -122 -56 -326
q-94 -194 -180 -203q3 -27 6 -64zM889 1402v-7q-392 -169 -493 -235q-45 -5 -81 103q13 2 11 29q173 166 337 184l90 9q84 -27 136 -83z" />
    <glyph glyph-name="thorn" unicode="&#xfe;" horiz-adv-x="965" 
d="M213 1098l46 -105l9 -2q148 -231 569 -540q67 -58 87 -112q-17 -102 -318 -107l-207 13l-77 -5q-3 -221 -27 -406l-77 26l-99 5l10 161q24 215 -1 439l-11 56l1 19q-2 10 -3 19l-4 3l-1 28q-2 11 -4 23l-6 4l3 13q-39 380 -153 646q-40 141 -100 202l-1 6l78 2
q153 20 159 -27q77 -149 127 -361zM298 715l9 -90l12 -162q4 -62 4 -128l168 -15q125 5 147 49q14 84 -105 148q2 11 -63 46q-90 64 -172 152z" />
    <glyph glyph-name="ydieresis" unicode="&#xff;" horiz-adv-x="617" 
d="M388 273l4 -7q27 -164 79 -255l-17 -40l-184 30l-37 160l-35 226q-40 39 -82 104q-77 178 -100 413t9 272l56 6q138 12 170 -57l1 -14q-56 -173 -43 -311l13 -142q40 -126 80 -164l20 9q101 145 89 280l-15 156l7 7l109 -25q100 9 105 -41l1 -14q11 -122 -56 -326
q-94 -194 -180 -203q3 -27 6 -64zM263 1255q-148 -18 -167 106q-31 100 80 107l45 -4q75 18 105 -104q9 -92 -63 -105zM568 1247q-148 -18 -167 106q-31 100 80 107l45 -4q75 18 105 -104q9 -92 -63 -105z" />
    <glyph glyph-name="Abreve" unicode="&#x102;" horiz-adv-x="844" 
d="M201 1112q78 -44 183 -55v6l7 -6l7 -1l111 -5q110 -249 322 -533l120 -118q197 -139 264 -147l-1 -14q-58 6 -220 -25q-159 38 -356 214q-137 159 -228 353q-55 72 -53 90l-14 1l-8 -76l-32 -171l119 1l6 -1q52 -6 109 -95l7 -2l-2 -27q-294 7 -304 -87l-71 -146l17 -30
l-10 -20l-81 16l-8 1l-237 11l2 14q97 102 157 221l-5 92l59 21l89 299h-7l7 7l18 166l-4 36zM405 1302q52 49 -23 197l172 -1l30 -20q72 -216 -128 -272q-321 -29 -367 281l167 1q79 -230 149 -186z" />
    <glyph glyph-name="abreve" unicode="&#x103;" horiz-adv-x="844" 
d="M201 1112q78 -44 183 -55v6l7 -6l7 -1l111 -5q110 -249 322 -533l120 -118q197 -139 264 -147l-1 -14q-58 6 -220 -25q-159 38 -356 214q-137 159 -228 353q-55 72 -53 90l-14 1l-8 -76l-32 -171l119 1l6 -1q52 -6 109 -95l7 -2l-2 -27q-294 7 -304 -87l-71 -146l17 -30
l-10 -20l-81 16l-8 1l-237 11l2 14q97 102 157 221l-5 92l59 21l89 299h-7l7 7l18 166l-4 36zM406 1302q52 49 -23 197l172 -1l30 -20q72 -216 -128 -272q-321 -29 -368 281l167 1q80 -230 150 -186z" />
    <glyph glyph-name="Aogonek" unicode="&#x104;" horiz-adv-x="844" 
d="M201 1112q78 -44 183 -55v6l7 -6l7 -1l111 -5q110 -249 322 -533l120 -118q197 -139 264 -147l-1 -14q-58 6 -220 -25q-159 38 -356 214q-137 159 -228 353q-55 72 -53 90l-14 1l-8 -76l-32 -171l119 1l6 -1q52 -6 109 -95l7 -2l-2 -27q-294 7 -304 -87l-71 -146l17 -30
l-10 -20l-81 16l-8 1l-237 11l2 14q97 102 157 221l-5 92l59 21l89 299h-7l7 7l18 166l-4 36zM172 256q1 -75 58 -155l60 -34q71 21 61 75l1 15q163 -6 162 -21l5 -7v-7l-6 1l5 -8q-53 -163 -155 -164l-140 4q-172 -1 -255 301h204z" />
    <glyph glyph-name="aogonek" unicode="&#x105;" horiz-adv-x="844" 
d="M201 1112q78 -44 183 -55v6l7 -6l7 -1l111 -5q110 -249 322 -533l120 -118q197 -139 264 -147l-1 -14q-58 6 -220 -25q-159 38 -356 214q-137 159 -228 353q-55 72 -53 90l-14 1l-8 -76l-32 -171l119 1l6 -1q52 -6 109 -95l7 -2l-2 -27q-294 7 -304 -87l-71 -146l17 -30
l-10 -20l-81 16l-8 1l-237 11l2 14q97 102 157 221l-5 92l59 21l89 299h-7l7 7l18 166l-4 36zM172 256q1 -75 58 -155l60 -34q71 21 61 75l1 15q163 -6 162 -21l5 -7v-7l-6 1l5 -8q-53 -163 -155 -164l-140 4q-172 -1 -255 301h204z" />
    <glyph glyph-name="Cacute" unicode="&#x106;" horiz-adv-x="738" 
d="M826 1036l-110 -20q-220 52 -220 80v10h70q71 0 260 -70zM646 986v-10l-178 -62q-277 -169 -253 -362q14 -94 57.5 -125.5t139.5 -23.5t193 158q65 25 101 -155q-105 -179 -379 -179h-11l-99 31q-220 109 -220 379q0 275 379 439q78 0 270 -90zM824 1453v-7
q-392 -169 -493 -235q-45 -5 -81 103q13 2 11 29q173 166 337 184l90 9q84 -27 136 -83z" />
    <glyph glyph-name="cacute" unicode="&#x107;" horiz-adv-x="738" 
d="M826 1036l-110 -20q-220 52 -220 80v10h70q71 0 260 -70zM646 986v-10l-178 -62q-277 -169 -253 -362q14 -94 57.5 -125.5t139.5 -23.5t193 158q65 25 101 -155q-105 -179 -379 -179h-11l-99 31q-220 109 -220 379q0 275 379 439q78 0 270 -90zM824 1453v-7
q-392 -169 -493 -235q-45 -5 -81 103q13 2 11 29q173 166 337 184l90 9q84 -27 136 -83z" />
    <glyph glyph-name="Ccircumflex" unicode="&#x108;" horiz-adv-x="738" 
d="M826 1036l-110 -20q-220 52 -220 80v10h70q71 0 260 -70zM646 986v-10l-178 -62q-277 -169 -253 -362q14 -94 57.5 -125.5t139.5 -23.5t193 158q65 25 101 -155q-105 -179 -379 -179h-11l-99 31q-220 109 -220 379q0 275 379 439q78 0 270 -90zM235 1694l19 -3
q55 15 137 6l75 6q30 -30 113 -217l105 -171q-6 -68 -144 -50q-89 117 -135 249l-11 -12v-23l-18 -211l-177 -7q55 142 44 311z" />
    <glyph glyph-name="ccircumflex" unicode="&#x109;" horiz-adv-x="738" 
d="M826 1036l-110 -20q-220 52 -220 80v10h70q71 0 260 -70zM646 986v-10l-178 -62q-277 -169 -253 -362q14 -94 57.5 -125.5t139.5 -23.5t193 158q65 25 101 -155q-105 -179 -379 -179h-11l-99 31q-220 109 -220 379q0 275 379 439q78 0 270 -90zM235 1694l19 -3
q55 15 137 6l75 6q30 -30 113 -217l105 -171q-6 -68 -144 -50q-89 117 -135 249l-11 -12v-23l-18 -211l-177 -7q55 142 44 311z" />
    <glyph glyph-name="Cdotaccent" unicode="&#x10a;" horiz-adv-x="738" 
d="M826 1036l-110 -20q-220 52 -220 80v10h70q71 0 260 -70zM646 986v-10l-178 -62q-277 -169 -253 -362q14 -94 57.5 -125.5t139.5 -23.5t193 158q65 25 101 -155q-105 -179 -379 -179h-11l-99 31q-220 109 -220 379q0 275 379 439q78 0 270 -90zM479 1237
q-148 -18 -167 106q-31 100 80 107l45 -4q75 18 105 -104q9 -92 -63 -105z" />
    <glyph glyph-name="cdotaccent" unicode="&#x10b;" horiz-adv-x="738" 
d="M826 1036l-110 -20q-220 52 -220 80v10h70q71 0 260 -70zM646 986v-10l-178 -62q-277 -169 -253 -362q14 -94 57.5 -125.5t139.5 -23.5t193 158q65 25 101 -155q-105 -179 -379 -179h-11l-99 31q-220 109 -220 379q0 275 379 439q78 0 270 -90zM479 1237
q-148 -18 -167 106q-31 100 80 107l45 -4q75 18 105 -104q9 -92 -63 -105z" />
    <glyph glyph-name="Ccaron" unicode="&#x10c;" horiz-adv-x="738" 
d="M826 1036l-110 -20q-220 52 -220 80v10h70q71 0 260 -70zM646 986v-10l-178 -62q-277 -169 -253 -362q14 -94 57.5 -125.5t139.5 -23.5t193 158q65 25 101 -155q-105 -179 -379 -179h-11l-99 31q-220 109 -220 379q0 275 379 439q78 0 270 -90zM622 1201l-19 3
q-55 -15 -137 -6l-75 -6q-30 30 -113 217l-105 172q6 67 144 49q89 -117 135 -249l11 12v23l18 211l177 7q-55 -142 -44 -311z" />
    <glyph glyph-name="ccaron" unicode="&#x10d;" horiz-adv-x="738" 
d="M826 1036l-110 -20q-220 52 -220 80v10h70q71 0 260 -70zM646 986v-10l-178 -62q-277 -169 -253 -362q14 -94 57.5 -125.5t139.5 -23.5t193 158q65 25 101 -155q-105 -179 -379 -179h-11l-99 31q-220 109 -220 379q0 275 379 439q78 0 270 -90zM622 1201l-19 3
q-55 -15 -137 -6l-75 -6q-30 30 -113 217l-105 172q6 67 144 49q89 -117 135 -249l11 12v23l18 211l177 7q-55 -142 -44 -311z" />
    <glyph glyph-name="Dcaron" unicode="&#x10e;" horiz-adv-x="1431" 
d="M141 729l2 27l2 70l6 -1q-2 242 -74 477q-76 206 -175 398l1 14q8 67 211 68q67 -7 86 -115l65 -112q229 -298 372 -390q218 -200 740 -471q70 -55 94 -108q-15 -131 -719 -99q-300 -28 -435 -79q-83 37 -123 42l-131 14l1 6l28 67l33 116zM179 1341l-2 -7
q119 -110 127 -189q75 -216 48 -474l-3 -35q121 85 249 106l133 -70l-3 -20q-50 4 -291 -102l-1 -7l7 -1l319 36l-1 -7l149 12l-1 -7q195 0 235 37q9 85 -456 316q1 11 -66 42q-208 133 -404 345zM683 754l134 -63l-3 -21l-21 2l-28 -3l-141 63l2 22h57zM793 1377l-19 3
q-55 -15 -137 -6l-75 -6q-30 30 -113 217l-105 172q6 67 144 49q89 -117 135 -249l11 12v23l18 211l177 7q-55 -142 -44 -311z" />
    <glyph glyph-name="dcaron" unicode="&#x10f;" horiz-adv-x="1431" 
d="M141 729l2 27l2 70l6 -1q-2 242 -74 477q-76 206 -175 398l1 14q8 67 211 68q67 -7 86 -115l65 -112q229 -298 372 -390q218 -200 740 -471q70 -55 94 -108q-15 -131 -719 -99q-300 -28 -435 -79q-83 37 -123 42l-131 14l1 6l28 67l33 116zM179 1341l-2 -7
q119 -110 127 -189q75 -216 48 -474l-3 -35q121 85 249 106l133 -70l-3 -20q-50 4 -291 -102l-1 -7l7 -1l319 36l-1 -7l149 12l-1 -7q195 0 235 37q9 85 -456 316q1 11 -66 42q-208 133 -404 345zM683 754l134 -63l-3 -21l-21 2l-28 -3l-141 63l2 22h57zM793 1377l-19 3
q-55 -15 -137 -6l-75 -6q-30 30 -113 217l-105 172q6 67 144 49q89 -117 135 -249l11 12v23l18 211l177 7q-55 -142 -44 -311z" />
    <glyph glyph-name="Dcroat" unicode="&#x110;" horiz-adv-x="1431" 
d="M155 729l2 27l2 70l6 -1q-2 242 -74 477q-76 206 -175 398l1 14q8 67 211 68q67 -7 86 -115l65 -112q229 -298 372 -390q218 -200 740 -471q70 -55 94 -108q-15 -131 -719 -99q-300 -28 -435 -79q-83 37 -123 42l-131 14l1 6l28 67l33 116zM193 1341l-2 -7
q119 -110 127 -189q75 -216 48 -474l-3 -35q121 85 249 106l133 -70l-3 -20q-50 4 -291 -102l-1 -7l7 -1l319 36l-1 -7l149 12l-1 -7q195 0 235 37q9 85 -456 316q1 11 -66 42q-208 133 -404 345zM697 754l134 -63l-3 -21l-21 2l-28 -3l-141 63l2 22h57zM402 815
q-30 1 -50 -6l-317 3l-32 -3l-12 1l-4 8l-46 -3l-36 16l-3 52q18 60 89 53q76 -3 121 -2q84 -2 259 11h5q170 24 296 53l-17 -153q-54 -24 -253 -30z" />
    <glyph glyph-name="dcroat" unicode="&#x111;" horiz-adv-x="1431" 
d="M155 729l2 27l2 70l6 -1q-2 242 -74 477q-76 206 -175 398l1 14q8 67 211 68q67 -7 86 -115l65 -112q229 -298 372 -390q218 -200 740 -471q70 -55 94 -108q-15 -131 -719 -99q-300 -28 -435 -79q-83 37 -123 42l-131 14l1 6l28 67l33 116zM193 1341l-2 -7
q119 -110 127 -189q75 -216 48 -474l-3 -35q121 85 249 106l133 -70l-3 -20q-50 4 -291 -102l-1 -7l7 -1l319 36l-1 -7l149 12l-1 -7q195 0 235 37q9 85 -456 316q1 11 -66 42q-208 133 -404 345zM697 754l134 -63l-3 -21l-21 2l-28 -3l-141 63l2 22h57zM402 815
q-30 1 -50 -6l-317 3l-32 -3l-12 1l-4 8l-46 -3l-36 16l-3 52q18 60 89 53q76 -3 121 -2q84 -2 259 11h5q170 24 296 53l-17 -153q-54 -24 -253 -30z" />
    <glyph glyph-name="Ebreve" unicode="&#x114;" horiz-adv-x="917" 
d="M1069 533q-348 -46 -621 -241l-101 -87l-181 19q-13 1 -11 23l8 5q16 258 -35 263l-58 48l1 8q1 10 59 28l1 14q3 21 -55 139l-71 -7l-10 37l8 5l1 8l-1 63l1 6l16 13l6 -8q115 -13 457 77q299 105 331 154l71 -120l-1 -14q-278 -166 -638 -197l-1 -15l46 -88l14 -2
q360 130 441 121l68 -77v-7q-7 -11 -209 -47l-282 -83q7 -59 34 -136q231 138 638 197l113 16q71 -17 54 -100l-54 -12zM515 1264q52 49 -23 197l172 -1l30 -20q72 -216 -128 -272q-321 -29 -367 281l167 1q79 -230 149 -186z" />
    <glyph glyph-name="ebreve" unicode="&#x115;" horiz-adv-x="917" 
d="M1069 533q-348 -46 -621 -241l-101 -87l-181 19q-13 1 -11 23l8 5q16 258 -35 263l-58 48l1 8q1 10 59 28l1 14q3 21 -55 139l-71 -7l-10 37l8 5l1 8l-1 63l1 6l16 13l6 -8q115 -13 457 77q299 105 331 154l71 -120l-1 -14q-278 -166 -638 -197l-1 -15l46 -88l14 -2
q360 130 441 121l68 -77v-7q-7 -11 -209 -47l-282 -83q7 -59 34 -136q231 138 638 197l113 16q71 -17 54 -100l-54 -12zM515 1264q52 49 -23 197l172 -1l30 -20q72 -216 -128 -272q-321 -29 -367 281l167 1q79 -230 149 -186z" />
    <glyph glyph-name="Edotaccent" unicode="&#x116;" horiz-adv-x="917" 
d="M1069 533q-348 -46 -621 -241l-101 -87l-181 19q-13 1 -11 23l8 5q16 258 -35 263l-58 48l1 8q1 10 59 28l1 14q3 21 -55 139l-71 -7l-10 37l8 5l1 8l-1 63l1 6l16 13l6 -8q115 -13 457 77q299 105 331 154l71 -120l-1 -14q-278 -166 -638 -197l-1 -15l46 -88l14 -2
q360 130 441 121l68 -77v-7q-7 -11 -209 -47l-282 -83q7 -59 34 -136q231 138 638 197l113 16q71 -17 54 -100l-54 -12zM477 1139q-148 -18 -167 106q-31 100 80 107l45 -4q75 18 105 -104q9 -92 -63 -105z" />
    <glyph glyph-name="edotaccent" unicode="&#x117;" horiz-adv-x="917" 
d="M1069 533q-348 -46 -621 -241l-101 -87l-181 19q-13 1 -11 23l8 5q16 258 -35 263l-58 48l1 8q1 10 59 28l1 14q3 21 -55 139l-71 -7l-10 37l8 5l1 8l-1 63l1 6l16 13l6 -8q115 -13 457 77q299 105 331 154l71 -120l-1 -14q-278 -166 -638 -197l-1 -15l46 -88l14 -2
q360 130 441 121l68 -77v-7q-7 -11 -209 -47l-282 -83q7 -59 34 -136q231 138 638 197l113 16q71 -17 54 -100l-54 -12zM477 1139q-148 -18 -167 106q-31 100 80 107l45 -4q75 18 105 -104q9 -92 -63 -105z" />
    <glyph glyph-name="Eogonek" unicode="&#x118;" horiz-adv-x="917" 
d="M1069 533q-348 -46 -621 -241l-101 -87l-181 19q-13 1 -11 23l8 5q16 258 -35 263l-58 48l1 8q1 10 59 28l1 14q3 21 -55 139l-71 -7l-10 37l8 5l1 8l-1 63l1 6l16 13l6 -8q115 -13 457 77q299 105 331 154l71 -120l-1 -14q-278 -166 -638 -197l-1 -15l46 -88l14 -2
q360 130 441 121l68 -77v-7q-7 -11 -209 -47l-282 -83q7 -59 34 -136q231 138 638 197l113 16q71 -17 54 -100l-54 -12zM414 260q1 -75 58 -155l60 -34q71 21 61 75l1 15q163 -6 162 -21l5 -7v-7l-6 1l5 -8q-53 -163 -155 -164l-140 4q-172 -1 -255 301h204z" />
    <glyph glyph-name="eogonek" unicode="&#x119;" horiz-adv-x="917" 
d="M1069 533q-348 -46 -621 -241l-101 -87l-181 19q-13 1 -11 23l8 5q16 258 -35 263l-58 48l1 8q1 10 59 28l1 14q3 21 -55 139l-71 -7l-10 37l8 5l1 8l-1 63l1 6l16 13l6 -8q115 -13 457 77q299 105 331 154l71 -120l-1 -14q-278 -166 -638 -197l-1 -15l46 -88l14 -2
q360 130 441 121l68 -77v-7q-7 -11 -209 -47l-282 -83q7 -59 34 -136q231 138 638 197l113 16q71 -17 54 -100l-54 -12zM414 260q1 -75 58 -155l60 -34q71 21 61 75l1 15q163 -6 162 -21l5 -7v-7l-6 1l5 -8q-53 -163 -155 -164l-140 4q-172 -1 -255 301h204z" />
    <glyph glyph-name="Ecaron" unicode="&#x11a;" horiz-adv-x="917" 
d="M1069 533q-348 -46 -621 -241l-101 -87l-181 19q-13 1 -11 23l8 5q16 258 -35 263l-58 48l1 8q1 10 59 28l1 14q3 21 -55 139l-71 -7l-10 37l8 5l1 8l-1 63l1 6l16 13l6 -8q115 -13 457 77q299 105 331 154l71 -120l-1 -14q-278 -166 -638 -197l-1 -15l46 -88l14 -2
q360 130 441 121l68 -77v-7q-7 -11 -209 -47l-282 -83q7 -59 34 -136q231 138 638 197l113 16q71 -17 54 -100l-54 -12zM568 1107l-19 3q-55 -15 -137 -6l-75 -6q-30 30 -113 217l-105 172q6 67 144 49q89 -117 135 -249l11 12v23l18 211l177 7q-55 -142 -44 -311z" />
    <glyph glyph-name="ecaron" unicode="&#x11b;" horiz-adv-x="917" 
d="M1069 533q-348 -46 -621 -241l-101 -87l-181 19q-13 1 -11 23l8 5q16 258 -35 263l-58 48l1 8q1 10 59 28l1 14q3 21 -55 139l-71 -7l-10 37l8 5l1 8l-1 63l1 6l16 13l6 -8q115 -13 457 77q299 105 331 154l71 -120l-1 -14q-278 -166 -638 -197l-1 -15l46 -88l14 -2
q360 130 441 121l68 -77v-7q-7 -11 -209 -47l-282 -83q7 -59 34 -136q231 138 638 197l113 16q71 -17 54 -100l-54 -12zM568 1107l-19 3q-55 -15 -137 -6l-75 -6q-30 30 -113 217l-105 172q6 67 144 49q89 -117 135 -249l11 12v23l18 211l177 7q-55 -142 -44 -311z" />
    <glyph glyph-name="Gcircumflex" unicode="&#x11c;" horiz-adv-x="965" 
d="M845 1033l-113 -20q-226 53 -226 82v10h72q72 0 267 -72zM301 231q-310 113 -310 391q0 283 391 453q80 0 278 -94v-9q-246 -46 -348 -170t-98 -266q12 -71 63.5 -121.5t165.5 -55.5q55 -3 84 13q84 32 152 84q53 55 62 109h-126q-143 -4 -165 90q0 18 51 137l14 -9
q0 -110 164 -110q74 0 237 46h18q19 0 37 -142q-20 0 -45 -27l-72 -141q-176 -251 -553 -178zM266 1681l19 -3q55 15 137 6l75 6q30 -30 113 -217l105 -171q-6 -68 -144 -50q-89 117 -135 249l-11 -12v-23l-18 -211l-177 -7q55 142 44 311z" />
    <glyph glyph-name="gcircumflex" unicode="&#x11d;" horiz-adv-x="965" 
d="M845 1033l-113 -20q-226 53 -226 82v10h72q72 0 267 -72zM301 231q-310 113 -310 391q0 283 391 453q80 0 278 -94v-9q-246 -46 -348 -170t-98 -266q12 -71 63.5 -121.5t165.5 -55.5q55 -3 84 13q84 32 152 84q53 55 62 109h-126q-143 -4 -165 90q0 18 51 137l14 -9
q0 -110 164 -110q74 0 237 46h18q19 0 37 -142q-20 0 -45 -27l-72 -141q-176 -251 -553 -178zM266 1681l19 -3q55 15 137 6l75 6q30 -30 113 -217l105 -171q-6 -68 -144 -50q-89 117 -135 249l-11 -12v-23l-18 -211l-177 -7q55 142 44 311z" />
    <glyph glyph-name="Gbreve" unicode="&#x11e;" horiz-adv-x="965" 
d="M845 1033l-113 -20q-226 53 -226 82v10h72q72 0 267 -72zM301 231q-310 113 -310 391q0 283 391 453q80 0 278 -94v-9q-246 -46 -348 -170t-98 -266q12 -71 63.5 -121.5t165.5 -55.5q55 -3 84 13q84 32 152 84q53 55 62 109h-126q-143 -4 -165 90q0 18 51 137l14 -9
q0 -110 164 -110q74 0 237 46h18q19 0 37 -142q-20 0 -45 -27l-72 -141q-176 -251 -553 -178zM527 1341q52 49 -23 197l172 -1l30 -20q72 -216 -128 -272q-321 -29 -367 281l167 1q79 -230 149 -186z" />
    <glyph glyph-name="gbreve" unicode="&#x11f;" horiz-adv-x="965" 
d="M845 1033l-113 -20q-226 53 -226 82v10h72q72 0 267 -72zM301 231q-310 113 -310 391q0 283 391 453q80 0 278 -94v-9q-246 -46 -348 -170t-98 -266q12 -71 63.5 -121.5t165.5 -55.5q55 -3 84 13q84 32 152 84q53 55 62 109h-126q-143 -4 -165 90q0 18 51 137l14 -9
q0 -110 164 -110q74 0 237 46h18q19 0 37 -142q-20 0 -45 -27l-72 -141q-176 -251 -553 -178zM527 1341q52 49 -23 197l172 -1l30 -20q72 -216 -128 -272q-321 -29 -367 281l167 1q79 -230 149 -186z" />
    <glyph glyph-name="Gdotaccent" unicode="&#x120;" horiz-adv-x="965" 
d="M845 1033l-113 -20q-226 53 -226 82v10h72q72 0 267 -72zM301 231q-310 113 -310 391q0 283 391 453q80 0 278 -94v-9q-246 -46 -348 -170t-98 -266q12 -71 63.5 -121.5t165.5 -55.5q55 -3 84 13q84 32 152 84q53 55 62 109h-126q-143 -4 -165 90q0 18 51 137l14 -9
q0 -110 164 -110q74 0 237 46h18q19 0 37 -142q-20 0 -45 -27l-72 -141q-176 -251 -553 -178zM514 1237q-148 -18 -167 106q-31 100 80 107l45 -4q75 18 105 -104q9 -92 -63 -105z" />
    <glyph glyph-name="gdotaccent" unicode="&#x121;" horiz-adv-x="965" 
d="M845 1033l-113 -20q-226 53 -226 82v10h72q72 0 267 -72zM301 231q-310 113 -310 391q0 283 391 453q80 0 278 -94v-9q-246 -46 -348 -170t-98 -266q12 -71 63.5 -121.5t165.5 -55.5q55 -3 84 13q84 32 152 84q53 55 62 109h-126q-143 -4 -165 90q0 18 51 137l14 -9
q0 -110 164 -110q74 0 237 46h18q19 0 37 -142q-20 0 -45 -27l-72 -141q-176 -251 -553 -178zM514 1237q-148 -18 -167 106q-31 100 80 107l45 -4q75 18 105 -104q9 -92 -63 -105z" />
    <glyph glyph-name="Hcircumflex" unicode="&#x124;" horiz-adv-x="674" 
d="M277 640q11 -47 18 -128l18 -269l-35 -46l-135 2q-9 268 -34 449l-28 158q-65 248 -134 350l1 27q35 75 118 71q63 -3 97 -149q40 -65 87 -290l5 -32q163 59 181 64q168 -67 162 -99q-14 -312 90 -571q91 -188 316 -324l-1 -7l-9 -6l-5 9l-58 -6l-27 4l-107 7
q-138 26 -260 260q-89 156 -104 509l-47 40q-63 0 -109 -23zM192 1763l19 -3q55 15 137 6l75 6q30 -30 113 -217l105 -171q-6 -68 -144 -50q-89 117 -135 249l-11 -12v-23l-18 -211l-177 -7q55 142 44 311z" />
    <glyph glyph-name="hcircumflex" unicode="&#x125;" horiz-adv-x="674" 
d="M277 640q11 -47 18 -128l18 -269l-35 -46l-135 2q-9 268 -34 449l-28 158q-65 248 -134 350l1 27q35 75 118 71q63 -3 97 -149q40 -65 87 -290l5 -32q163 59 181 64q168 -67 162 -99q-14 -312 90 -571q91 -188 316 -324l-1 -7l-9 -6l-5 9l-58 -6l-27 4l-107 7
q-138 26 -260 260q-89 156 -104 509l-47 40q-63 0 -109 -23zM192 1763l19 -3q55 15 137 6l75 6q30 -30 113 -217l105 -171q-6 -68 -144 -50q-89 117 -135 249l-11 -12v-23l-18 -211l-177 -7q55 142 44 311z" />
    <glyph glyph-name="Itilde" unicode="&#x128;" horiz-adv-x="396" 
d="M240 710q3 -145 14 -258l33 -101l13 3l-3 13l195 18l1 -6q-40 -77 -51 -157l-34 -6q-62 -10 -169 -85q-67 -11 -154 200l-33 108l6 8l-13 32l-2 14l6 8l-8 6l-16 132l-1 7l-2 132l239 49zM495 1150q26 -84 -47 -93q-76 -16 -217 46q-70 36 -166 51q-53 0 -57 -31
q8 -31 38 -62h-145l-23 19q-32 77 2 121q89 66 260 14q194 -82 189 21q-10 13 -23 29h118l20 -14q37 -48 51 -101z" />
    <glyph glyph-name="itilde" unicode="&#x129;" horiz-adv-x="396" 
d="M240 710q3 -145 14 -258l33 -101l13 3l-3 13l195 18l1 -6q-40 -77 -51 -157l-34 -6q-62 -10 -169 -85q-67 -11 -154 200l-33 108l6 8l-13 32l-2 14l6 8l-8 6l-16 132l-1 7l-2 132l239 49zM495 1150q26 -84 -47 -93q-76 -16 -217 46q-70 36 -166 51q-53 0 -57 -31
q8 -31 38 -62h-145l-23 19q-32 77 2 121q89 66 260 14q194 -82 189 21q-10 13 -23 29h118l20 -14q37 -48 51 -101z" />
    <glyph glyph-name="Ibreve" unicode="&#x12c;" horiz-adv-x="396" 
d="M240 710q3 -145 14 -258l33 -101l13 3l-3 13l195 18l1 -6q-40 -77 -52 -157l-33 -6q-62 -10 -169 -85q-67 -11 -154 200l-33 108l6 8l-13 32l-2 14l6 8l-8 6l-16 132l-1 7l-2 132l238 49zM151 1079q52 49 -23 197l172 -1l30 -20q72 -216 -128 -272q-321 -29 -367 281
l167 1q79 -230 149 -186z" />
    <glyph glyph-name="ibreve" unicode="&#x12d;" horiz-adv-x="396" 
d="M240 710q3 -145 14 -258l33 -101l13 3l-3 13l195 18l1 -6q-40 -77 -52 -157l-33 -6q-62 -10 -169 -85q-67 -11 -154 200l-33 108l6 8l-13 32l-2 14l6 8l-8 6l-16 132l-1 7l-2 132l238 49zM151 1079q52 49 -23 197l172 -1l30 -20q72 -216 -128 -272q-321 -29 -367 281
l167 1q79 -230 149 -186z" />
    <glyph glyph-name="Iogonek" unicode="&#x12e;" horiz-adv-x="396" 
d="M240 710q3 -145 15 -258l32 -101l13 3l-3 13l196 18v-6q-39 -77 -51 -157l-34 -6q-61 -10 -169 -85q-67 -11 -154 200l-32 108l6 8l-14 32l-2 14l7 8l-8 6l-17 132l-1 7l-1 132l238 49zM174 912q-148 -18 -167 106q-31 100 80 107l45 -4q75 18 105 -104q9 -92 -63 -105z
M345 192q1 -75 58 -155l60 -34q71 21 61 75l1 15q163 -6 162 -21l5 -7v-7l-6 1l5 -8q-53 -163 -155 -164l-140 4q-172 -1 -255 301h204z" />
    <glyph glyph-name="iogonek" unicode="&#x12f;" horiz-adv-x="396" 
d="M240 710q3 -145 15 -258l32 -101l13 3l-3 13l196 18v-6q-39 -77 -51 -157l-34 -6q-61 -10 -169 -85q-67 -11 -154 200l-32 108l6 8l-14 32l-2 14l7 8l-8 6l-17 132l-1 7l-1 132l238 49zM174 912q-148 -18 -167 106q-31 100 80 107l45 -4q75 18 105 -104q9 -92 -63 -105z
M345 192q1 -75 58 -155l60 -34q71 21 61 75l1 15q163 -6 162 -21l5 -7v-7l-6 1l5 -8q-53 -163 -155 -164l-140 4q-172 -1 -255 301h204z" />
    <glyph glyph-name="Idotaccent" unicode="&#x130;" horiz-adv-x="434" 
d="M240 710q3 -145 15 -258l32 -101l13 3l-3 13l196 18v-6q-39 -77 -51 -157l-34 -6q-61 -10 -169 -85q-67 -11 -154 200l-32 108l6 8l-14 32l-2 14l7 8l-8 6l-17 132l-1 7l-1 132l238 49zM174 912q-148 -18 -167 106q-31 100 80 107l45 -4q75 18 105 -104q9 -92 -63 -105z
" />
    <glyph glyph-name="dotlessi" unicode="&#x131;" horiz-adv-x="442" 
d="M241 710q3 -145 14 -258l33 -101l12 3l-2 13l195 18l1 -6q-40 -77 -52 -157l-33 -6q-62 -10 -170 -85q-66 -11 -153 200l-33 108l6 8l-13 32l-2 14l6 8l-8 6l-16 132l-1 7l-2 132l238 49z" />
    <glyph glyph-name="Jcircumflex" unicode="&#x134;" horiz-adv-x="463" 
d="M202 1059q-7 42 16 78l267 19l4 -22l-42 -59l-28 -149q56 -712 -181 -829l-97 24l-83 -4q-70 -12 -111 175q-5 27 131 62q22 4 56 -57l36 -90q111 23 23 677zM157 1715l19 -3q55 15 137 6l75 6q30 -30 113 -217l105 -171q-6 -68 -144 -50q-89 117 -135 249l-11 -12v-23
l-18 -211l-177 -7q55 142 44 311z" />
    <glyph glyph-name="jcircumflex" unicode="&#x135;" horiz-adv-x="463" 
d="M202 1059q-7 42 16 78l267 19l4 -22l-42 -59l-28 -149q56 -712 -181 -829l-97 24l-83 -4q-70 -12 -111 175q-5 27 131 62q22 4 56 -57l36 -90q111 23 23 677zM157 1715l19 -3q55 15 137 6l75 6q30 -30 113 -217l105 -171q-6 -68 -144 -50q-89 117 -135 249l-11 -12v-23
l-18 -211l-177 -7q55 142 44 311z" />
    <glyph glyph-name="Lacute" unicode="&#x139;" horiz-adv-x="336" 
d="M76 540l-35 338q-15 105 -34 196q-22 144 -75 213v6l78 -8q154 2 155 -46q109 -290 130 -628l8 -21l-7 -1l9 -26l-4 -36v-7l7 -7l-5 -41l-2 -123l-5 -126h-60l-7 -1l-8 7q-88 -20 -123 -42v6l-8 7l-7 104l6 36l-8 6l4 41v8l-7 7l6 21q-4 60 -8 117zM537 1647v-7
q-392 -169 -493 -235q-45 -5 -81 103q13 2 11 29q173 166 337 184l90 9q84 -27 136 -83z" />
    <glyph glyph-name="lacute" unicode="&#x13a;" horiz-adv-x="336" 
d="M76 540l-35 338q-15 105 -34 196q-22 144 -75 213v6l78 -8q154 2 155 -46q109 -290 130 -628l8 -21l-7 -1l9 -26l-4 -36v-7l7 -7l-5 -41l-2 -123l-5 -126h-60l-7 -1l-8 7q-88 -20 -123 -42v6l-8 7l-7 104l6 36l-8 6l4 41v8l-7 7l6 21q-4 60 -8 117zM537 1647v-7
q-392 -169 -493 -235q-45 -5 -81 103q13 2 11 29q173 166 337 184l90 9q84 -27 136 -83z" />
    <glyph glyph-name="Lcaron" unicode="&#x13d;" horiz-adv-x="387" 
d="M119 540l-35 338q-15 105 -34 196q-22 144 -75 213v6l78 -8q154 2 155 -46q109 -290 130 -628l8 -21l-7 -1l9 -26l-4 -36v-7l7 -7l-5 -41l-2 -123l-5 -126h-60l-7 -1l-8 7q-88 -20 -123 -42v6l-8 7l-7 104l6 36l-8 6l4 41v8l-7 7l6 21q-4 60 -8 117zM291 1375l-19 3
q-55 -15 -137 -6l-75 -6q-30 30 -113 217l-105 172q6 67 144 49q89 -117 135 -249l11 12v23l18 211l177 7q-55 -142 -44 -311z" />
    <glyph glyph-name="lcaron" unicode="&#x13e;" horiz-adv-x="387" 
d="M119 540l-35 338q-15 105 -34 196q-22 144 -75 213v6l78 -8q154 2 155 -46q109 -290 130 -628l8 -21l-7 -1l9 -26l-4 -36v-7l7 -7l-5 -41l-2 -123l-5 -126h-60l-7 -1l-8 7q-88 -20 -123 -42v6l-8 7l-7 104l6 36l-8 6l4 41v8l-7 7l6 21q-4 60 -8 117zM291 1375l-19 3
q-55 -15 -137 -6l-75 -6q-30 30 -113 217l-105 172q6 67 144 49q89 -117 135 -249l11 12v23l18 211l177 7q-55 -142 -44 -311z" />
    <glyph glyph-name="Ldot" unicode="&#x13f;" horiz-adv-x="619" 
d="M64 540l-35 338q-15 105 -34 196q-22 144 -75 213v6l78 -8q154 2 155 -46q109 -290 130 -628l8 -21l-7 -1l9 -26l-4 -36v-7l7 -7l-5 -41l-2 -123l-5 -126h-60l-7 -1l-8 7q-88 -20 -123 -42v6l-8 7l-7 104l6 36l-8 6l4 41v8l-7 7l6 21q-4 60 -8 117zM318 803
q30 122 105 104l45 4q111 -7 80 -107q-19 -124 -210 -118q-72 13 -20 117z" />
    <glyph glyph-name="ldot" unicode="&#x140;" horiz-adv-x="619" 
d="M64 540l-35 338q-15 105 -34 196q-22 144 -75 213v6l78 -8q154 2 155 -46q109 -290 130 -628l8 -21l-7 -1l9 -26l-4 -36v-7l7 -7l-5 -41l-2 -123l-5 -126h-60l-7 -1l-8 7q-88 -20 -123 -42v6l-8 7l-7 104l6 36l-8 6l4 41v8l-7 7l6 21q-4 60 -8 117zM318 803
q30 122 105 104l45 4q111 -7 80 -107q-19 -124 -210 -118q-72 13 -20 117z" />
    <glyph glyph-name="Lslash" unicode="&#x141;" horiz-adv-x="336" 
d="M81 540l-35 338q-15 105 -34 196q-22 144 -75 213v6l78 -8q154 2 155 -46q109 -290 130 -628l8 -21l-7 -1l9 -26l-4 -36v-7l7 -7l-5 -41l-2 -123l-5 -126h-60l-7 -1l-8 7q-88 -20 -123 -42v6l-8 7l-7 104l6 36l-8 6l4 41v8l-7 7l6 21q-4 60 -8 117zM323 674q-30 1 -50 -6
l-317 3l-32 -3l-12 1l-4 8l-46 -3l-36 16l-3 52q18 60 89 53q76 -3 121 -2q84 -2 259 11h5q170 24 296 53l-17 -153q-54 -24 -253 -30z" />
    <glyph glyph-name="lslash" unicode="&#x142;" horiz-adv-x="336" 
d="M81 540l-35 338q-15 105 -34 196q-22 144 -75 213v6l78 -8q154 2 155 -46q109 -290 130 -628l8 -21l-7 -1l9 -26l-4 -36v-7l7 -7l-5 -41l-2 -123l-5 -126h-60l-7 -1l-8 7q-88 -20 -123 -42v6l-8 7l-7 104l6 36l-8 6l4 41v8l-7 7l6 21q-4 60 -8 117zM323 674q-30 1 -50 -6
l-317 3l-32 -3l-12 1l-4 8l-46 -3l-36 16l-3 52q18 60 89 53q76 -3 121 -2q84 -2 259 11h5q170 24 296 53l-17 -153q-54 -24 -253 -30z" />
    <glyph glyph-name="Nacute" unicode="&#x143;" horiz-adv-x="1026" 
d="M931 435l5 -21l-8 -6v-8l2 -42l-8 -5l4 -36l-12 -104l-8 -7v-6q-34 24 -121 48l-8 -7l-7 2l-61 13l-8 -7l1 8l-85 -5q-179 327 -387 434l-7 1l-1 -7q72 -45 71 -57l-2 -21q-13 -113 -75 -237l-7 1q-124 98 -146 142l-4 21l7 6q12 101 -85 317l-103 151q218 5 220 19
q323 -168 509 -405l99 -130l7 -1l1 8l-3 42l7 6l1 7l-3 36l10 26l-7 1l9 21q37 337 268 727q4 48 157 39l79 5l-1 -6q-56 -67 -152 -313l-42 -128q-43 -139 -106 -522zM882 1470v-7q-392 -169 -493 -235q-45 -5 -81 103q13 2 11 29q173 166 337 184l90 9q84 -27 136 -83z
" />
    <glyph glyph-name="nacute" unicode="&#x144;" horiz-adv-x="1026" 
d="M931 435l5 -21l-8 -6v-8l2 -42l-8 -5l4 -36l-12 -104l-8 -7v-6q-34 24 -121 48l-8 -7l-7 2l-61 13l-8 -7l1 8l-85 -5q-179 327 -387 434l-7 1l-1 -7q72 -45 71 -57l-2 -21q-13 -113 -75 -237l-7 1q-124 98 -146 142l-4 21l7 6q12 101 -85 317l-103 151q218 5 220 19
q323 -168 509 -405l99 -130l7 -1l1 8l-3 42l7 6l1 7l-3 36l10 26l-7 1l9 21q37 337 268 727q4 48 157 39l79 5l-1 -6q-56 -67 -152 -313l-42 -128q-43 -139 -106 -522zM882 1470v-7q-392 -169 -493 -235q-45 -5 -81 103q13 2 11 29q173 166 337 184l90 9q84 -27 136 -83z
" />
    <glyph glyph-name="Ncaron" unicode="&#x147;" horiz-adv-x="1026" 
d="M931 435l5 -21l-8 -6v-8l2 -42l-8 -5l4 -36l-12 -104l-8 -7v-6q-34 24 -121 48l-8 -7l-7 2l-61 13l-8 -7l1 8l-85 -5q-179 327 -387 434l-7 1l-1 -7q72 -45 71 -57l-2 -21q-13 -113 -75 -237l-7 1q-124 98 -146 142l-4 21l7 6q12 101 -85 317l-103 151q218 5 220 19
q323 -168 509 -405l99 -130l7 -1l1 8l-3 42l7 6l1 7l-3 36l10 26l-7 1l9 21q37 337 268 727q4 48 157 39l79 5l-1 -6q-56 -67 -152 -313l-42 -128q-43 -139 -106 -522zM651 1176l-19 3q-55 -15 -137 -6l-75 -6q-30 30 -113 217l-105 172q6 67 144 49q89 -117 135 -249l11 12
v23l18 211l177 7q-55 -142 -44 -311z" />
    <glyph glyph-name="ncaron" unicode="&#x148;" horiz-adv-x="1026" 
d="M931 435l5 -21l-8 -6v-8l2 -42l-8 -5l4 -36l-12 -104l-8 -7v-6q-34 24 -121 48l-8 -7l-7 2l-61 13l-8 -7l1 8l-85 -5q-179 327 -387 434l-7 1l-1 -7q72 -45 71 -57l-2 -21q-13 -113 -75 -237l-7 1q-124 98 -146 142l-4 21l7 6q12 101 -85 317l-103 151q218 5 220 19
q323 -168 509 -405l99 -130l7 -1l1 8l-3 42l7 6l1 7l-3 36l10 26l-7 1l9 21q37 337 268 727q4 48 157 39l79 5l-1 -6q-56 -67 -152 -313l-42 -128q-43 -139 -106 -522zM651 1176l-19 3q-55 -15 -137 -6l-75 -6q-30 30 -113 217l-105 172q6 67 144 49q89 -117 135 -249l11 12
v23l18 211l177 7q-55 -142 -44 -311z" />
    <glyph glyph-name="Obreve" unicode="&#x14e;" 
d="M219 345q-141 15 -209 205q-16 48 -8 119q11 97 109 172l7 -2q112 -62 108 -109l-55 -114q-10 -98 88 -163q57 26 43 136q-41 178 -141 260q-94 38 -92 52q1 11 194 48l14 -1q192 -116 223 -268l8 -57h-7q13 -138 -95 -235q-83 -64 -187 -43zM120 987l42 -5l6 -8l8 6
l20 -2l7 -7l7 -1l7 5l6 -6l-1 -7l-179 -44l-49 12l-54 6l1 13zM249 1250q52 49 -23 197l172 -1l30 -20q72 -216 -128 -272q-321 -29 -367 281l167 1q79 -230 149 -186z" />
    <glyph glyph-name="obreve" unicode="&#x14f;" 
d="M219 345q-141 15 -209 205q-16 48 -8 119q11 97 109 172l7 -2q112 -62 108 -109l-55 -114q-10 -98 88 -163q57 26 43 136q-41 178 -141 260q-94 38 -92 52q1 11 194 48l14 -1q192 -116 223 -268l8 -57h-7q13 -138 -95 -235q-83 -64 -187 -43zM120 987l42 -5l6 -8l8 6
l20 -2l7 -7l7 -1l7 5l6 -6l-1 -7l-179 -44l-49 12l-54 6l1 13zM249 1250q52 49 -23 197l172 -1l30 -20q72 -216 -128 -272q-321 -29 -367 281l167 1q79 -230 149 -186z" />
    <glyph glyph-name="Ohungarumlaut" unicode="&#x150;" 
d="M219 345q-141 15 -209 205q-16 48 -8 119q11 97 109 172l7 -2q112 -62 108 -109l-55 -114q-10 -98 88 -163q57 26 43 136q-41 178 -141 260q-94 38 -92 52q1 11 194 48l14 -1q192 -116 223 -268l8 -57h-7q13 -138 -95 -235q-83 -64 -187 -43zM120 987l42 -5l6 -8l8 6
l20 -2l7 -7l7 -1l7 5l6 -6l-1 -7l-179 -44l-49 12l-54 6l1 13zM384 1538l2 -5q-232 -283 -285 -374q-31 -20 -93 55q8 6 -2 27q72 199 187 274l63 41q71 9 128 -18zM637 1534l3 -6q-233 -282 -285 -373q-31 -21 -94 54q9 6 -1 28q72 199 186 274l64 40q70 9 127 -17z" />
    <glyph glyph-name="ohungarumlaut" unicode="&#x151;" 
d="M219 345q-141 15 -209 205q-16 48 -8 119q11 97 109 172l7 -2q112 -62 108 -109l-55 -114q-10 -98 88 -163q57 26 43 136q-41 178 -141 260q-94 38 -92 52q1 11 194 48l14 -1q192 -116 223 -268l8 -57h-7q13 -138 -95 -235q-83 -64 -187 -43zM120 987l42 -5l6 -8l8 6
l20 -2l7 -7l7 -1l7 5l6 -6l-1 -7l-179 -44l-49 12l-54 6l1 13zM384 1538l2 -5q-232 -283 -284 -374q-32 -20 -94 55q9 6 -2 27q72 199 187 274l63 41q71 9 128 -18zM637 1534l3 -6q-232 -282 -285 -373q-31 -21 -94 54q9 6 -1 28q72 199 187 274l63 40q71 9 127 -17z" />
    <glyph glyph-name="OE" unicode="&#x152;" horiz-adv-x="862" 
d="M236 345q-141 15 -209 205q-16 48 -8 119q11 97 109 172l7 -2q112 -62 108 -109l-55 -114q-10 -98 88 -163q57 26 43 136q-41 178 -141 260q-94 38 -92 52q1 11 194 48l14 -1q192 -116 223 -268l8 -57h-7q13 -138 -95 -235q-83 -64 -187 -43zM137 987l42 -5l6 -8l8 6
l20 -2l7 -7l7 -1l7 5l6 -6l-1 -7l-179 -44l-49 12l-54 6l1 13zM1306 615q-348 -46 -621 -241l-101 -87l-181 19q-13 1 -11 23l8 5q16 258 -35 263l-58 48l1 8q1 10 59 28l1 14q3 21 -55 139l-71 -7l-10 37l8 5l1 8l-1 63l1 6l16 13l6 -8q115 -13 457 77q299 105 331 154
l71 -120l-1 -14q-278 -166 -638 -197l-1 -15l46 -88l14 -2q360 130 441 121l68 -77v-7q-7 -11 -209 -47l-282 -83q7 -59 34 -136q231 138 638 197l113 16q71 -17 54 -100l-54 -12z" />
    <glyph glyph-name="oe" unicode="&#x153;" horiz-adv-x="862" 
d="M236 345q-141 15 -209 205q-16 48 -8 119q11 97 109 172l7 -2q112 -62 108 -109l-55 -114q-10 -98 88 -163q57 26 43 136q-41 178 -141 260q-94 38 -92 52q1 11 194 48l14 -1q192 -116 223 -268l8 -57h-7q13 -138 -95 -235q-83 -64 -187 -43zM137 987l42 -5l6 -8l8 6
l20 -2l7 -7l7 -1l7 5l6 -6l-1 -7l-179 -44l-49 12l-54 6l1 13zM1306 615q-348 -46 -621 -241l-101 -87l-181 19q-13 1 -11 23l8 5q16 258 -35 263l-58 48l1 8q1 10 59 28l1 14q3 21 -55 139l-71 -7l-10 37l8 5l1 8l-1 63l1 6l16 13l6 -8q115 -13 457 77q299 105 331 154
l71 -120l-1 -14q-278 -166 -638 -197l-1 -15l46 -88l14 -2q360 130 441 121l68 -77v-7q-7 -11 -209 -47l-282 -83q7 -59 34 -136q231 138 638 197l113 16q71 -17 54 -100l-54 -12z" />
    <glyph glyph-name="Racute" unicode="&#x154;" horiz-adv-x="965" 
d="M275 901q3 -22 6 -46q38 -144 50 -327l167 -5q126 12 145 57q9 85 -113 142q1 11 -66 42q-118 75 -189 137zM335 433q4 -159 -10 -346l-78 21h-99l1 162q30 379 -153 843v5q-38 95 -64 144l1 14q8 67 211 68q67 -7 86 -115l9 -1q161 -269 598 -554q70 -55 94 -108
q-12 -103 -312 -125q38 -100 85 -203q97 -187 223 -340q228 -248 389 -293l-1 -7l-8 -7l-6 8l-50 -1l-27 2l-139 8q-184 40 -385 266q-196 269 -246 447q-39 88 -43 122zM930 1458v-7q-392 -169 -493 -235q-45 -5 -81 103q13 2 11 29q173 166 337 184l90 9q84 -27 136 -83z
" />
    <glyph glyph-name="racute" unicode="&#x155;" horiz-adv-x="965" 
d="M275 901q3 -22 6 -46q38 -144 50 -327l167 -5q126 12 145 57q9 85 -113 142q1 11 -66 42q-118 75 -189 137zM335 433q4 -159 -10 -346l-78 21h-99l1 162q30 379 -153 843v5q-38 95 -64 144l1 14q8 67 211 68q67 -7 86 -115l9 -1q161 -269 598 -554q70 -55 94 -108
q-12 -103 -312 -125q38 -100 85 -203q97 -187 223 -340q228 -248 389 -293l-1 -7l-8 -7l-6 8l-50 -1l-27 2l-139 8q-184 40 -385 266q-196 269 -246 447q-39 88 -43 122zM930 1458v-7q-392 -169 -493 -235q-45 -5 -81 103q13 2 11 29q173 166 337 184l90 9q84 -27 136 -83z
" />
    <glyph glyph-name="Rcaron" unicode="&#x158;" horiz-adv-x="965" 
d="M275 901q3 -22 6 -46q38 -144 50 -327l167 -5q126 12 145 57q9 85 -113 142q1 11 -66 42q-118 75 -189 137zM335 433q4 -159 -10 -346l-78 21h-99l1 162q30 379 -153 843v5q-38 95 -64 144l1 14q8 67 211 68q67 -7 86 -115l9 -1q161 -269 598 -554q70 -55 94 -108
q-12 -103 -312 -125q38 -100 85 -203q97 -187 223 -340q228 -248 389 -293l-1 -7l-8 -7l-6 8l-50 -1l-27 2l-139 8q-184 40 -385 266q-196 269 -246 447q-39 88 -43 122zM646 1244l-19 3q-55 -15 -137 -6l-75 -6q-30 30 -113 217l-105 172q6 67 144 49q89 -117 135 -249
l11 12v23l18 211l177 7q-55 -142 -44 -311z" />
    <glyph glyph-name="rcaron" unicode="&#x159;" horiz-adv-x="965" 
d="M275 901q3 -22 6 -46q38 -144 50 -327l167 -5q126 12 145 57q9 85 -113 142q1 11 -66 42q-118 75 -189 137zM335 433q4 -159 -10 -346l-78 21h-99l1 162q30 379 -153 843v5q-38 95 -64 144l1 14q8 67 211 68q67 -7 86 -115l9 -1q161 -269 598 -554q70 -55 94 -108
q-12 -103 -312 -125q38 -100 85 -203q97 -187 223 -340q228 -248 389 -293l-1 -7l-8 -7l-6 8l-50 -1l-27 2l-139 8q-184 40 -385 266q-196 269 -246 447q-39 88 -43 122zM646 1244l-19 3q-55 -15 -137 -6l-75 -6q-30 30 -113 217l-105 172q6 67 144 49q89 -117 135 -249
l11 12v23l18 211l177 7q-55 -142 -44 -311z" />
    <glyph glyph-name="Sacute" unicode="&#x15a;" horiz-adv-x="1676" 
d="M1197 1197l-148 -277l-110 -177l-277 -27l-5 7l1 14q106 91 214 299l8 7q51 119 78 145zM1230 -192q-194 -102 -214 -167l-14 2l-197 56l2 13l-3 43q100 211 117 365q11 107 -53 217l-82 29v-6l-20 9l2 20q1 11 223 60q112 -42 160 -143q18 -91 8 -183q-13 -119 -90 -250
q125 68 301 249q303 286 345 418l2 7q-7 28 -61 34l-34 4l-43 -2l-5 7l-7 1q-457 -42 -826 -128q-679 -243 -844 -226q-60 7 -79 44l-8 2l8 69l18 39q23 71 102 165q13 52 299 303q358 312 383 310l254 15l-2 -22q-68 -10 -452 -293q-311 -258 -398 -379l-1 -14
q4 -21 38 -25q135 -14 298 31l6 -7l7 -1q774 155 1087 198l237 -4l35 -3l102 -25q105 -63 108 -173q-31 -180 -709 -659zM1300 1570v-7q-392 -169 -493 -235q-45 -5 -81 103q13 2 11 29q173 166 337 184l90 9q84 -27 136 -83z" />
    <glyph glyph-name="sacute" unicode="&#x15b;" horiz-adv-x="1676" 
d="M1197 1197l-148 -277l-110 -177l-277 -27l-5 7l1 14q106 91 214 299l8 7q51 119 78 145zM1230 -192q-194 -102 -214 -167l-14 2l-197 56l2 13l-3 43q100 211 117 365q11 107 -53 217l-82 29v-6l-20 9l2 20q1 11 223 60q112 -42 160 -143q18 -91 8 -183q-13 -119 -90 -250
q125 68 301 249q303 286 345 418l2 7q-7 28 -61 34l-34 4l-43 -2l-5 7l-7 1q-457 -42 -826 -128q-679 -243 -844 -226q-60 7 -79 44l-8 2l8 69l18 39q23 71 102 165q13 52 299 303q358 312 383 310l254 15l-2 -22q-68 -10 -452 -293q-311 -258 -398 -379l-1 -14
q4 -21 38 -25q135 -14 298 31l6 -7l7 -1q774 155 1087 198l237 -4l35 -3l102 -25q105 -63 108 -173q-31 -180 -709 -659zM1300 1570v-7q-392 -169 -493 -235q-45 -5 -81 103q13 2 11 29q173 166 337 184l90 9q84 -27 136 -83z" />
    <glyph glyph-name="Scircumflex" unicode="&#x15c;" horiz-adv-x="1676" 
d="M1197 1197l-148 -277l-110 -177l-277 -27l-5 7l1 14q106 91 214 299l8 7q51 119 78 145zM1230 -192q-194 -102 -214 -167l-14 2l-197 56l2 13l-3 43q100 211 117 365q11 107 -53 217l-82 29v-6l-20 9l2 20q1 11 223 60q112 -42 160 -143q18 -91 8 -183q-13 -119 -90 -250
q125 68 301 249q303 286 345 418l2 7q-7 28 -61 34l-34 4l-43 -2l-5 7l-7 1q-457 -42 -826 -128q-679 -243 -844 -226q-60 7 -79 44l-8 2l8 69l18 39q23 71 102 165q13 52 299 303q358 312 383 310l254 15l-2 -22q-68 -10 -452 -293q-311 -258 -398 -379l-1 -14
q4 -21 38 -25q135 -14 298 31l6 -7l7 -1q774 155 1087 198l237 -4l35 -3l102 -25q105 -63 108 -173q-31 -180 -709 -659zM660 1762l19 -3q55 15 137 6l75 6q30 -30 113 -217l105 -171q-6 -68 -144 -50q-89 117 -135 249l-11 -12v-23l-18 -211l-177 -7q55 142 44 311z" />
    <glyph glyph-name="scircumflex" unicode="&#x15d;" horiz-adv-x="1676" 
d="M1197 1197l-148 -277l-110 -177l-277 -27l-5 7l1 14q106 91 214 299l8 7q51 119 78 145zM1230 -192q-194 -102 -214 -167l-14 2l-197 56l2 13l-3 43q100 211 117 365q11 107 -53 217l-82 29v-6l-20 9l2 20q1 11 223 60q112 -42 160 -143q18 -91 8 -183q-13 -119 -90 -250
q125 68 301 249q303 286 345 418l2 7q-7 28 -61 34l-34 4l-43 -2l-5 7l-7 1q-457 -42 -826 -128q-679 -243 -844 -226q-60 7 -79 44l-8 2l8 69l18 39q23 71 102 165q13 52 299 303q358 312 383 310l254 15l-2 -22q-68 -10 -452 -293q-311 -258 -398 -379l-1 -14
q4 -21 38 -25q135 -14 298 31l6 -7l7 -1q774 155 1087 198l237 -4l35 -3l102 -25q105 -63 108 -173q-31 -180 -709 -659zM660 1762l19 -3q55 15 137 6l75 6q30 -30 113 -217l105 -171q-6 -68 -144 -50q-89 117 -135 249l-11 -12v-23l-18 -211l-177 -7q55 142 44 311z" />
    <glyph glyph-name="Scedilla" unicode="&#x15e;" horiz-adv-x="1676" 
d="M1197 1197l-148 -277l-110 -177l-277 -27l-5 7l1 14q106 91 214 299l8 7q51 119 78 145zM1230 -192q-194 -102 -214 -167l-14 2l-197 56l2 13l-3 43q100 211 117 365q11 107 -53 217l-82 29v-6l-20 9l2 20q1 11 223 60q112 -42 160 -143q18 -91 8 -183q-13 -119 -90 -250
q125 68 301 249q303 286 345 418l2 7q-7 28 -61 34l-34 4l-43 -2l-5 7l-7 1q-457 -42 -826 -128q-679 -243 -844 -226q-60 7 -79 44l-8 2l8 69l18 39q23 71 102 165q13 52 299 303q358 312 383 310l254 15l-2 -22q-68 -10 -452 -293q-311 -258 -398 -379l-1 -14
q4 -21 38 -25q135 -14 298 31l6 -7l7 -1q774 155 1087 198l237 -4l35 -3l102 -25q105 -63 108 -173q-31 -180 -709 -659zM655 -543l-9 1q14 53 -6 110v5q-3 27 -7 38l1 14q6 53 136 65q53 -100 22 -180q151 6 169 48q-160 75 -148 250q33 3 75 3q67 -7 79 -55
q29 -101 109 -112q110 -30 134 -112q-12 -103 -273 -113l-108 1l-172 30q-1 4 -2 7z" />
    <glyph glyph-name="scedilla" unicode="&#x15f;" horiz-adv-x="1676" 
d="M1197 1197l-148 -277l-110 -177l-277 -27l-5 7l1 14q106 91 214 299l8 7q51 119 78 145zM1230 -192q-194 -102 -214 -167l-14 2l-197 56l2 13l-3 43q100 211 117 365q11 107 -53 217l-82 29v-6l-20 9l2 20q1 11 223 60q112 -42 160 -143q18 -91 8 -183q-13 -119 -90 -250
q125 68 301 249q303 286 345 418l2 7q-7 28 -61 34l-34 4l-43 -2l-5 7l-7 1q-457 -42 -826 -128q-679 -243 -844 -226q-60 7 -79 44l-8 2l8 69l18 39q23 71 102 165q13 52 299 303q358 312 383 310l254 15l-2 -22q-68 -10 -452 -293q-311 -258 -398 -379l-1 -14
q4 -21 38 -25q135 -14 298 31l6 -7l7 -1q774 155 1087 198l237 -4l35 -3l102 -25q105 -63 108 -173q-31 -180 -709 -659zM655 -543l-9 1q14 53 -6 110v5q-3 27 -7 38l1 14q6 53 136 65q53 -100 22 -180q151 6 169 48q-160 75 -148 250q33 3 75 3q67 -7 79 -55
q29 -101 109 -112q110 -30 134 -112q-12 -103 -273 -113l-108 1l-172 30q-1 4 -2 7z" />
    <glyph glyph-name="Scaron" unicode="&#x160;" horiz-adv-x="1676" 
d="M1197 1197l-148 -277l-110 -177l-277 -27l-5 7l1 14q106 91 214 299l8 7q51 119 78 145zM1230 -192q-194 -102 -214 -167l-14 2l-197 56l2 13l-3 43q100 211 117 365q11 107 -53 217l-82 29v-6l-20 9l2 20q1 11 223 60q112 -42 160 -143q18 -91 8 -183q-13 -119 -90 -250
q125 68 301 249q303 286 345 418l2 7q-7 28 -61 34l-34 4l-43 -2l-5 7l-7 1q-457 -42 -826 -128q-679 -243 -844 -226q-60 7 -79 44l-8 2l8 69l18 39q23 71 102 165q13 52 299 303q358 312 383 310l254 15l-2 -22q-68 -10 -452 -293q-311 -258 -398 -379l-1 -14
q4 -21 38 -25q135 -14 298 31l6 -7l7 -1q774 155 1087 198l237 -4l35 -3l102 -25q105 -63 108 -173q-31 -180 -709 -659zM1054 1285l-19 3q-55 -15 -137 -6l-75 -6q-30 30 -113 217l-105 172q6 67 144 49q89 -117 135 -249l11 12v23l18 211l177 7q-55 -142 -44 -311z" />
    <glyph glyph-name="scaron" unicode="&#x161;" horiz-adv-x="1676" 
d="M1197 1197l-148 -277l-110 -177l-277 -27l-5 7l1 14q106 91 214 299l8 7q51 119 78 145zM1230 -192q-194 -102 -214 -167l-14 2l-197 56l2 13l-3 43q100 211 117 365q11 107 -53 217l-82 29v-6l-20 9l2 20q1 11 223 60q112 -42 160 -143q18 -91 8 -183q-13 -119 -90 -250
q125 68 301 249q303 286 345 418l2 7q-7 28 -61 34l-34 4l-43 -2l-5 7l-7 1q-457 -42 -826 -128q-679 -243 -844 -226q-60 7 -79 44l-8 2l8 69l18 39q23 71 102 165q13 52 299 303q358 312 383 310l254 15l-2 -22q-68 -10 -452 -293q-311 -258 -398 -379l-1 -14
q4 -21 38 -25q135 -14 298 31l6 -7l7 -1q774 155 1087 198l237 -4l35 -3l102 -25q105 -63 108 -173q-31 -180 -709 -659zM1054 1285l-19 3q-55 -15 -137 -6l-75 -6q-30 30 -113 217l-105 172q6 67 144 49q89 -117 135 -249l11 12v23l18 211l177 7q-55 -142 -44 -311z" />
    <glyph glyph-name="Tcaron" unicode="&#x164;" horiz-adv-x="817" 
d="M105 838l-35 4l-8 -7l-7 2l1 6l-7 -5l-104 10h-63q-22 2 -73 113l240 3v6l-49 62l2 20l247 16q23 -2 47 -89q360 31 366 87l8 5l13 -1q76 -52 100 -179l-1 -7q-196 -27 -452 -42q36 -186 193 -406l78 -64q36 77 43 135l1 15q163 -46 162 -61l5 -7v-7l-6 1l5 -8
q-43 -143 -125 -134l-170 -16q-95 42 -214 170l-107 173q-93 172 -90 205zM-225 965l53 -103l-8 -7l-63 7l-49 -3l-46 90l1 13zM-379 967l47 -88l-1 -15l-21 2q-64 7 -103 88l1 14l28 -2zM419 1240l-19 3q-55 -15 -137 -6l-75 -6q-30 30 -113 217l-105 172q6 67 144 49
q89 -117 135 -249l11 12v23l18 211l177 7q-55 -142 -44 -311z" />
    <glyph glyph-name="tcaron" unicode="&#x165;" horiz-adv-x="571" 
d="M50 1076q209 -8 211 12q29 117 68 112l205 13l-1 -7l-39 -108h6q261 21 463 69v-6l274 82l7 -8l-1 -6q-61 -141 -106 -136q-286 -106 -616 -138q-99 3 -104 -58l-83 -181q-36 -140 -56 -252l4 -106l13 -1l1 14l193 -36l-1 -6q-59 -63 -92 -137l-34 3q-62 7 -186 -36
q-67 8 -94 234l-2 113l8 6l-4 35l2 14l8 6l-6 8l20 131l1 7l59 224l-40 12l-28 3l-36 -3l-14 1l-5 8l-52 -3l-42 16l-3 52q21 60 102 53zM520 1328l-19 3q-55 -15 -137 -6l-75 -6q-30 30 -113 217l-105 172q6 67 144 49q89 -117 135 -249l11 12v23l18 211l177 7
q-55 -142 -44 -311z" />
    <glyph glyph-name="Utilde" unicode="&#x168;" horiz-adv-x="666" 
d="M510 391q-108 -168 -201 -160l-64 6q-87 8 -181 203q-67 204 -56 326l1 14q5 50 105 41l109 25l7 -7l-15 -156q-12 -135 89 -280l20 -9q40 38 80 164l13 142q13 138 -43 311l1 14q32 69 170 57l56 -6q32 -37 9 -272t-100 -413zM575 1376q26 -84 -47 -93q-76 -16 -217 46
q-70 36 -166 51q-53 0 -57 -31q8 -31 38 -62h-145l-23 19q-32 77 2 121q89 66 260 14q194 -82 189 21q-10 13 -23 29h118l20 -14q37 -48 51 -101z" />
    <glyph glyph-name="utilde" unicode="&#x169;" horiz-adv-x="666" 
d="M510 391q-108 -168 -201 -160l-64 6q-87 8 -181 203q-67 204 -56 326l1 14q5 50 105 41l109 25l7 -7l-15 -156q-12 -135 89 -280l20 -9q40 38 80 164l13 142q13 138 -43 311l1 14q32 69 170 57l56 -6q32 -37 9 -272t-100 -413zM575 1376q26 -84 -47 -93q-76 -16 -217 46
q-70 36 -166 51q-53 0 -57 -31q8 -31 38 -62h-145l-23 19q-32 77 2 121q89 66 260 14q194 -82 189 21q-10 13 -23 29h118l20 -14q37 -48 51 -101z" />
    <glyph glyph-name="Ubreve" unicode="&#x16c;" horiz-adv-x="666" 
d="M510 391q-108 -168 -201 -160l-64 6q-87 8 -181 203q-67 204 -56 326l1 14q5 50 105 41l109 25l7 -7l-15 -156q-12 -135 89 -280l20 -9q40 38 80 164l13 142q13 138 -43 311l1 14q32 69 170 57l56 -6q32 -37 9 -272t-100 -413zM340 1364q52 49 -23 197l172 -1l30 -20
q72 -216 -128 -272q-321 -29 -367 281l167 1q79 -230 149 -186z" />
    <glyph glyph-name="ubreve" unicode="&#x16d;" horiz-adv-x="666" 
d="M510 391q-108 -168 -201 -160l-64 6q-87 8 -181 203q-67 204 -56 326l1 14q5 50 105 41l109 25l7 -7l-15 -156q-12 -135 89 -280l20 -9q40 38 80 164l13 142q13 138 -43 311l1 14q32 69 170 57l56 -6q32 -37 9 -272t-100 -413zM340 1364q52 49 -23 197l172 -1l30 -20
q72 -216 -128 -272q-321 -29 -367 281l167 1q79 -230 149 -186z" />
    <glyph glyph-name="Uring" unicode="&#x16e;" horiz-adv-x="666" 
d="M510 391q-108 -168 -201 -160l-64 6q-87 8 -181 203q-67 204 -56 326l1 14q5 50 105 41l109 25l7 -7l-15 -156q-12 -135 89 -280l20 -9q40 38 80 164l13 142q13 138 -43 311l1 14q32 69 170 57l56 -6q32 -37 9 -272t-100 -413zM367 1249q-81 -22 -137 -3q-98 34 -116 181
q-4 36 14 86q23 67 105 106l5 -3q70 -62 59 -95l-57 -74q1 -109 72 -125q45 -5 57 92q-14 107 -99 202q-61 43 -57 53q2 7 147 2l9 -2q119 -115 116 -229l-2 -42l-6 1q-7 -111 -106 -152z" />
    <glyph glyph-name="uring" unicode="&#x16f;" horiz-adv-x="666" 
d="M510 391q-108 -168 -201 -160l-64 6q-87 8 -181 203q-67 204 -56 326l1 14q5 50 105 41l109 25l7 -7l-15 -156q-12 -135 89 -280l20 -9q40 38 80 164l13 142q13 138 -43 311l1 14q32 69 170 57l56 -6q32 -37 9 -272t-100 -413zM367 1249q-82 -22 -137 -3q-98 34 -117 181
q-3 36 15 86q23 67 105 106l4 -3q71 -62 60 -95l-57 -74q1 -109 71 -125q46 -5 57 92q-13 107 -98 202q-61 43 -58 53q3 7 147 2l10 -2q119 -115 116 -229l-2 -42l-6 1q-7 -111 -106 -152z" />
    <glyph glyph-name="Uhungarumlaut" unicode="&#x170;" horiz-adv-x="666" 
d="M510 391q-108 -168 -201 -160l-64 6q-87 8 -181 203q-67 204 -56 326l1 14q5 50 105 41l109 25l7 -7l-15 -156q-12 -135 89 -280l20 -9q40 38 80 164l13 142q13 138 -43 311l1 14q32 69 170 57l56 -6q32 -37 9 -272t-100 -413zM471 1643l2 -5q-232 -283 -285 -374
q-31 -20 -93 55q8 6 -2 27q72 199 187 274l63 41q71 9 128 -18zM724 1639l3 -6q-233 -282 -285 -373q-31 -21 -94 54q9 6 -1 28q72 199 186 274l64 40q70 9 127 -17z" />
    <glyph glyph-name="uhungarumlaut" unicode="&#x171;" horiz-adv-x="666" 
d="M510 391q-108 -168 -201 -160l-64 6q-87 8 -181 203q-67 204 -56 326l1 14q5 50 105 41l109 25l7 -7l-15 -156q-12 -135 89 -280l20 -9q40 38 80 164l13 142q13 138 -43 311l1 14q32 69 170 57l56 -6q32 -37 9 -272t-100 -413zM471 1643l2 -5q-232 -283 -284 -374
q-32 -20 -94 55q9 6 -2 27q72 199 187 274l63 41q71 9 128 -18zM724 1639l3 -6q-232 -282 -285 -373q-31 -21 -94 54q9 6 -1 28q72 199 187 274l63 40q71 9 127 -17z" />
    <glyph glyph-name="Uogonek" unicode="&#x172;" horiz-adv-x="666" 
d="M510 391q-108 -168 -201 -160l-64 6q-87 8 -181 203q-67 204 -56 326l1 14q5 50 105 41l109 25l7 -7l-15 -156q-12 -135 89 -280l20 -9q40 38 80 164l13 142q13 138 -43 311l1 14q32 69 170 57l56 -6q32 -37 9 -272t-100 -413zM94 337q1 -75 58 -155l60 -34q71 21 61 75
l1 15q163 -6 162 -21l5 -7v-7l-6 1l5 -8q-53 -163 -155 -164l-140 4q-172 -1 -255 301h204z" />
    <glyph glyph-name="uogonek" unicode="&#x173;" horiz-adv-x="666" 
d="M510 391q-108 -168 -201 -160l-64 6q-87 8 -181 203q-67 204 -56 326l1 14q5 50 105 41l109 25l7 -7l-15 -156q-12 -135 89 -280l20 -9q40 38 80 164l13 142q13 138 -43 311l1 14q32 69 170 57l56 -6q32 -37 9 -272t-100 -413zM94 337q1 -76 58 -155l60 -34q71 21 61 75
l1 15q163 -6 162 -21l5 -7v-7l-6 1l5 -8q-53 -163 -155 -164l-140 4q-172 -1 -255 301h204z" />
    <glyph glyph-name="Wcircumflex" unicode="&#x174;" horiz-adv-x="1201" 
d="M1019 1199q171 -294 145 -541l-1 -7l7 -8l-8 -6l-5 -41q-21 -197 -106 -346l-77 8l-6 8h-7l-1 -7l-6 8l-196 7l-178 299q-11 -110 -164 -297q-51 -51 -165 -38q-161 17 -226 374q-17 110 -14 205l221 32l6 -7l-2 -22l-14 -61l5 -21l-7 -6l-1 -8q16 -268 61 -272
q-2 -22 36 -53q76 114 89 235l5 49q16 147 -42 327l2 13q40 59 145 48l98 -4l137 -351q90 -201 121 -244l12 -16q28 68 60 226l-6 22l8 5q9 155 -85 381l-60 98l1 6zM328 1700l19 -3q55 15 137 6l75 6q30 -30 113 -217l105 -171q-6 -68 -144 -50q-89 117 -135 249l-11 -12
v-23l-18 -211l-177 -7q55 142 44 311z" />
    <glyph glyph-name="wcircumflex" unicode="&#x175;" horiz-adv-x="1201" 
d="M1019 1199q171 -294 145 -541l-1 -7l7 -8l-8 -6l-5 -41q-21 -197 -106 -346l-77 8l-6 8h-7l-1 -7l-6 8l-196 7l-178 299q-11 -110 -164 -297q-51 -51 -165 -38q-161 17 -226 374q-17 110 -14 205l221 32l6 -7l-2 -22l-14 -61l5 -21l-7 -6l-1 -8q16 -268 61 -272
q-2 -22 36 -53q76 114 89 235l5 49q16 147 -42 327l2 13q40 59 145 48l98 -4l137 -351q90 -201 121 -244l12 -16q28 68 60 226l-6 22l8 5q9 155 -85 381l-60 98l1 6zM328 1700l19 -3q55 15 137 6l75 6q30 -30 113 -217l105 -171q-6 -68 -144 -50q-89 117 -135 249l-11 -12
v-23l-18 -211l-177 -7q55 142 44 311z" />
    <glyph glyph-name="Ycircumflex" unicode="&#x176;" horiz-adv-x="617" 
d="M388 273l4 -7q27 -164 79 -255l-17 -40l-184 30l-37 160l-35 226q-40 39 -82 104q-77 178 -100 413t9 272l56 6q138 12 170 -57l1 -14q-56 -173 -43 -311l13 -142q40 -126 80 -164l20 9q101 145 89 280l-15 156l7 7l109 -25q100 9 105 -41l1 -14q11 -122 -56 -326
q-94 -194 -180 -203q3 -27 6 -64zM124 1705l19 -3q55 15 137 6l75 6q30 -30 113 -217l105 -171q-6 -68 -144 -50q-89 117 -135 249l-11 -12v-23l-18 -211l-177 -7q55 142 44 311z" />
    <glyph glyph-name="ycircumflex" unicode="&#x177;" horiz-adv-x="617" 
d="M388 273l4 -7q27 -164 79 -255l-17 -40l-184 30l-37 160l-35 226q-40 39 -82 104q-77 178 -100 413t9 272l56 6q138 12 170 -57l1 -14q-56 -173 -43 -311l13 -142q40 -126 80 -164l20 9q101 145 89 280l-15 156l7 7l109 -25q100 9 105 -41l1 -14q11 -122 -56 -326
q-94 -194 -180 -203q3 -27 6 -64zM124 1705l19 -3q55 15 137 6l75 6q30 -30 113 -217l105 -171q-6 -68 -144 -50q-89 117 -135 249l-11 -12v-23l-18 -211l-177 -7q55 142 44 311z" />
    <glyph glyph-name="Ydieresis" unicode="&#x178;" horiz-adv-x="617" 
d="M388 273l4 -7q27 -164 79 -255l-17 -40l-184 30l-37 160l-35 226q-40 39 -82 104q-77 178 -100 413t9 272l56 6q138 12 170 -57l1 -14q-56 -173 -43 -311l13 -142q40 -126 80 -164l20 9q101 145 89 280l-15 156l7 7l109 -25q100 9 105 -41l1 -14q11 -122 -56 -326
q-94 -194 -180 -203q3 -27 6 -64zM263 1255q-148 -18 -167 106q-31 100 80 107l45 -4q75 18 105 -104q9 -92 -63 -105zM568 1247q-148 -18 -167 106q-31 100 80 107l45 -4q75 18 105 -104q9 -92 -63 -105z" />
    <glyph glyph-name="Zacute" unicode="&#x179;" horiz-adv-x="926" 
d="M781 706q120 7 153 19l15 4l12 -1q19 -31 -84 -145l-11 -6q-114 -2 -216 -4q-108 -104 -279 -272l-43 -37q222 16 500 14q3 42 -86 177l21 24l46 -1q109 19 168 -20q112 -325 53 -325q-600 48 -1008 -4l-33 80q-29 52 140 164q144 102 272 216l-81 9h-29l77 87l20 13
l120 3q39 41 189 207l-83 2q-376 20 -558 85q-14 0 -35 140h6q247 -51 445 -72l322 -4l159 6l29 -34v-79q-139 -181 -201 -246zM335 703l-79 -88l-23 -15l-18 2q-54 7 23 88l21 14l26 -2zM894 1421v-7q-392 -169 -493 -235q-45 -5 -81 103q13 2 11 29q173 166 337 184l90 9
q84 -27 136 -83z" />
    <glyph glyph-name="zacute" unicode="&#x17a;" horiz-adv-x="926" 
d="M720 706q120 7 153 19l15 4l12 -1q19 -31 -84 -145l-11 -6q-114 -2 -216 -4q-108 -104 -240 -220l-13 -24q158 -18 414 1q3 42 -69 125l21 24l46 -1q109 19 168 -20q112 -325 53 -325q-600 48 -901 1l-39 32q4 54 -19 116q-29 52 58 91q144 102 272 216l-81 9h-29l77 87
l20 13l120 3q39 41 75 83q41 53 46 68v13l-83 2q-308 20 -490 85q-14 0 -35 183h6q247 -51 445 -72l322 -4l65 -7l25 -36q-8 -39 -5 -130l-4 -58q-32 -57 -94 -122zM274 703l-79 -88l-23 -15l-18 2q-54 7 23 88l21 14l26 -2zM889 1421v-7q-392 -169 -493 -235
q-45 -5 -81 103q13 2 11 29q173 166 337 184l90 9q84 -27 136 -83z" />
    <glyph glyph-name="Zdotaccent" unicode="&#x17b;" horiz-adv-x="926" 
d="M781 706q120 7 153 19l15 4l12 -1q19 -31 -84 -145l-11 -6q-114 -2 -216 -4q-108 -104 -279 -272l-43 -37q222 16 500 14q3 42 -86 177l21 24l46 -1q109 19 168 -20q112 -325 53 -325q-600 48 -1008 -4l-33 80q-29 52 140 164q144 102 272 216l-81 9h-29l77 87l20 13
l120 3q39 41 189 207l-83 2q-376 20 -558 85q-14 0 -35 140h6q247 -51 445 -72l322 -4l159 6l29 -34v-79q-139 -181 -201 -246zM335 703l-79 -88l-23 -15l-18 2q-54 7 23 88l21 14l26 -2zM531 1204q-148 -18 -167 106q-31 100 80 107l45 -4q75 18 105 -104q9 -92 -63 -105z
" />
    <glyph glyph-name="zdotaccent" unicode="&#x17c;" horiz-adv-x="926" 
d="M720 706q120 7 153 19l15 4l12 -1q19 -31 -84 -145l-11 -6q-114 -2 -216 -4q-108 -104 -240 -220l-13 -24q158 -18 414 1q3 42 -69 125l21 24l46 -1q109 19 168 -20q112 -325 53 -325q-600 48 -901 1l-39 32q4 54 -19 116q-29 52 58 91q144 102 272 216l-81 9h-29l77 87
l20 13l120 3q39 41 75 83q41 53 46 68v13l-83 2q-308 20 -490 85q-14 0 -35 183h6q247 -51 445 -72l322 -4l65 -7l25 -36q-8 -39 -5 -130l-4 -58q-32 -57 -94 -122zM274 703l-79 -88l-23 -15l-18 2q-54 7 23 88l21 14l26 -2zM526 1204q-148 -18 -167 106q-31 100 80 107
l45 -4q75 18 105 -104q9 -92 -63 -105z" />
    <glyph glyph-name="Zcaron" unicode="&#x17d;" horiz-adv-x="926" 
d="M781 706q120 7 153 19l15 4l12 -1q19 -31 -84 -145l-11 -6q-114 -2 -216 -4q-108 -104 -279 -272l-43 -37q222 16 500 14q3 42 -86 177l21 24l46 -1q109 19 168 -20q112 -325 53 -325q-600 48 -1008 -4l-33 80q-29 52 140 164q144 102 272 216l-81 9h-29l77 87l20 13
l120 3q39 41 189 207l-83 2q-376 20 -558 85q-14 0 -35 140h6q247 -51 445 -72l322 -4l159 6l29 -34v-79q-139 -181 -201 -246zM335 703l-79 -88l-23 -15l-18 2q-54 7 23 88l21 14l26 -2zM653 1175l-19 3q-55 -15 -137 -6l-75 -6q-30 30 -113 217l-105 172q6 67 144 49
q89 -117 135 -249l11 12v23l18 211l177 7q-55 -142 -44 -311z" />
    <glyph glyph-name="zcaron" unicode="&#x17e;" horiz-adv-x="926" 
d="M720 706q120 7 153 19l15 4l12 -1q19 -31 -84 -145l-11 -6q-114 -2 -216 -4q-108 -104 -240 -220l-13 -24q158 -18 414 1q3 42 -69 125l21 24l46 -1q109 19 168 -20q112 -325 53 -325q-600 48 -901 1l-39 32q4 54 -19 116q-29 52 58 91q144 102 272 216l-81 9h-29l77 87
l20 13l120 3q39 41 75 83q41 53 46 68v13l-83 2q-308 20 -490 85q-14 0 -35 183h6q247 -51 445 -72l322 -4l65 -7l25 -36q-8 -39 -5 -130l-4 -58q-32 -57 -94 -122zM274 703l-79 -88l-23 -15l-18 2q-54 7 23 88l21 14l26 -2zM648 1175l-19 3q-55 -15 -137 -6l-75 -6
q-30 30 -113 217l-105 172q6 67 144 49q89 -117 135 -249l11 12v23l18 211l177 7q-55 -142 -44 -311z" />
    <glyph glyph-name="uni01CD" unicode="&#x1cd;" horiz-adv-x="844" 
d="M201 1112q78 -44 183 -55v6l7 -6l7 -1l111 -5q110 -249 322 -533l120 -118q197 -139 264 -147l-1 -14q-58 6 -220 -25q-159 38 -356 214q-137 159 -228 353q-55 72 -53 90l-14 1l-8 -76l-32 -171l119 1l6 -1q52 -6 109 -95l7 -2l-2 -27q-294 7 -304 -87l-71 -146l17 -30
l-10 -20l-81 16l-8 1l-237 11l2 14q97 102 157 221l-5 92l59 21l89 299h-7l7 7l18 166l-4 36zM498 1225l-19 3q-55 -15 -137 -6l-75 -6q-30 30 -113 217l-105 172q6 67 144 49q89 -117 135 -249l11 12v23l18 211l177 7q-55 -142 -44 -311z" />
    <glyph glyph-name="uni01CE" unicode="&#x1ce;" horiz-adv-x="844" 
d="M201 1112q78 -44 183 -55v6l7 -6l7 -1l111 -5q110 -249 322 -533l120 -118q197 -139 264 -147l-1 -14q-58 6 -220 -25q-159 38 -356 214q-137 159 -228 353q-55 72 -53 90l-14 1l-8 -76l-32 -171l119 1l6 -1q52 -6 109 -95l7 -2l-2 -27q-294 7 -304 -87l-71 -146l17 -30
l-10 -20l-81 16l-8 1l-237 11l2 14q97 102 157 221l-5 92l59 21l89 299h-7l7 7l18 166l-4 36zM498 1225l-19 3q-55 -15 -137 -6l-75 -6q-30 30 -113 217l-105 172q6 67 144 49q89 -117 135 -249l11 12v23l18 211l177 7q-55 -142 -44 -311z" />
    <glyph glyph-name="uni01CF" unicode="&#x1cf;" horiz-adv-x="396" 
d="M240 710q3 -145 15 -258l32 -101l13 3l-3 13l196 18v-6q-39 -77 -51 -157l-34 -6q-61 -10 -169 -85q-67 -11 -154 200l-32 108l6 8l-14 32l-2 14l7 8l-8 6l-17 132l-1 7l-1 132l238 49zM314 968l-19 3q-55 -15 -137 -6l-75 -6q-30 30 -113 217l-105 172q6 67 144 49
q89 -117 135 -249l11 12v23l18 211l177 7q-55 -142 -44 -311z" />
    <glyph glyph-name="uni01D0" unicode="&#x1d0;" horiz-adv-x="396" 
d="M240 710q3 -145 15 -258l32 -101l13 3l-3 13l196 18v-6q-39 -77 -51 -157l-34 -6q-61 -10 -169 -85q-67 -11 -154 200l-32 108l6 8l-14 32l-2 14l7 8l-8 6l-17 132l-1 7l-1 132l238 49zM314 968l-19 3q-55 -15 -137 -6l-75 -6q-30 30 -113 217l-105 172q6 67 144 49
q89 -117 135 -249l11 12v23l18 211l177 7q-55 -142 -44 -311z" />
    <glyph glyph-name="uni01D1" unicode="&#x1d1;" 
d="M220 345q-141 15 -209 205q-16 48 -8 119q11 97 109 172l7 -2q112 -62 108 -109l-55 -114q-10 -98 88 -163q57 26 43 136q-41 178 -141 260q-94 38 -92 52q1 11 194 48l14 -1q192 -116 223 -268l8 -57h-7q13 -138 -95 -235q-83 -64 -187 -43zM121 987l42 -5l6 -8l8 6
l20 -2l7 -7l7 -1l7 5l6 -6l-1 -7l-179 -44l-49 12l-54 6l1 13zM385 1161l-19 3q-55 -15 -137 -6l-75 -6q-30 30 -113 217l-105 172q6 67 144 49q89 -117 135 -249l11 12v23l18 211l177 7q-55 -142 -44 -311z" />
    <glyph glyph-name="uni01D2" unicode="&#x1d2;" 
d="M220 345q-141 15 -209 205q-16 48 -8 119q11 97 109 172l7 -2q112 -62 108 -109l-55 -114q-10 -98 88 -163q57 26 43 136q-41 178 -141 260q-94 38 -92 52q1 11 194 48l14 -1q192 -116 223 -268l8 -57h-7q13 -138 -95 -235q-83 -64 -187 -43zM121 987l42 -5l6 -8l8 6
l20 -2l7 -7l7 -1l7 5l6 -6l-1 -7l-179 -44l-49 12l-54 6l1 13zM385 1161l-19 3q-55 -15 -137 -6l-75 -6q-30 30 -113 217l-105 172q6 67 144 49q89 -117 135 -249l11 12v23l18 211l177 7q-55 -142 -44 -311z" />
    <glyph glyph-name="uni01D3" unicode="&#x1d3;" horiz-adv-x="666" 
d="M510 391q-108 -168 -201 -160l-64 6q-87 8 -181 203q-67 204 -56 326l1 14q5 50 105 41l109 25l7 -7l-15 -156q-12 -135 89 -280l20 -9q40 38 80 164l13 142q13 138 -43 311l1 14q32 69 170 57l56 -6q32 -37 9 -272t-100 -413zM450 1188l-19 3q-55 -15 -137 -6l-75 -6
q-30 30 -113 217l-105 172q6 67 144 49q89 -117 135 -249l11 12v23l18 211l177 7q-55 -142 -44 -311z" />
    <glyph glyph-name="uni01D4" unicode="&#x1d4;" horiz-adv-x="666" 
d="M510 391q-108 -168 -201 -160l-64 6q-87 8 -181 203q-67 204 -56 326l1 14q5 50 105 41l109 25l7 -7l-15 -156q-12 -135 89 -280l20 -9q40 38 80 164l13 142q13 138 -43 311l1 14q32 69 170 57l56 -6q32 -37 9 -272t-100 -413zM450 1188l-19 3q-55 -15 -137 -6l-75 -6
q-30 30 -113 217l-105 172q6 67 144 49q89 -117 135 -249l11 12v23l18 211l177 7q-55 -142 -44 -311z" />
    <glyph glyph-name="Gcaron" unicode="&#x1e6;" horiz-adv-x="965" 
d="M845 1033l-113 -20q-226 53 -226 82v10h72q72 0 267 -72zM301 231q-310 113 -310 391q0 283 391 453q80 0 278 -94v-9q-246 -46 -348 -170t-98 -266q12 -71 63.5 -121.5t165.5 -55.5q55 -3 84 13q84 32 152 84q53 55 62 109h-126q-143 -4 -165 90q0 18 51 137l14 -9
q0 -110 164 -110q74 0 237 46h18q19 0 37 -142q-20 0 -45 -27l-72 -141q-176 -251 -553 -178zM646 1230l-19 3q-55 -15 -137 -6l-75 -6q-30 30 -113 217l-105 172q6 67 144 49q89 -117 135 -249l11 12v23l18 211l177 7q-55 -142 -44 -311z" />
    <glyph glyph-name="gcaron" unicode="&#x1e7;" horiz-adv-x="965" 
d="M845 1033l-113 -20q-226 53 -226 82v10h72q72 0 267 -72zM301 231q-310 113 -310 391q0 283 391 453q80 0 278 -94v-9q-246 -46 -348 -170t-98 -266q12 -71 63.5 -121.5t165.5 -55.5q55 -3 84 13q84 32 152 84q53 55 62 109h-126q-143 -4 -165 90q0 18 51 137l14 -9
q0 -110 164 -110q74 0 237 46h18q19 0 37 -142q-20 0 -45 -27l-72 -141q-176 -251 -553 -178zM646 1230l-19 3q-55 -15 -137 -6l-75 -6q-30 30 -113 217l-105 172q6 67 144 49q89 -117 135 -249l11 12v23l18 211l177 7q-55 -142 -44 -311z" />
    <glyph glyph-name="uni01E8" unicode="&#x1e8;" horiz-adv-x="714" 
d="M324 436l2 -57v-126l-60 -2l-7 -2l-8 7q-87 -24 -121 -48v6l-8 7l-12 104l4 36l-8 5l2 42v8l-8 6l5 21q-6 60 -13 117l-50 336q-20 104 -43 194q-51 258 -107 325l-1 6l79 -5q153 9 157 -39q104 -287 152 -542v4q193 176 254 221q52 -13 122 -96q-3 -29 -3 -61
q-138 -89 -282 -215q69 -109 187 -252q129 -160 236 -255q-3 -31 -16 -63l-223 4q-87 132 -230 314zM544 1341l-19 3q-55 -15 -137 -6l-75 -6q-30 30 -113 217l-105 172q6 67 144 49q89 -117 135 -249l11 12v23l18 211l177 7q-55 -142 -44 -311z" />
    <glyph glyph-name="uni01E9" unicode="&#x1e9;" horiz-adv-x="714" 
d="M324 436l2 -57v-126l-60 -2l-7 -2l-8 7q-87 -24 -121 -48v6l-8 7l-12 104l4 36l-8 5l2 42v8l-8 6l5 21q-6 60 -13 117l-50 336q-20 104 -43 194q-51 258 -107 325l-1 6l79 -5q153 9 157 -39q104 -287 152 -542v4q193 176 254 221q52 -13 122 -96q-3 -29 -3 -61
q-138 -89 -282 -215q69 -109 187 -252q129 -160 236 -255q-3 -31 -16 -63l-223 4q-87 132 -230 314zM544 1341l-19 3q-55 -15 -137 -6l-75 -6q-30 30 -113 217l-105 172q6 67 144 49q89 -117 135 -249l11 12v23l18 211l177 7q-55 -142 -44 -311z" />
    <glyph glyph-name="uni01EA" unicode="&#x1ea;" 
d="M219 345q-141 15 -209 205q-16 48 -8 119q11 97 109 172l7 -2q112 -62 108 -109l-55 -114q-10 -98 88 -163q57 26 43 136q-41 178 -141 260q-94 38 -92 52q1 11 194 48l14 -1q192 -116 223 -268l8 -57h-7q13 -138 -95 -235q-83 -64 -187 -43zM120 987l42 -5l6 -8l8 6
l20 -2l7 -7l7 -1l7 5l6 -6l-1 -7l-179 -44l-49 12l-54 6l1 13zM19 452q1 -75 58 -155l60 -34q71 21 61 75l1 15q163 -6 162 -21l5 -7v-7l-6 1l5 -8q-53 -163 -155 -164l-140 4q-172 -1 -255 301h204z" />
    <glyph glyph-name="uni01EB" unicode="&#x1eb;" 
d="M219 345q-141 15 -209 205q-16 48 -8 119q11 97 109 172l7 -2q112 -62 108 -109l-55 -114q-10 -98 88 -163q57 26 43 136q-41 178 -141 260q-94 38 -92 52q1 11 194 48l14 -1q192 -116 223 -268l8 -57h-7q13 -138 -95 -235q-83 -64 -187 -43zM120 987l42 -5l6 -8l8 6
l20 -2l7 -7l7 -1l7 5l6 -6l-1 -7l-179 -44l-49 12l-54 6l1 13zM19 452q1 -75 58 -155l60 -34q71 21 61 75l1 15q163 -6 162 -21l5 -7v-7l-6 1l5 -8q-53 -163 -155 -164l-140 4q-172 -1 -255 301h204z" />
    <glyph glyph-name="uni01F4" unicode="&#x1f4;" horiz-adv-x="965" 
d="M845 1033l-113 -20q-226 53 -226 82v10h72q72 0 267 -72zM301 231q-310 113 -310 391q0 283 391 453q80 0 278 -94v-9q-246 -46 -348 -170t-98 -266q12 -71 63.5 -121.5t165.5 -55.5q55 -3 84 13q84 32 152 84q53 55 62 109h-126q-143 -4 -165 90q0 18 51 137l14 -9
q0 -110 164 -110q74 0 237 46h18q19 0 37 -142q-20 0 -45 -27l-72 -141q-176 -251 -553 -178zM993 1463v-7q-392 -169 -493 -235q-45 -5 -81 103q13 2 11 29q173 166 337 184l90 9q84 -27 136 -83z" />
    <glyph glyph-name="uni01F5" unicode="&#x1f5;" horiz-adv-x="965" 
d="M845 1033l-113 -20q-226 53 -226 82v10h72q72 0 267 -72zM301 231q-310 113 -310 391q0 283 391 453q80 0 278 -94v-9q-246 -46 -348 -170t-98 -266q12 -71 63.5 -121.5t165.5 -55.5q55 -3 84 13q84 32 152 84q53 55 62 109h-126q-143 -4 -165 90q0 18 51 137l14 -9
q0 -110 164 -110q74 0 237 46h18q19 0 37 -142q-20 0 -45 -27l-72 -141q-176 -251 -553 -178zM993 1463v-7q-392 -169 -493 -235q-45 -5 -81 103q13 2 11 29q173 166 337 184l90 9q84 -27 136 -83z" />
    <glyph glyph-name="uni01F8" unicode="&#x1f8;" horiz-adv-x="1026" 
d="M931 435l5 -21l-8 -6v-8l2 -42l-8 -5l4 -36l-12 -104l-8 -7v-6q-34 24 -121 48l-8 -7l-7 2l-61 13l-8 -7l1 8l-85 -5q-179 327 -387 434l-7 1l-1 -7q72 -45 71 -57l-2 -21q-13 -113 -75 -237l-7 1q-124 98 -146 142l-4 21l7 6q12 101 -85 317l-103 151q218 5 220 19
q323 -168 509 -405l99 -130l7 -1l1 8l-3 42l7 6l1 7l-3 36l10 26l-7 1l9 21q37 337 268 727q4 48 157 39l79 5l-1 -6q-56 -67 -152 -313l-42 -128q-43 -139 -106 -522zM230 1358l90 -9q164 -18 337 -184q-2 -27 11 -29q-36 -108 -81 -103q-101 66 -493 235v7q52 56 136 83z
" />
    <glyph glyph-name="uni01F9" unicode="&#x1f9;" horiz-adv-x="1026" 
d="M931 435l5 -21l-8 -6v-8l2 -42l-8 -5l4 -36l-12 -104l-8 -7v-6q-34 24 -121 48l-8 -7l-7 2l-61 13l-8 -7l1 8l-85 -5q-179 327 -387 434l-7 1l-1 -7q72 -45 71 -57l-2 -21q-13 -113 -75 -237l-7 1q-124 98 -146 142l-4 21l7 6q12 101 -85 317l-103 151q218 5 220 19
q323 -168 509 -405l99 -130l7 -1l1 8l-3 42l7 6l1 7l-3 36l10 26l-7 1l9 21q37 337 268 727q4 48 157 39l79 5l-1 -6q-56 -67 -152 -313l-42 -128q-43 -139 -106 -522zM230 1358l90 -9q164 -18 337 -184q-2 -27 11 -29q-36 -108 -81 -103q-101 66 -493 235v7q52 56 136 83z
" />
    <glyph glyph-name="uni021E" unicode="&#x21e;" horiz-adv-x="674" 
d="M277 640q11 -47 18 -128l18 -269l-35 -46l-135 2q-9 268 -34 449l-28 158q-65 248 -134 350l1 27q35 75 118 71q63 -3 97 -149q40 -65 87 -290l5 -32q163 59 181 64q168 -67 162 -99q-14 -312 90 -571q91 -188 316 -324l-1 -7l-9 -6l-5 9l-58 -6l-27 4l-107 7
q-138 26 -260 260q-89 156 -104 509l-47 40q-63 0 -109 -23zM470 1239l-19 3q-55 -15 -137 -6l-75 -6q-30 30 -113 217l-105 172q6 67 144 49q89 -117 135 -249l11 12v23l18 211l177 7q-55 -142 -44 -311z" />
    <glyph glyph-name="uni021F" unicode="&#x21f;" horiz-adv-x="674" 
d="M277 640q11 -47 18 -128l18 -269l-35 -46l-135 2q-9 268 -34 449l-28 158q-65 248 -134 350l1 27q35 75 118 71q63 -3 97 -149q40 -65 87 -290l5 -32q163 59 181 64q168 -67 162 -99q-14 -312 90 -571q91 -188 316 -324l-1 -7l-9 -6l-5 9l-58 -6l-27 4l-107 7
q-138 26 -260 260q-89 156 -104 509l-47 40q-63 0 -109 -23zM470 1239l-19 3q-55 -15 -137 -6l-75 -6q-30 30 -113 217l-105 172q6 67 144 49q89 -117 135 -249l11 12v23l18 211l177 7q-55 -142 -44 -311z" />
    <glyph glyph-name="uni0226" unicode="&#x226;" horiz-adv-x="844" 
d="M201 1112q78 -44 183 -55v6l7 -6l7 -1l111 -5q110 -249 322 -533l120 -118q197 -139 264 -147l-1 -14q-58 6 -220 -25q-159 38 -356 214q-137 159 -228 353q-55 72 -53 90l-14 1l-8 -76l-32 -171l119 1l6 -1q52 -6 109 -95l7 -2l-2 -27q-294 7 -304 -87l-71 -146l17 -30
l-10 -20l-81 16l-8 1l-237 11l2 14q97 102 157 221l-5 92l59 21l89 299h-7l7 7l18 166l-4 36zM406 1219q-148 -18 -167 106q-31 100 80 107l45 -4q75 18 105 -104q9 -92 -63 -105z" />
    <glyph glyph-name="uni0227" unicode="&#x227;" horiz-adv-x="844" 
d="M201 1112q78 -44 183 -55v6l7 -6l7 -1l111 -5q110 -249 322 -533l120 -118q197 -139 264 -147l-1 -14q-58 6 -220 -25q-159 38 -356 214q-137 159 -228 353q-55 72 -53 90l-14 1l-8 -76l-32 -171l119 1l6 -1q52 -6 109 -95l7 -2l-2 -27q-294 7 -304 -87l-71 -146l17 -30
l-10 -20l-81 16l-8 1l-237 11l2 14q97 102 157 221l-5 92l59 21l89 299h-7l7 7l18 166l-4 36zM406 1219q-148 -18 -167 106q-31 100 80 107l45 -4q75 18 105 -104q9 -92 -63 -105z" />
    <glyph glyph-name="uni0228" unicode="&#x228;" horiz-adv-x="917" 
d="M1069 533q-348 -46 -621 -241l-101 -87l-181 19q-13 1 -11 23l8 5q16 258 -35 263l-58 48l1 8q1 10 59 28l1 14q3 21 -55 139l-71 -7l-10 37l8 5l1 8l-1 63l1 6l16 13l6 -8q115 -13 457 77q299 105 331 154l71 -120l-1 -14q-278 -166 -638 -197l-1 -15l46 -88l14 -2
q360 130 441 121l68 -77v-7q-7 -11 -209 -47l-282 -83q7 -59 34 -136q231 138 638 197l113 16q71 -17 54 -100l-54 -12zM152 -86l-9 1q14 53 -6 110v5q-3 27 -7 38l1 14q6 53 136 65q53 -100 22 -180q151 6 169 48q-160 75 -148 250q33 3 75 3q67 -7 79 -55
q29 -101 109 -112q110 -30 134 -112q-12 -103 -273 -113l-108 1l-172 30q-1 4 -2 7z" />
    <glyph glyph-name="uni0229" unicode="&#x229;" horiz-adv-x="917" 
d="M1069 533q-348 -46 -621 -241l-101 -87l-181 19q-13 1 -11 23l8 5q16 258 -35 263l-58 48l1 8q1 10 59 28l1 14q3 21 -55 139l-71 -7l-10 37l8 5l1 8l-1 63l1 6l16 13l6 -8q115 -13 457 77q299 105 331 154l71 -120l-1 -14q-278 -166 -638 -197l-1 -15l46 -88l14 -2
q360 130 441 121l68 -77v-7q-7 -11 -209 -47l-282 -83q7 -59 34 -136q231 138 638 197l113 16q71 -17 54 -100l-54 -12zM152 -86l-9 1q14 53 -6 110v5q-3 27 -7 38l1 14q6 53 136 65q53 -100 21 -180q152 6 170 48q-160 75 -148 250q33 3 75 3q67 -7 79 -55
q29 -101 109 -112q110 -30 134 -112q-12 -103 -273 -113l-108 1l-172 30q-1 4 -2 7z" />
    <glyph glyph-name="uni022E" unicode="&#x22e;" 
d="M219 345q-141 15 -209 205q-16 48 -8 119q11 97 109 172l7 -2q112 -62 108 -109l-55 -114q-10 -98 88 -163q57 26 43 136q-41 178 -141 260q-94 38 -92 52q1 11 194 48l14 -1q192 -116 223 -268l8 -57h-7q13 -138 -95 -235q-83 -64 -187 -43zM120 987l42 -5l6 -8l8 6
l20 -2l7 -7l7 -1l7 5l6 -6l-1 -7l-179 -44l-49 12l-54 6l1 13zM260 1228q-148 -18 -167 106q-31 100 80 107l45 -4q75 18 105 -104q9 -92 -63 -105z" />
    <glyph glyph-name="uni022F" unicode="&#x22f;" 
d="M219 345q-141 15 -209 205q-16 48 -8 119q11 97 109 172l7 -2q112 -62 108 -109l-55 -114q-10 -98 88 -163q57 26 43 136q-41 178 -141 260q-94 38 -92 52q1 11 194 48l14 -1q192 -116 223 -268l8 -57h-7q13 -138 -95 -235q-83 -64 -187 -43zM120 987l42 -5l6 -8l8 6
l20 -2l7 -7l7 -1l7 5l6 -6l-1 -7l-179 -44l-49 12l-54 6l1 13zM260 1228q-148 -18 -167 106q-31 100 80 107l45 -4q75 18 105 -104q9 -92 -63 -105z" />
    <glyph glyph-name="circumflex" unicode="&#x2c6;" horiz-adv-x="584" 
d="M64 1464l19 -3q55 15 137 6l75 6q30 -30 113 -217l105 -171q-6 -68 -144 -50q-89 117 -135 249l-11 -12v-23l-18 -211l-177 -7q55 142 44 311z" />
    <glyph glyph-name="caron" unicode="&#x2c7;" horiz-adv-x="597" 
d="M477 1040l-19 3q-55 -15 -137 -6l-75 -6q-30 30 -113 217l-105 172q6 67 144 49q89 -117 135 -249l11 12v23l18 211l177 7q-55 -142 -44 -311z" />
    <glyph glyph-name="breve" unicode="&#x2d8;" horiz-adv-x="640" 
d="M370 1197q52 49 -23 197l172 -1l30 -20q72 -216 -128 -272q-321 -29 -367 281l167 1q79 -230 149 -186z" />
    <glyph glyph-name="dotaccent" unicode="&#x2d9;" horiz-adv-x="344" 
d="M220 1162q-148 -18 -167 106q-31 100 80 107l45 -4q75 18 105 -104q9 -92 -63 -105z" />
    <glyph glyph-name="ring" unicode="&#x2da;" horiz-adv-x="507" 
d="M297 1105q-81 -22 -137 -3q-98 34 -116 181q-4 36 14 86q23 67 105 106l5 -3q70 -62 59 -95l-57 -74q1 -109 72 -125q45 -5 57 92q-14 107 -99 202q-61 43 -57 53q2 7 147 2l9 -2q119 -115 116 -229l-2 -42l-6 1q-7 -111 -106 -152z" />
    <glyph glyph-name="ogonek" unicode="&#x2db;" horiz-adv-x="696" 
d="M289 -6q1 -75 58 -155l60 -34q71 21 61 75l1 15q163 -6 162 -21l5 -7v-7l-6 1l5 -8q-53 -163 -155 -164l-140 4q-172 -1 -255 301h204z" />
    <glyph glyph-name="tilde" unicode="&#x2dc;" horiz-adv-x="765" 
d="M680 1246q26 -84 -47 -93q-76 -16 -217 46q-70 36 -166 51q-53 0 -57 -31q8 -31 38 -62h-145l-23 19q-32 77 2 121q89 66 260 14q194 -82 189 21q-10 13 -23 29h118l20 -14q37 -48 51 -101z" />
    <glyph glyph-name="hungarumlaut" unicode="&#x2dd;" horiz-adv-x="713" 
d="M393 1416l2 -5q-232 -283 -285 -374q-31 -20 -93 55q8 6 -2 27q72 199 187 274l63 41q71 9 128 -18zM646 1412l3 -6q-233 -282 -285 -373q-31 -21 -94 54q9 6 -1 28q72 199 186 274l64 40q70 9 127 -17z" />
    <glyph glyph-name="quoteleft" unicode="&#x2018;" horiz-adv-x="629" 
d="M457 897q-276 240 -404 272q-245 125 -412 143l-10 28q102 102 219 88q199 -20 642 -310q154 -126 228 -272l-2 -19q-3 -26 -171 -46q-70 76 -90 116z" />
    <glyph glyph-name="quoteright" unicode="&#x2019;" horiz-adv-x="629" 
d="M457 897q-276 240 -404 272q-245 125 -412 143l-10 28q102 102 219 88q199 -20 642 -310q154 -126 228 -272l-2 -19q-3 -26 -171 -46q-70 76 -90 116z" />
    <glyph glyph-name="quotesinglbase" unicode="&#x201a;" horiz-adv-x="914" 
d="M678 125q-276 240 -404 272q-245 125 -412 143l-10 28q102 102 219 88q199 -20 642 -310q154 -126 228 -272l-2 -19q-3 -26 -171 -46q-70 76 -90 116z" />
    <glyph glyph-name="quotedblleft" unicode="&#x201c;" horiz-adv-x="629" 
d="M-127 1118l90 -9q164 -18 337 -184q-2 -27 11 -29q-36 -108 -81 -103q-101 66 -493 235v7q52 56 136 83zM457 897q-276 240 -404 272q-245 125 -412 143l-10 28q102 102 219 88q199 -20 642 -310q154 -126 228 -272l-2 -19q-3 -26 -171 -46q-70 76 -90 116z" />
    <glyph glyph-name="quotedblright" unicode="&#x201d;" horiz-adv-x="629" 
d="M-127 1118l90 -9q164 -18 337 -184q-2 -27 11 -29q-36 -108 -81 -103q-101 66 -493 235v7q52 56 136 83zM457 897q-276 240 -404 272q-245 125 -412 143l-10 28q102 102 219 88q199 -20 642 -310q154 -126 228 -272l-2 -19q-3 -26 -171 -46q-70 76 -90 116z" />
    <glyph glyph-name="quotedblbase" unicode="&#x201e;" horiz-adv-x="914" 
d="M678 125q-276 240 -404 272q-245 125 -412 143l-10 28q102 102 219 88q199 -20 642 -310q154 -126 228 -272l-2 -19q-3 -26 -171 -46q-70 76 -90 116zM76 347l90 -9q164 -18 337 -184q-2 -27 11 -29q-36 -108 -81 -103q-101 66 -493 235v7q52 56 136 83z" />
    <glyph glyph-name="fraction" unicode="&#x2044;" horiz-adv-x="702" 
d="M39 494l4 42l8 6l3 7l3 36l15 26l-7 1l13 21q100 337 404 727q13 48 164 39l80 5l-2 -6q-69 -67 -211 -313l-65 -128q-69 -139 -203 -522l1 -21l-9 -6l-2 -8l-6 -42l-9 -5l-2 -36l-11 -62l-9 -7l-1 -6q-30 24 -133 6l-10 -7l-6 2l-44 10q-3 109 35 241z" />
    <glyph glyph-name="fraction" unicode="&#x2215;" horiz-adv-x="702" 
d="M39 494l4 42l8 6l3 7l3 36l15 26l-7 1l13 21q100 337 404 727q13 48 164 39l80 5l-2 -6q-69 -67 -211 -313l-65 -128q-69 -139 -203 -522l1 -21l-9 -6l-2 -8l-6 -42l-9 -5l-2 -36l-11 -62l-9 -7l-1 -6q-30 24 -133 6l-10 -7l-6 2l-44 10q-3 109 35 241z" />
    <glyph glyph-name="Euro" unicode="&#x20ac;" horiz-adv-x="1041" 
d="M1060 1036l-110 -20q-220 52 -220 80v10h70q71 0 260 -70zM505 428q1 -1 2 -1q43 -32 139 -24t193 158q65 25 101 -155q-105 -179 -379 -179h-11l-99 31q-118 59 -173 163l-149 2l-29 -3l-11 1l-3 8l-42 -3l-32 16l-3 52q16 60 80 53q69 -3 109 -2h40q-7 43 -7 92
q0 13 1 25l-94 1l-29 -3l-11 1l-3 8l-42 -3l-32 16l-3 52q16 60 80 53q69 -3 109 -2q24 -1 55 0q77 174 348 291q78 0 270 -90v-10l-178 -62q-77 -47 -131 -96q77 15 141 31l-15 -153q-49 -24 -228 -30h-7q-19 -53 -14 -108q146 23 255 51l-15 -153q-43 -21 -183 -28z" />
    <glyph glyph-name="trademark" unicode="&#x2122;" horiz-adv-x="990" 
d="M100.251 1165.22l-15.75 1.59961l-3.60059 -2.7998l-3.14941 0.799805l0.450195 2.40039l-3.15039 -2l-46.8018 4h-28.3506q-9.90039 0.799805 -32.8506 45.2031l108.003 1.19922v2.40039l-22.0508 24.8018l0.900391 8.00098l111.152 6.40039
q10.3506 -0.800781 21.1504 -35.6025q162.005 12.4004 164.705 34.8018l3.59961 2l5.85059 -0.399414q34.2012 -20.8018 45.001 -71.6045l-0.450195 -2.80078q-88.2021 -10.7998 -203.405 -16.8008q16.2002 -74.4043 86.8525 -162.41l35.1006 -25.6016
q16.2012 30.8027 19.3506 54.0039l0.450195 6q73.3516 -18.4004 72.9023 -24.4014l2.25 -2.7998v-2.80078l-2.7002 0.400391l2.25 -3.2002q-19.3506 -57.2031 -56.252 -53.6035l-76.502 -6.40039q-42.751 16.8018 -96.3027 68.0049l-48.1514 69.2041
q-41.8506 68.8037 -40.501 82.0049zM-48.2529 1216.02l23.8506 -41.2021l-3.59961 -2.80078l-28.3506 2.80078l-22.0508 -1.2002l-20.7012 36.002l0.450195 5.2002zM-117.555 1216.82l21.1504 -35.2021l-0.450195 -6l-9.4502 0.799805q-28.8008 2.80078 -46.3506 35.2021
l0.450195 5.60059l12.5996 -0.799805zM691.356 1365.23q118.804 -34.4023 117.004 -47.6035q23.8506 -111.207 88.2021 -235.214q43.6514 -74.8047 100.353 -136.009q102.603 -99.2061 175.055 -117.207l-0.450195 -2.7998l-3.59961 -2.80078l-2.7002 3.2002
l-22.501 -0.399414l-12.1504 0.799805l-62.5508 3.2002q-82.8027 16.001 -173.255 106.406q-88.2031 107.606 -110.703 178.812q-20.251 40.4023 -19.3506 52.0029l-3.15039 0.399414l-0.450195 -5.59961q11.251 -64.4043 3.15039 -132.009
q-6.75 -53.2031 -26.5508 -87.2051l-100.353 1.60059q-33.3008 55.2031 -91.3525 131.607l1.34961 -14.001l-5.84961 -49.6025q-3.15039 -25.2012 -19.8008 -62.8037l2.7002 -0.400391q-4.5 -10.8008 -13.5 -10.001l-80.1025 19.2012h-3.15039l0.450195 3.20117
l26.5508 89.6055l-1.34961 11.2002l4.0498 8.40039l-2.25 8.40039l0.450195 5.60059l3.14941 -0.400391l2.25 95.2061l2.7002 -0.399414q-4.5 15.6006 -1.34961 39.2021l3.15039 -0.400391q72.4512 12.8008 92.7021 10.8008q17.5508 -58.0039 99.0029 -146.809
l5.84961 -6.00098l5.85059 -0.399414l11.25 40.8018q7.65039 61.6045 -24.751 212.813h-3.14941q27.9004 31.6016 39.1504 35.6025z" />
    <glyph glyph-name="minus" unicode="&#x2212;" horiz-adv-x="954" 
d="M589 592q-30 1 -50 -6l-317 3l-32 -3l-12 1l-4 8l-46 -3l-36 16l-3 52q18 60 89 53q76 -3 121 -2q84 -2 259 11h5q170 24 296 53l-17 -153q-54 -24 -253 -30z" />
    <glyph glyph-name="lessequal" unicode="&#x2264;" horiz-adv-x="1014" 
d="M539 662q21 -3 44 -6l5 -1q171 -11 300 -9l-48 -146q-58 -12 -254 23q-29 7 -50 4l-309 68l-32 3l-12 4l-2 9l-46 6l-9 6l-2 1v1l-21 15l8 52q11 20 26 29q21 17 57 19q76 8 120 16q83 10 255 47l5 1q165 48 285 94l5 -154q-50 -31 -246 -65q-30 -3 -49 -13zM589 206
q-30 1 -50 -6l-317 3l-32 -3l-12 1l-4 8l-46 -3l-36 16l-3 52q18 60 89 53q76 -3 121 -2q84 -2 259 11h5q170 24 296 53l-17 -153q-54 -24 -253 -30z" />
    <glyph glyph-name="greaterequal" unicode="&#x2265;" horiz-adv-x="1014" 
d="M422 666q-19 10 -49 13q-196 34 -246 65l5 154q120 -46 285 -94l5 -1q172 -37 255 -47q44 -8 120 -16q36 -2 57 -19q15 -9 26 -29l8 -52l-21 -15v-1l-2 -1l-9 -6l-46 -6l-2 -9l-12 -4l-32 -3l-309 -68q-21 3 -50 -4q-196 -35 -254 -23l-48 146q129 -2 300 9l5 1
q23 3 44 6zM589 206q-30 1 -50 -6l-317 3l-32 -3l-12 1l-4 8l-46 -3l-36 16l-3 52q18 60 89 53q76 -3 121 -2q84 -2 259 11h5q170 24 296 53l-17 -153q-54 -24 -253 -30z" />
  </font>
</defs>
</svg>
